<svg width="330" height="330" viewBox="0 0 330 330" fill="none" xmlns="http://www.w3.org/2000/svg">
<rect width="330" height="330" rx="20" fill="url(#paint0_linear_324_1568)"/>
<rect x="144.789" y="41" width="101.426" height="164.741" rx="2" transform="rotate(32.0412 144.789 41)" fill="url(#paint1_linear_324_1568)"/>
<rect x="204.954" y="42.8749" width="108.746" height="164.741" rx="3" transform="rotate(51.5923 204.954 42.8749)" fill="url(#paint2_linear_324_1568)"/>
<rect x="51" y="141.546" width="227.999" height="147.946" rx="5" fill="url(#paint3_linear_324_1568)"/>
<rect x="170.857" y="203.529" width="108.143" height="85.9637" rx="5" fill="url(#paint4_linear_324_1568)"/>
<g filter="url(#filter0_d_324_1568)">
<path d="M170.857 209.738C170.857 198.692 179.811 189.738 190.857 189.738H279V240.279H190.857C179.811 240.279 170.857 231.324 170.857 220.279V209.738Z" fill="url(#paint5_linear_324_1568)"/>
</g>
<circle cx="196.314" cy="215.009" r="12.7771" fill="url(#paint6_linear_324_1568)"/>
<defs>
<filter id="filter0_d_324_1568" x="160.857" y="183.738" width="128.143" height="70.541" filterUnits="userSpaceOnUse" color-interpolation-filters="sRGB">
<feFlood flood-opacity="0" result="BackgroundImageFix"/>
<feColorMatrix in="SourceAlpha" type="matrix" values="0 0 0 0 0 0 0 0 0 0 0 0 0 0 0 0 0 0 127 0" result="hardAlpha"/>
<feOffset dy="4"/>
<feGaussianBlur stdDeviation="5"/>
<feComposite in2="hardAlpha" operator="out"/>
<feColorMatrix type="matrix" values="0 0 0 0 0.22917 0 0 0 0 0.178299 0 0 0 0 0.541667 0 0 0 0.5 0"/>
<feBlend mode="normal" in2="BackgroundImageFix" result="effect1_dropShadow_324_1568"/>
<feBlend mode="normal" in="SourceGraphic" in2="effect1_dropShadow_324_1568" result="shape"/>
</filter>
<linearGradient id="paint0_linear_324_1568" x1="87.9276" y1="308.195" x2="469.211" y2="224.577" gradientUnits="userSpaceOnUse">
<stop stop-color="#12123E"/>
<stop offset="1" stop-color="#3E3174"/>
</linearGradient>
<linearGradient id="paint1_linear_324_1568" x1="138.797" y1="77.5956" x2="209.3" y2="87.6509" gradientUnits="userSpaceOnUse">
<stop stop-color="#9378E1"/>
<stop offset="1" stop-color="#503EBB"/>
</linearGradient>
<linearGradient id="paint2_linear_324_1568" x1="201.551" y1="48.2955" x2="365.796" y2="204.255" gradientUnits="userSpaceOnUse">
<stop stop-color="#74F7DF"/>
<stop offset="1" stop-color="#835AF7"/>
</linearGradient>
<linearGradient id="paint3_linear_324_1568" x1="250.192" y1="141.546" x2="183.123" y2="310.581" gradientUnits="userSpaceOnUse">
<stop stop-color="#AF97F2"/>
<stop offset="1" stop-color="#503EBB"/>
</linearGradient>
<linearGradient id="paint4_linear_324_1568" x1="158.273" y1="236.408" x2="258.924" y2="202.872" gradientUnits="userSpaceOnUse">
<stop stop-color="#503EBB" stop-opacity="0"/>
<stop offset="1" stop-color="#503EBB"/>
</linearGradient>
<linearGradient id="paint5_linear_324_1568" x1="239.534" y1="174.03" x2="220.257" y2="253.62" gradientUnits="userSpaceOnUse">
<stop stop-color="#63ECD3"/>
<stop offset="1" stop-color="#835AF7"/>
</linearGradient>
<linearGradient id="paint6_linear_324_1568" x1="196.314" y1="202.232" x2="164.25" y2="244.262" gradientUnits="userSpaceOnUse">
<stop stop-color="#63ECD3"/>
<stop offset="1" stop-color="#835AF7"/>
</linearGradient>
</defs>
</svg>
