<svg width="1920" height="785" viewBox="0 0 1920 785" fill="none" xmlns="http://www.w3.org/2000/svg">
<g clip-path="url(#clip0_15_279)">
<g clip-path="url(#clip1_15_279)">
<g filter="url(#filter0_f_15_279)">
<path d="M1680.69 195.324C2026.92 253.948 2047.19 413.887 2131.01 380.452C2410.54 268.955 2263.59 230.386 2179.77 -188.605C2095.94 -607.596 1743.47 -293.09 1362.93 -237.341C982.402 -181.593 1247.9 122.045 1680.69 195.324Z" fill="#1B58F4"/>
</g>
<g filter="url(#filter1_f_15_279)">
<path d="M676.833 155.404C1035.87 85.6304 1026.19 -230.533 1055 -288.436C1043.86 -317.024 1055 -302.73 1001.98 -353.365C948.958 -403.999 792.317 -244.827 255.087 -114.728C-282.142 15.3718 163.572 -1.34494 144.204 242.138C124.835 485.62 317.792 225.179 676.833 155.404Z" fill="#4D29B4"/>
</g>
<g style="mix-blend-mode:overlay" filter="url(#filter2_f_15_279)">
<path d="M118.317 137.469C84.6298 352.855 378.186 325.581 547.022 169.156C710.327 17.8532 419.272 -32.1321 306.402 -73.7176C217.773 -101.828 152.004 -77.9167 118.317 137.469Z" fill="#74FFE6"/>
</g>
<g style="mix-blend-mode:overlay" filter="url(#filter3_f_15_279)">
<path d="M1673.5 125.215C1736.97 48.3902 2020.84 103.139 2444.14 202.04C2544.09 249.724 2515.1 209.987 2270.72 315.731C2026.33 421.476 1610.03 202.04 1673.5 125.215Z" fill="#74FFE6"/>
</g>
</g>
<path fill-rule="evenodd" clip-rule="evenodd" d="M1655.65 427.69L1674.49 405.47V405.46C1687.82 389.82 1708.44 382 1728.71 384.84L1905.35 410.123C1905.33 410.307 1905.31 410.492 1905.3 410.678C1903.52 428.344 1901.06 452.905 1895.7 486.98C1883.52 564.465 1875.65 571.281 1851.21 592.47C1846.15 596.863 1840.37 601.874 1833.69 608.26C1827.45 614.224 1822.24 619.481 1817.65 624.117C1793.6 648.39 1786.41 655.641 1736.99 658.21C1697.57 660.259 1680.31 668.566 1660.89 677.908C1651.32 682.516 1641.22 687.375 1627.68 691.86C1603.01 700.032 1575.68 696.113 1544.31 691.615C1523.55 688.638 1501.02 685.407 1476.32 685.26C1442.66 685.059 1434.39 697.404 1425.3 710.982C1417.63 722.421 1409.38 734.735 1384.87 741.16C1343.84 753.538 1292.72 752.305 1242.37 751.09C1203.73 750.157 1165.54 749.235 1132.72 754.49C1057.15 766.58 869.84 762.36 795.93 760.26C722.03 758.15 597.6 758.16 525.08 764.46C464.804 769.696 432.293 737.365 408.098 713.305C403.183 708.417 398.611 703.871 394.22 700.05C370.249 679.211 321.529 679.183 267.163 679.151C262.516 679.148 257.828 679.146 253.11 679.13C217.351 679.011 205.462 670.676 194.815 663.212C187.624 658.171 180.999 653.527 167.97 652.08C135.65 648.49 134.07 639.11 147.47 630.95C160.87 622.79 160.08 610.38 129.34 591.86C98.6 573.34 0 587.64 0 587.64V337.56L39.47 328.5C61.34 323.53 83.38 336.33 89.96 357.66L92.8 366.9C102.58 398.37 135.11 417.03 167.29 409.39L388.09 356.77C428.97 346.99 472 356.77 504.53 383.26L634.66 488.68C649.24 500.41 669.69 501.48 685.33 491.17L729.6 462.01C752.35 447.07 782.04 448.85 802.84 466.45L926.04 570.81C932.514 576.273 939.497 582.912 946.836 589.889C975.567 617.205 1009.76 649.718 1040.35 637.26L1098.31 613.62C1131.56 600.1 1169.42 604.73 1198.4 626.06L1244.62 654.45C1271.65 663.635 1293.48 638.866 1312.08 617.751C1315.99 613.325 1319.74 609.059 1323.38 605.3L1362.85 564.41C1375.47 551.26 1393.43 544.68 1411.56 546.28L1419.74 546.99C1444.63 549.3 1468.46 535.97 1479.3 513.39L1496.54 477.83C1507.39 455.43 1531.03 442.1 1555.92 444.23L1604.63 448.67C1624.01 450.27 1643.03 442.45 1655.65 427.69ZM1919.99 785.48H1920V412.22L1919.99 412.219V785.48Z" fill="#371D80"/>
<path d="M607.89 269.37C609.994 269.37 611.7 267.664 611.7 265.56C611.7 263.456 609.994 261.75 607.89 261.75C605.786 261.75 604.08 263.456 604.08 265.56C604.08 267.664 605.786 269.37 607.89 269.37Z" fill="white"/>
<path d="M610.38 257.28C611.755 257.28 612.87 256.165 612.87 254.79C612.87 253.415 611.755 252.3 610.38 252.3C609.005 252.3 607.89 253.415 607.89 254.79C607.89 256.165 609.005 257.28 610.38 257.28Z" fill="white"/>
<path d="M436.79 283.83C438.165 283.83 439.28 282.715 439.28 281.34C439.28 279.965 438.165 278.85 436.79 278.85C435.415 278.85 434.3 279.965 434.3 281.34C434.3 282.715 435.415 283.83 436.79 283.83Z" fill="white"/>
<path d="M587.26 239.94C589.944 239.94 592.12 237.764 592.12 235.08C592.12 232.396 589.944 230.22 587.26 230.22C584.576 230.22 582.4 232.396 582.4 235.08C582.4 237.764 584.576 239.94 587.26 239.94Z" fill="white"/>
<path d="M371.78 253.32C374.464 253.32 376.64 251.144 376.64 248.46C376.64 245.776 374.464 243.6 371.78 243.6C369.096 243.6 366.92 245.776 366.92 248.46C366.92 251.144 369.096 253.32 371.78 253.32Z" fill="white"/>
<path d="M1751.08 227.15C1753.76 227.15 1755.94 224.974 1755.94 222.29C1755.94 219.606 1753.76 217.43 1751.08 217.43C1748.4 217.43 1746.22 219.606 1746.22 222.29C1746.22 224.974 1748.4 227.15 1751.08 227.15Z" fill="white"/>
<path d="M1764.45 349.22C1767.13 349.22 1769.31 347.044 1769.31 344.36C1769.31 341.676 1767.13 339.5 1764.45 339.5C1761.77 339.5 1759.59 341.676 1759.59 344.36C1759.59 347.044 1761.77 349.22 1764.45 349.22Z" fill="white"/>
<path d="M549.94 246.77C552.624 246.77 554.8 244.594 554.8 241.91C554.8 239.226 552.624 237.05 549.94 237.05C547.256 237.05 545.08 239.226 545.08 241.91C545.08 244.594 547.256 246.77 549.94 246.77Z" fill="white"/>
<path d="M572.15 237.84C573.674 237.84 574.91 236.604 574.91 235.08C574.91 233.556 573.674 232.32 572.15 232.32C570.626 232.32 569.39 233.556 569.39 235.08C569.39 236.604 570.626 237.84 572.15 237.84Z" fill="white"/>
<path d="M248.64 323.52C250.164 323.52 251.4 322.284 251.4 320.76C251.4 319.236 250.164 318 248.64 318C247.116 318 245.88 319.236 245.88 320.76C245.88 322.284 247.116 323.52 248.64 323.52Z" fill="white"/>
<path d="M572.15 222.34C573.674 222.34 574.91 221.104 574.91 219.58C574.91 218.056 573.674 216.82 572.15 216.82C570.626 216.82 569.39 218.056 569.39 219.58C569.39 221.104 570.626 222.34 572.15 222.34Z" fill="white"/>
<path d="M270.36 308.69C271.884 308.69 273.12 307.454 273.12 305.93C273.12 304.406 271.884 303.17 270.36 303.17C268.836 303.17 267.6 304.406 267.6 305.93C267.6 307.454 268.836 308.69 270.36 308.69Z" fill="white"/>
<path d="M1738.31 205.79C1739.83 205.79 1741.07 204.554 1741.07 203.03C1741.07 201.506 1739.83 200.27 1738.31 200.27C1736.79 200.27 1735.55 201.506 1735.55 203.03C1735.55 204.554 1736.79 205.79 1738.31 205.79Z" fill="white"/>
<path d="M557.56 223.13C559.084 223.13 560.32 221.894 560.32 220.37C560.32 218.846 559.084 217.61 557.56 217.61C556.036 217.61 554.8 218.846 554.8 220.37C554.8 221.894 556.036 223.13 557.56 223.13Z" fill="white"/>
<path d="M313.16 315.9C314.684 315.9 315.92 314.664 315.92 313.14C315.92 311.616 314.684 310.38 313.16 310.38C311.636 310.38 310.4 311.616 310.4 313.14C310.4 314.664 311.636 315.9 313.16 315.9Z" fill="white"/>
<path d="M355.29 215.38C356.814 215.38 358.05 214.144 358.05 212.62C358.05 211.096 356.814 209.86 355.29 209.86C353.766 209.86 352.53 211.096 352.53 212.62C352.53 214.144 353.766 215.38 355.29 215.38Z" fill="white"/>
<path d="M549.94 216.04C551.829 216.04 553.36 214.509 553.36 212.62C553.36 210.731 551.829 209.2 549.94 209.2C548.051 209.2 546.52 210.731 546.52 212.62C546.52 214.509 548.051 216.04 549.94 216.04Z" fill="white"/>
<path d="M1450.5 325.31C1453.26 325.31 1455.5 323.071 1455.5 320.31C1455.5 317.549 1453.26 315.31 1450.5 315.31C1447.74 315.31 1445.5 317.549 1445.5 320.31C1445.5 323.071 1447.74 325.31 1450.5 325.31Z" fill="white"/>
<path d="M1412.66 314.4C1414.62 314.4 1416.21 312.811 1416.21 310.85C1416.21 308.889 1414.62 307.3 1412.66 307.3C1410.7 307.3 1409.11 308.889 1409.11 310.85C1409.11 312.811 1410.7 314.4 1412.66 314.4Z" fill="white"/>
<path d="M1780.22 328.85C1782.18 328.85 1783.77 327.261 1783.77 325.3C1783.77 323.339 1782.18 321.75 1780.22 321.75C1778.26 321.75 1776.67 323.339 1776.67 325.3C1776.67 327.261 1778.26 328.85 1780.22 328.85Z" fill="white"/>
<path d="M1398.33 272.87C1400.94 272.87 1403.06 270.752 1403.06 268.14C1403.06 265.528 1400.94 263.41 1398.33 263.41C1395.72 263.41 1393.6 265.528 1393.6 268.14C1393.6 270.752 1395.72 272.87 1398.33 272.87Z" fill="white"/>
<path d="M1192.65 222.34C1195.26 222.34 1197.38 220.222 1197.38 217.61C1197.38 214.998 1195.26 212.88 1192.65 212.88C1190.04 212.88 1187.92 214.998 1187.92 217.61C1187.92 220.222 1190.04 222.34 1192.65 222.34Z" fill="white"/>
<path d="M1427.63 241.21C1429.44 241.21 1430.91 239.741 1430.91 237.93C1430.91 236.118 1429.44 234.65 1427.63 234.65C1425.82 234.65 1424.35 236.118 1424.35 237.93C1424.35 239.741 1425.82 241.21 1427.63 241.21Z" fill="white"/>
<path d="M1412.66 242.92C1415.42 242.92 1417.65 240.686 1417.65 237.93C1417.65 235.174 1415.42 232.94 1412.66 232.94C1409.9 232.94 1407.67 235.174 1407.67 237.93C1407.67 240.686 1409.9 242.92 1412.66 242.92Z" fill="white"/>
<path d="M1465.74 220.32C1468.5 220.32 1470.73 218.086 1470.73 215.33C1470.73 212.574 1468.5 210.34 1465.74 210.34C1462.98 210.34 1460.75 212.574 1460.75 215.33C1460.75 218.086 1462.98 220.32 1465.74 220.32Z" fill="white"/>
<path d="M1223.76 231.93C1226.52 231.93 1228.75 229.696 1228.75 226.94C1228.75 224.184 1226.52 221.95 1223.76 221.95C1221 221.95 1218.77 224.184 1218.77 226.94C1218.77 229.696 1221 231.93 1223.76 231.93Z" fill="white"/>
<path d="M1458.25 241.21C1460.06 241.21 1461.53 239.741 1461.53 237.93C1461.53 236.118 1460.06 234.65 1458.25 234.65C1456.44 234.65 1454.97 236.118 1454.97 237.93C1454.97 239.741 1456.44 241.21 1458.25 241.21Z" fill="white"/>
<path d="M1620.19 200.88C1622 200.88 1623.47 199.411 1623.47 197.6C1623.47 195.788 1622 194.32 1620.19 194.32C1618.38 194.32 1616.91 195.788 1616.91 197.6C1616.91 199.411 1618.38 200.88 1620.19 200.88Z" fill="white"/>
<path d="M1713.17 215.32C1714.98 215.32 1716.45 213.851 1716.45 212.04C1716.45 210.228 1714.98 208.76 1713.17 208.76C1711.36 208.76 1709.89 210.228 1709.89 212.04C1709.89 213.851 1711.36 215.32 1713.17 215.32Z" fill="white"/>
<path d="M1442.21 256.18C1444.02 256.18 1445.49 254.711 1445.49 252.9C1445.49 251.088 1444.02 249.62 1442.21 249.62C1440.4 249.62 1438.93 251.088 1438.93 252.9C1438.93 254.711 1440.4 256.18 1442.21 256.18Z" fill="white"/>
<path d="M1354.05 240.55C1355.86 240.55 1357.33 239.081 1357.33 237.27C1357.33 235.458 1355.86 233.99 1354.05 233.99C1352.24 233.99 1350.77 235.458 1350.77 237.27C1350.77 239.081 1352.24 240.55 1354.05 240.55Z" fill="white"/>
<path d="M1623.47 389.52C1625.28 389.52 1626.75 388.051 1626.75 386.24C1626.75 384.428 1625.28 382.96 1623.47 382.96C1621.66 382.96 1620.19 384.428 1620.19 386.24C1620.19 388.051 1621.66 389.52 1623.47 389.52Z" fill="white"/>
<path d="M1397.67 224.79C1399.05 224.79 1400.17 223.671 1400.17 222.29C1400.17 220.909 1399.05 219.79 1397.67 219.79C1396.29 219.79 1395.17 220.909 1395.17 222.29C1395.17 223.671 1396.29 224.79 1397.67 224.79Z" fill="white"/>
<path d="M1207.44 200.1C1208.82 200.1 1209.94 198.981 1209.94 197.6C1209.94 196.219 1208.82 195.1 1207.44 195.1C1206.06 195.1 1204.94 196.219 1204.94 197.6C1204.94 198.981 1206.06 200.1 1207.44 200.1Z" fill="white"/>
<path d="M1368.77 269.98C1370.58 269.98 1372.05 268.511 1372.05 266.7C1372.05 264.888 1370.58 263.42 1368.77 263.42C1366.96 263.42 1365.49 264.888 1365.49 266.7C1365.49 268.511 1366.96 269.98 1368.77 269.98Z" fill="white"/>
<path d="M1764.45 239.55C1766.26 239.55 1767.73 238.081 1767.73 236.27C1767.73 234.458 1766.26 232.99 1764.45 232.99C1762.64 232.99 1761.17 234.458 1761.17 236.27C1761.17 238.081 1762.64 239.55 1764.45 239.55Z" fill="white"/>
<path d="M572.15 207.88C573.453 207.88 574.51 206.823 574.51 205.52C574.51 204.217 573.453 203.16 572.15 203.16C570.847 203.16 569.79 204.217 569.79 205.52C569.79 206.823 570.847 207.88 572.15 207.88Z" fill="white"/>
<path d="M278.16 334.81C279.463 334.81 280.52 333.753 280.52 332.45C280.52 331.147 279.463 330.09 278.16 330.09C276.857 330.09 275.8 331.147 275.8 332.45C275.8 333.753 276.857 334.81 278.16 334.81Z" fill="white"/>
<path d="M1774.31 219.79C1775.61 219.79 1776.67 218.733 1776.67 217.43C1776.67 216.127 1775.61 215.07 1774.31 215.07C1773.01 215.07 1771.95 216.127 1771.95 217.43C1771.95 218.733 1773.01 219.79 1774.31 219.79Z" fill="white"/>
<path d="M1427.63 302.57C1430.31 302.57 1432.49 300.394 1432.49 297.71C1432.49 295.026 1430.31 292.85 1427.63 292.85C1424.95 292.85 1422.77 295.026 1422.77 297.71C1422.77 300.394 1424.95 302.57 1427.63 302.57Z" fill="white"/>
<path d="M1504.19 251.01C1504.52 250.67 1504.91 250.4 1505.38 250.32C1508.81 249.73 1516.14 249.62 1516.14 249.62C1516.14 249.62 1508.81 249.5 1505.38 248.92C1504.91 248.84 1504.52 248.56 1504.19 248.23C1503.85 247.9 1503.58 247.51 1503.5 247.04C1502.91 243.61 1502.8 236.28 1502.8 236.28C1502.8 236.28 1502.68 243.61 1502.1 247.04C1502.02 247.51 1501.74 247.9 1501.41 248.23C1501.08 248.57 1500.69 248.84 1500.22 248.92C1496.79 249.51 1489.46 249.62 1489.46 249.62C1489.46 249.62 1496.79 249.74 1500.22 250.32C1500.69 250.4 1501.08 250.68 1501.41 251.01C1501.75 251.34 1502.02 251.73 1502.1 252.2C1502.69 255.63 1502.8 262.96 1502.8 262.96C1502.8 262.96 1502.92 255.63 1503.5 252.2C1503.58 251.73 1503.86 251.34 1504.19 251.01Z" fill="white" stroke="white" stroke-width="0.5" stroke-miterlimit="10"/>
<path d="M573.55 274.27C573.88 273.93 574.27 273.66 574.74 273.58C578.17 272.99 585.5 272.88 585.5 272.88C585.5 272.88 578.17 272.76 574.74 272.18C574.27 272.1 573.88 271.82 573.55 271.49C573.21 271.16 572.94 270.77 572.86 270.3C572.27 266.87 572.16 259.54 572.16 259.54C572.16 259.54 572.04 266.87 571.46 270.3C571.38 270.77 571.1 271.16 570.77 271.49C570.44 271.83 570.05 272.1 569.58 272.18C566.15 272.77 558.82 272.88 558.82 272.88C558.82 272.88 566.15 273 569.58 273.58C570.05 273.66 570.44 273.94 570.77 274.27C571.11 274.6 571.38 274.99 571.46 275.46C572.05 278.89 572.16 286.22 572.16 286.22C572.16 286.22 572.28 278.89 572.86 275.46C572.94 274.99 573.22 274.6 573.55 274.27Z" fill="white" stroke="white" stroke-width="0.5" stroke-miterlimit="10"/>
<path d="M295.28 287.62C295.61 287.28 296 287.01 296.47 286.93C299.9 286.34 307.23 286.23 307.23 286.23C307.23 286.23 299.9 286.11 296.47 285.53C296 285.45 295.61 285.17 295.28 284.84C294.94 284.51 294.67 284.12 294.59 283.65C294 280.22 293.89 272.89 293.89 272.89C293.89 272.89 293.77 280.22 293.19 283.65C293.11 284.12 292.83 284.51 292.5 284.84C292.17 285.18 291.78 285.45 291.31 285.53C287.88 286.12 280.55 286.23 280.55 286.23C280.55 286.23 287.88 286.35 291.31 286.93C291.78 287.01 292.17 287.29 292.5 287.62C292.84 287.95 293.11 288.34 293.19 288.81C293.78 292.24 293.89 299.57 293.89 299.57C293.89 299.57 294.01 292.24 294.59 288.81C294.67 288.34 294.95 287.95 295.28 287.62Z" fill="white" stroke="white" stroke-width="0.5" stroke-miterlimit="10"/>
<path d="M1727.92 323.15C1728.25 322.81 1728.64 322.54 1729.11 322.46C1732.54 321.87 1739.87 321.76 1739.87 321.76C1739.87 321.76 1732.54 321.64 1729.11 321.06C1728.64 320.98 1728.25 320.7 1727.92 320.37C1727.58 320.04 1727.31 319.65 1727.23 319.18C1726.64 315.75 1726.53 308.42 1726.53 308.42C1726.53 308.42 1726.41 315.75 1725.83 319.18C1725.75 319.65 1725.47 320.04 1725.14 320.37C1724.81 320.71 1724.42 320.98 1723.95 321.06C1720.52 321.65 1713.19 321.76 1713.19 321.76C1713.19 321.76 1720.52 321.88 1723.95 322.46C1724.42 322.54 1724.81 322.82 1725.14 323.15C1725.48 323.48 1725.75 323.87 1725.83 324.34C1726.42 327.77 1726.53 335.1 1726.53 335.1C1726.53 335.1 1726.65 327.77 1727.23 324.34C1727.31 323.87 1727.59 323.48 1727.92 323.15Z" fill="white" stroke="white" stroke-width="0.5" stroke-miterlimit="10"/>
<path d="M1314.04 393.08H1300.2V741.14H1314.04V393.08Z" fill="#0064FF"/>
<path d="M1300.2 393.08H1286.36V741.14H1300.2V393.08Z" fill="#0000FF"/>
<path d="M820.98 592.72H796.48L816.98 639.26H960.17V592.72H820.98Z" fill="#0000FF"/>
<path d="M1103.51 592.72H1124.01L1103.51 639.26H960.32V592.72H1103.51Z" fill="#0000FF"/>
<path d="M796.27 245.67L643.82 408.93C637.31 415.9 633.64 425.5 633.64 435.52V695.52L796.48 520.08V354.84L796.28 245.66L796.27 245.67Z" fill="#00007F"/>
<path d="M1124.01 253.18L1276.18 408.93C1282.69 415.9 1286.36 425.5 1286.36 435.52V695.52L1124.01 521.07L1123.52 354.84L1124.01 253.17V253.18Z" fill="#66B1FF"/>
<path d="M823.28 639.26L803.79 691.84H960.17V639.26H823.28Z" fill="#0064FF"/>
<path d="M1097.21 639.26L1116.7 691.84H960.32V639.26H1097.21Z" fill="#0064FF"/>
<path d="M1124 -0.406006H796V576H1124V-0.406006Z" fill="#66B1FF"/>
<path d="M1107.08 631.15H813.11V639.26H1107.08V631.15Z" fill="#00007F"/>
<path d="M1118.74 582.2H801.74V587.64H1118.74V582.2Z" fill="#C2E0FF"/>
<path d="M1124.01 582.2V576.5H796.48V582.2H801.74V587.64H796.48V592.72H1124.01V587.64H1118.74V582.2H1124.01Z" fill="#0000FF"/>
<path d="M1125.43 359.958L1124 361.354L1241.87 482.393L1243.3 480.998L1125.43 359.958Z" fill="#0064FF"/>
<path d="M1242.34 480.92L1253.6 493.39V659.96L1242.34 648.1V480.92Z" fill="#C2E0FF"/>
<path d="M990.911 576H1053V-0.406006H796V576H901.755H990.911Z" fill="#0064FF"/>
<path d="M868 -0.406006H796V576H868V-0.406006Z" fill="#0000FF"/>
<path d="M841 -0.406006H796V576H841V-0.406006Z" fill="#00007F"/>
<path d="M801.74 584.92V587.64L809.65 584.92H801.74Z" fill="#000019"/>
<path d="M845.43 630.95H843.93V623.46H881.23V595.44H882.73V624.96H845.43V630.95Z" fill="#00007F"/>
<path d="M842.67 671.29H822.48L819.44 679.49H839.63L842.67 671.29Z" fill="#0000FF"/>
<path d="M846.59 660.72H826.4L823.36 668.92H843.55L846.59 660.72Z" fill="#0000FF"/>
<path d="M850.5 650.15H830.31L827.27 658.35H847.46L850.5 650.15Z" fill="#0000FF"/>
<path d="M854.54 639.26H834.35L831.19 647.79H851.38L854.54 639.26Z" fill="#0000FF"/>
<path d="M814.86 691.84H835.05L838.75 681.86H818.56L814.86 691.84Z" fill="#0000FF"/>
<path d="M859.8 691.84H872.18L875.88 681.86H863.5L859.8 691.84Z" fill="#0000FF"/>
<path d="M891.67 639.26H879.28L876.13 647.79H888.51L891.67 639.26Z" fill="#0000FF"/>
<path d="M868.29 668.92H880.68L883.72 660.72H871.33L868.29 668.92Z" fill="#0000FF"/>
<path d="M864.38 679.49H876.76L879.8 671.29H867.41L864.38 679.49Z" fill="#0000FF"/>
<path d="M875.25 650.15L872.21 658.35H884.59L887.63 650.15H875.25Z" fill="#0000FF"/>
<path d="M820.12 647.79L819.24 650.15H830.31L831.19 647.79H820.12Z" fill="#0000FF"/>
<path d="M892.19 650.15L892.95 647.79H888.51L887.63 650.15H892.19Z" fill="#000019"/>
<path d="M875.25 650.15L876.13 647.79H851.38L850.5 650.15H875.25Z" fill="#0000FF"/>
<path d="M851.38 647.79H831.19L830.31 650.15H850.5L851.38 647.79Z" fill="#000019"/>
<path d="M887.63 650.15L888.51 647.79H876.13L875.25 650.15H887.63Z" fill="#000019"/>
<path d="M888.4 660.72L889.17 658.35H884.59L883.72 660.72H888.4Z" fill="#000019"/>
<path d="M816.2 658.35L815.32 660.72H826.4L827.27 658.35H816.2Z" fill="#0000FF"/>
<path d="M846.59 660.72H871.33L872.21 658.35H847.46L846.59 660.72Z" fill="#0000FF"/>
<path d="M847.46 658.35H827.27L826.4 660.72H846.59L847.46 658.35Z" fill="#000019"/>
<path d="M871.33 660.72H883.72L884.59 658.35H872.21L871.33 660.72Z" fill="#000019"/>
<path d="M812.29 668.92L811.41 671.29H822.48L823.36 668.92H812.29Z" fill="#0000FF"/>
<path d="M842.67 671.29H867.41L868.29 668.92H843.55L842.67 671.29Z" fill="#0000FF"/>
<path d="M884.62 671.29L885.39 668.92H880.68L879.8 671.29H884.62Z" fill="#000019"/>
<path d="M843.55 668.92H823.36L822.48 671.29H842.67L843.55 668.92Z" fill="#000019"/>
<path d="M867.41 671.29H879.8L880.68 668.92H868.29L867.41 671.29Z" fill="#000019"/>
<path d="M880.84 681.86L881.6 679.49H876.76L875.88 681.86H880.84Z" fill="#000019"/>
<path d="M808.37 679.49L807.49 681.86H818.56L819.44 679.49H808.37Z" fill="#0000FF"/>
<path d="M839.63 679.49L838.75 681.86H863.5L864.38 679.49H839.63Z" fill="#0000FF"/>
<path d="M819.44 679.49L818.56 681.86H838.75L839.63 679.49H819.44Z" fill="#000019"/>
<path d="M863.5 681.86H875.88L876.76 679.49H864.38L863.5 681.86Z" fill="#000019"/>
<path d="M1082.02 639.26H1059.58L1062.74 647.79H1085.18L1082.02 639.26Z" fill="#0000FF"/>
<path d="M1070.57 668.92H1093.02L1089.98 660.72H1067.54L1070.57 668.92Z" fill="#0000FF"/>
<path d="M1066.66 658.35H1089.1L1086.06 650.15H1063.62L1066.66 658.35Z" fill="#0000FF"/>
<path d="M1074.49 679.49H1096.93L1093.89 671.29H1071.45L1074.49 679.49Z" fill="#0000FF"/>
<path d="M1075.37 681.86L1079.07 691.84H1101.51L1097.81 681.86H1075.37Z" fill="#0000FF"/>
<path d="M1039.28 679.49H1057.61L1054.57 671.29H1036.37L1035.49 668.92H1053.69L1050.66 660.72H1032.59L1031.71 658.35H1049.78L1046.74 650.15H1028.81L1027.93 647.79H1045.86L1042.7 639.26H1020.26L1039.75 691.84H1062.19L1058.49 681.86H1040.16L1039.28 679.49Z" fill="#0000FF"/>
<path d="M1112.99 681.86L1112.12 679.49H1096.93L1097.81 681.86H1112.99Z" fill="#0000FF"/>
<path d="M1057.61 679.49L1058.49 681.86H1075.37L1074.49 679.49H1057.61Z" fill="#0000FF"/>
<path d="M1096.93 679.49H1074.49L1075.37 681.86H1097.81L1096.93 679.49Z" fill="#000019"/>
<path d="M1039.28 679.49L1040.16 681.86H1058.49L1057.61 679.49H1039.28Z" fill="#000019"/>
<path d="M1070.57 668.92H1053.69L1054.57 671.29H1071.45L1070.57 668.92Z" fill="#0000FF"/>
<path d="M1109.08 671.29L1108.2 668.92H1093.02L1093.89 671.29H1109.08Z" fill="#0000FF"/>
<path d="M1071.45 671.29H1093.89L1093.02 668.92H1070.57L1071.45 671.29Z" fill="#000019"/>
<path d="M1035.49 668.92L1036.37 671.29H1054.57L1053.69 668.92H1035.49Z" fill="#000019"/>
<path d="M1105.16 660.72L1104.28 658.35H1089.1L1089.98 660.72H1105.16Z" fill="#0000FF"/>
<path d="M1066.66 658.35H1049.78L1050.66 660.72H1067.54L1066.66 658.35Z" fill="#0000FF"/>
<path d="M1067.54 660.72H1089.98L1089.1 658.35H1066.66L1067.54 660.72Z" fill="#000019"/>
<path d="M1031.71 658.35L1032.59 660.72H1050.66L1049.78 658.35H1031.71Z" fill="#000019"/>
<path d="M1101.25 650.15L1100.37 647.79H1085.18L1086.06 650.15H1101.25Z" fill="#0000FF"/>
<path d="M1063.62 650.15L1062.74 647.79H1045.86L1046.74 650.15H1063.62Z" fill="#0000FF"/>
<path d="M1086.06 650.15L1085.18 647.79H1062.74L1063.62 650.15H1086.06Z" fill="#000019"/>
<path d="M1028.81 650.15H1046.74L1045.86 647.79H1027.93L1028.81 650.15Z" fill="#000019"/>
<path d="M840.72 480.3H836.76V322.88C836.76 320.68 838.53 318.89 840.72 318.89V480.3Z" fill="#0000FF"/>
<path d="M840.72 206.39H836.76V48.9701C836.76 46.7701 838.53 44.9801 840.72 44.9801V206.39Z" fill="#0000FF"/>
<path d="M840.72 318.89C842.91 318.89 844.68 320.66 844.68 322.85V480.3H840.72V318.89Z" fill="#0064FF"/>
<path d="M840.72 44.9801C842.91 44.9801 844.68 46.7501 844.68 48.9401V206.39H840.72V44.9801Z" fill="#0064FF"/>
<path d="M945.68 511.92L934.86 499.93V482.23H935.86V499.55L946.42 511.25L945.68 511.92Z" fill="#0064FF"/>
<path d="M935.86 576.5H934.86V558.23L945.68 546.25L946.42 546.92L935.86 558.62V576.5Z" fill="#0064FF"/>
<path d="M1286.36 393.08L1290.88 379.39H1300.2V393.08H1286.36Z" fill="#00007F"/>
<path d="M1314.05 393.08L1309.52 379.39H1300.2V393.08H1314.05Z" fill="#66B1FF"/>
<path d="M633.64 393.08H619.8V741.14H633.64V393.08Z" fill="#0000FF"/>
<path d="M619.79 393.08H605.95V741.14H619.79V393.08Z" fill="#00007F"/>
<path d="M605.95 393.08L610.48 379.39H619.8V393.08H605.95Z" fill="#00007F"/>
<path d="M633.64 393.08L629.12 379.39H619.8V393.08H633.64Z" fill="#00007F"/>
<path d="M903.58 614.67H838.06L819.92 594.59L821.04 593.58L838.73 613.17H903.58V614.67Z" fill="#00007F"/>
<path d="M1286.37 477.83L1241.61 429.9L1243.07 428.53L1286.32 474.95L1286.37 477.83Z" fill="#0064FF"/>
<path d="M1125.43 359.958L1124 361.354L1241.87 482.393L1243.3 480.998L1125.43 359.958Z" fill="#0064FF"/>
<path d="M1242.34 480.92L1253.6 493.39V659.96L1242.34 648.1V480.92Z" fill="#C2E0FF"/>
<path d="M1286.36 435.52C1286.36 425.49 1282.69 415.9 1276.18 408.93L1243.34 375.32V390.36L1270.46 418.26L1286.36 435.53V435.52Z" fill="#C2E0FF"/>
<path d="M1140.97 270.54L1140.96 270.53L1140.97 270.54Z" fill="#0064FF"/>
<path d="M1124.01 521.08L1140.97 539.3V285.05L1123.99 267.59L1124.01 521.08Z" fill="#0064FF"/>
<path d="M1241.34 373.28L1140.97 270.54V285.05L1241.34 388.3V373.28Z" fill="#C2E0FF"/>
<path d="M1241.34 647.03L1243.34 649.18V390.36L1241.34 388.3V647.03Z" fill="#0064FF"/>
<path d="M1241.34 373.28V388.3L1243.34 390.36V375.32L1241.34 373.28Z" fill="#66B1FF"/>
<path d="M633.64 458L633.66 455.15L677.57 408.07L679.03 409.44L633.64 458Z" fill="#0064FF"/>
<path d="M678.3 480.92L667.04 493.39V659.54L678.3 647.41V480.92Z" fill="#0000FF"/>
<path d="M643.82 408.93C637.31 415.9 633.64 425.5 633.64 435.52L649.91 416L677.31 387.53V373.08L643.83 408.93H643.82Z" fill="#000019"/>
<path d="M779.37 281.46V263.78L796.28 245.89L796.27 245.67L679.3 370.94V385.45L779.37 281.46Z" fill="#000019"/>
<path d="M779.37 376.25L796.48 358.68V263.68L779.37 281.46V376.25Z" fill="#000019"/>
<path d="M779.37 538.89L796.48 520.92V361.51L779.37 379.08V538.89Z" fill="#000019"/>
<path d="M796.48 245.67L796.28 245.89L796.48 263.68V245.67Z" fill="#000019"/>
<path d="M779.37 281.46L796.48 263.68L796.28 245.89L779.37 263.78V281.46Z" fill="#000019"/>
<path d="M796.5 358.66L796.48 358.68V361.51L796.49 361.5L796.5 358.66Z" fill="#0064FF"/>
<path d="M679.3 478.97V481.84L779.37 379.08V376.25L679.3 478.97Z" fill="#0064FF"/>
<path d="M779.37 376.25V379.08L796.48 361.51V358.68L779.37 376.25Z" fill="#0000FF"/>
<path d="M677.35 480.98L679.3 478.97V385.45L677.3 387.53V648.49L679.3 646.34V481.84L678.78 482.37L677.35 480.98Z" fill="#0064FF"/>
<path d="M679.3 370.94L677.3 373.08V387.53L679.3 385.45V370.94Z" fill="#0000FF"/>
<path d="M677.35 480.98L678.78 482.37L679.3 481.84V478.97L677.35 480.98Z" fill="#0064FF"/>
<path d="M1043.51 517.7H1032.53C1032.31 517.7 1032.13 517.879 1032.13 518.1V529.08C1032.13 529.301 1032.31 529.48 1032.53 529.48H1043.51C1043.73 529.48 1043.91 529.301 1043.91 529.08V518.1C1043.91 517.879 1043.73 517.7 1043.51 517.7Z" fill="#66B1FF"/>
<path fill-rule="evenodd" clip-rule="evenodd" d="M1025.81 536.2H1040.14C1040.36 536.2 1040.54 536.02 1040.54 535.8V531.56C1040.54 531.34 1040.36 531.16 1040.14 531.16H1030.85C1030.63 531.16 1030.45 530.98 1030.45 530.76V521.47C1030.45 521.25 1030.27 521.07 1030.05 521.07H1025.81C1025.59 521.07 1025.41 521.25 1025.41 521.47V535.8C1025.41 536.02 1025.59 536.2 1025.81 536.2Z" fill="#66B1FF"/>
<path fill-rule="evenodd" clip-rule="evenodd" d="M1023.72 522.26V529.96C1023.72 530.16 1023.56 530.32 1023.36 530.32H1015.66C1015.34 530.32 1015.18 529.94 1015.41 529.71L1023.11 522.01C1023.33 521.79 1023.72 521.94 1023.72 522.26Z" fill="#66B1FF"/>
<path fill-rule="evenodd" clip-rule="evenodd" d="M1031.29 545.94V538.24C1031.29 538.04 1031.45 537.88 1031.65 537.88H1039.35C1039.67 537.88 1039.83 538.26 1039.6 538.49L1031.9 546.19C1031.68 546.41 1031.29 546.26 1031.29 545.94Z" fill="#66B1FF"/>
<path d="M937.05 361.3C936.92 361.3 936.79 361.28 936.68 361.23C936.66 361.23 936.64 361.22 936.63 361.21C936.61 361.21 936.6 361.21 936.58 361.21C936.07 361 935.82 360.42 936.02 359.91C936.23 359.41 936.82 359.15 937.32 359.35C937.34 359.35 937.36 359.36 937.37 359.37C937.39 359.37 937.4 359.37 937.42 359.39C937.79 359.53 938.04 359.89 938.05 360.29C938.05 360.42 938.02 360.56 937.97 360.68C937.82 361.07 937.46 361.31 937.05 361.31V361.3ZM984.01 360.66C983.61 360.66 983.25 360.43 983.09 360.06C982.99 359.81 982.98 359.54 983.09 359.29C983.19 359.05 983.38 358.85 983.63 358.75C983.63 358.75 983.66 358.73 983.67 358.73C983.69 358.72 983.7 358.72 983.72 358.71C984.22 358.49 984.82 358.74 985.03 359.23C985.08 359.36 985.11 359.48 985.11 359.62C985.11 360.02 984.88 360.39 984.51 360.55C984.48 360.56 984.46 360.57 984.43 360.58C984.3 360.64 984.17 360.66 984.03 360.66H984.01ZM923.03 353.47C922.82 353.47 922.62 353.4 922.45 353.28C922.43 353.27 922.41 353.25 922.39 353.24C922.39 353.23 922.37 353.22 922.37 353.22C922.15 353.06 922.01 352.83 921.97 352.56C921.94 352.3 922 352.03 922.17 351.82C922.48 351.4 923.14 351.3 923.56 351.62C923.58 351.62 923.59 351.64 923.6 351.65C923.62 351.66 923.63 351.67 923.64 351.68C923.89 351.87 924.03 352.15 924.03 352.47C924.03 352.69 923.97 352.89 923.84 353.07C923.65 353.32 923.35 353.47 923.03 353.47ZM997.8 352.46C997.5 352.46 997.21 352.32 997.02 352.08C996.85 351.87 996.78 351.61 996.81 351.34C996.84 351.07 996.97 350.84 997.18 350.67L997.26 350.61C997.68 350.28 998.33 350.35 998.66 350.77C998.81 350.96 998.88 351.18 998.88 351.41C998.88 351.71 998.74 351.98 998.51 352.17C998.51 352.17 998.503 352.177 998.49 352.19H998.47C998.47 352.19 998.44 352.22 998.43 352.23C998.26 352.37 998.04 352.45 997.81 352.45L997.8 352.46ZM911.52 342.29C911.21 342.29 910.92 342.15 910.73 341.91C910.72 341.91 910.71 341.88 910.7 341.87C910.7 341.87 910.68 341.84 910.67 341.83C910.5 341.62 910.43 341.36 910.46 341.09C910.49 340.83 910.63 340.59 910.84 340.43C911.26 340.1 911.91 340.17 912.24 340.59L912.27 340.63C912.27 340.63 912.29 340.66 912.3 340.67C912.44 340.85 912.52 341.08 912.52 341.31C912.51 341.61 912.37 341.89 912.14 342.08C911.96 342.22 911.74 342.29 911.52 342.29ZM1008.99 340.95C1008.78 340.95 1008.57 340.89 1008.4 340.75C1008.18 340.59 1008.04 340.36 1008.01 340.1C1007.97 339.83 1008.04 339.57 1008.2 339.35C1008.2 339.35 1008.24 339.3 1008.25 339.27C1008.58 338.84 1009.22 338.75 1009.66 339.07C1009.91 339.26 1010.06 339.55 1010.06 339.87C1010.06 340.09 1009.99 340.29 1009.86 340.47L1009.84 340.49C1009.84 340.49 1009.81 340.53 1009.8 340.55C1009.61 340.8 1009.31 340.95 1008.99 340.95ZM903.29 328.51C902.89 328.51 902.53 328.27 902.37 327.91V327.88C902.37 327.88 902.34 327.83 902.33 327.81C902.23 327.57 902.22 327.3 902.33 327.05C902.44 326.8 902.62 326.6 902.86 326.5C903.36 326.29 903.97 326.53 904.18 327.03C904.18 327.03 904.18 327.06 904.2 327.08C904.2 327.08 904.2 327.1 904.22 327.11V327.13C904.27 327.25 904.3 327.37 904.3 327.51C904.3 327.91 904.06 328.27 903.69 328.43C903.57 328.48 903.44 328.51 903.3 328.51H903.29ZM1016.85 326.95C1016.72 326.95 1016.6 326.93 1016.48 326.88C1015.97 326.67 1015.71 326.09 1015.92 325.58C1015.92 325.56 1015.92 325.54 1015.94 325.53L1015.96 325.49C1016.15 324.99 1016.75 324.73 1017.26 324.93C1017.63 325.08 1017.88 325.43 1017.89 325.84C1017.89 325.97 1017.86 326.1 1017.81 326.23V326.25C1017.81 326.25 1017.79 326.3 1017.78 326.32C1017.62 326.7 1017.26 326.95 1016.85 326.95ZM902.62 281.45C902.5 281.45 902.37 281.43 902.25 281.38C901.88 281.23 901.63 280.88 901.62 280.47C901.62 280.34 901.64 280.21 901.69 280.08C901.71 280.05 901.72 280.02 901.73 279.99C901.93 279.49 902.53 279.23 903.03 279.43C903.28 279.53 903.47 279.72 903.58 279.97C903.69 280.21 903.69 280.48 903.59 280.73C903.58 280.75 903.58 280.76 903.57 280.78C903.57 280.78 903.57 280.81 903.55 280.82C903.4 281.21 903.03 281.45 902.62 281.45ZM1016.26 279.96C1015.86 279.96 1015.5 279.72 1015.34 279.36C1015.34 279.34 1015.34 279.32 1015.32 279.3L1015.3 279.27V279.25C1015.25 279.13 1015.23 279.01 1015.22 278.88C1015.22 278.47 1015.46 278.11 1015.83 277.95C1016.33 277.74 1016.93 277.98 1017.14 278.48C1017.14 278.5 1017.16 278.52 1017.17 278.54V278.57C1017.4 279.08 1017.17 279.67 1016.65 279.88C1016.53 279.94 1016.4 279.96 1016.26 279.96ZM910.46 267.44C910.24 267.44 910.04 267.38 909.86 267.25C909.61 267.06 909.46 266.77 909.46 266.44C909.46 266.23 909.53 266.02 909.66 265.85L909.72 265.77C910.04 265.34 910.69 265.24 911.12 265.56C911.33 265.72 911.47 265.96 911.51 266.22C911.55 266.49 911.48 266.75 911.32 266.97C911.3 266.99 911.28 267.02 911.26 267.04C911.07 267.3 910.78 267.44 910.46 267.44ZM1008.07 266.16C1007.76 266.16 1007.47 266.02 1007.28 265.78C1007.27 265.78 1007.25 265.74 1007.23 265.72V265.7C1007.08 265.52 1007 265.3 1007 265.06C1007 264.77 1007.15 264.49 1007.38 264.3C1007.8 263.97 1008.46 264.04 1008.79 264.47C1008.79 264.47 1008.8 264.477 1008.81 264.49C1008.81 264.49 1008.83 264.53 1008.85 264.54C1009.02 264.75 1009.09 265.01 1009.06 265.28C1009.03 265.54 1008.89 265.78 1008.68 265.95C1008.51 266.09 1008.29 266.16 1008.07 266.16ZM921.64 255.93C921.34 255.93 921.05 255.79 920.86 255.55C920.71 255.36 920.64 255.14 920.64 254.91C920.65 254.61 920.79 254.33 921.02 254.15C921.05 254.12 921.08 254.1 921.1 254.08C921.52 253.75 922.18 253.83 922.51 254.25C922.67 254.46 922.75 254.72 922.71 254.98C922.68 255.25 922.55 255.49 922.34 255.65C922.33 255.65 922.32 255.67 922.3 255.68C922.3 255.69 922.28 255.7 922.26 255.71C922.09 255.85 921.87 255.93 921.64 255.93ZM996.57 254.96C996.35 254.96 996.15 254.89 995.97 254.76C995.94 254.74 995.92 254.72 995.89 254.7C995.65 254.51 995.5 254.22 995.5 253.91C995.5 253.69 995.57 253.49 995.7 253.31C996.02 252.89 996.66 252.79 997.09 253.1L997.13 253.13C997.13 253.15 997.16 253.16 997.17 253.17C997.61 253.5 997.7 254.13 997.37 254.57C997.18 254.82 996.88 254.97 996.57 254.97V254.96ZM935.43 247.71C935.03 247.71 934.67 247.47 934.51 247.1C934.45 246.98 934.43 246.85 934.43 246.71C934.43 246.31 934.66 245.95 935.03 245.79H935.06C935.06 245.79 935.1 245.76 935.12 245.75C935.64 245.53 936.23 245.78 936.44 246.27C936.66 246.78 936.42 247.37 935.91 247.59C935.89 247.6 935.87 247.61 935.85 247.61L935.82 247.63C935.7 247.68 935.56 247.71 935.43 247.71ZM982.58 247.09C982.45 247.09 982.32 247.07 982.21 247.02C982.19 247.02 982.18 247.01 982.16 247.01C982.15 247.01 982.13 246.99 982.12 246.99C981.74 246.84 981.49 246.48 981.48 246.08C981.48 245.94 981.51 245.81 981.56 245.68C981.76 245.18 982.35 244.93 982.85 245.13C982.87 245.13 982.89 245.13 982.91 245.15C982.91 245.15 982.94 245.15 982.95 245.15C983.2 245.25 983.39 245.44 983.49 245.69C983.6 245.94 983.6 246.21 983.49 246.46C983.34 246.84 982.98 247.08 982.57 247.08L982.58 247.09ZM950.87 243.35C950.38 243.35 949.96 242.98 949.88 242.5C949.88 242.44 949.87 242.39 949.87 242.34C949.88 241.86 950.25 241.43 950.73 241.36H950.77C950.77 241.36 950.81 241.36 950.83 241.36C951.39 241.27 951.89 241.67 951.96 242.2C952.04 242.75 951.66 243.26 951.12 243.34C951.08 243.34 951.05 243.34 951.02 243.34C950.97 243.35 950.92 243.35 950.87 243.35ZM967.03 243.12H966.91C966.91 243.12 966.85 243.12 966.82 243.12C966.31 243.06 965.93 242.62 965.93 242.11C965.93 242.08 965.93 242.04 965.93 242.01C965.99 241.47 966.48 241.08 967.04 241.13C967.06 241.13 967.08 241.13 967.1 241.13H967.14C967.69 241.2 968.08 241.69 968.02 242.24C967.96 242.74 967.53 243.12 967.03 243.12Z" fill="#0000FF"/>
<path d="M959.73 358.9C945.04 358.9 931.21 353.25 920.71 342.94C910.09 332.51 904.16 318.58 904.02 303.69C903.73 272.97 928.5 247.74 959.22 247.45C974.09 247.29 988.15 252.98 998.77 263.4C1009.39 273.83 1015.32 287.76 1015.46 302.65C1015.75 333.37 990.98 358.6 960.26 358.89C960.08 358.89 959.9 358.89 959.73 358.89V358.9ZM959.76 249.46C959.59 249.46 959.42 249.46 959.25 249.46C929.63 249.74 905.76 274.06 906.03 303.68C906.16 318.03 911.88 331.47 922.12 341.52C932.24 351.45 945.58 356.9 959.74 356.9C959.91 356.9 960.08 356.9 960.25 356.9C989.87 356.62 1013.75 332.3 1013.47 302.68C1013.34 288.33 1007.62 274.89 997.38 264.84C987.26 254.91 973.92 249.46 959.76 249.46Z" fill="#0000FF"/>
<path d="M959.75 347.51C984.238 347.51 1004.09 327.658 1004.09 303.17C1004.09 278.682 984.238 258.83 959.75 258.83C935.262 258.83 915.41 278.682 915.41 303.17C915.41 327.658 935.262 347.51 959.75 347.51Z" fill="#66B1FF"/>
<path d="M960 154.966V247.972C960 248.537 959.55 249 959 249C958.45 249 958 248.537 958 247.972V154.966H960Z" fill="#0000FF"/>
<path d="M966.98 243.19C966.43 243.19 965.98 242.74 965.98 242.19V242.09C965.98 241.54 966.43 241.09 966.98 241.09C967.53 241.09 967.98 241.54 967.98 242.09V242.19C967.98 242.74 967.53 243.19 966.98 243.19ZM966.98 227.09C966.43 227.09 965.98 226.64 965.98 226.09V225.99C965.98 225.44 966.43 224.99 966.98 224.99C967.53 224.99 967.98 225.44 967.98 225.99V226.09C967.98 226.64 967.53 227.09 966.98 227.09ZM966.98 210.99C966.43 210.99 965.98 210.54 965.98 209.99V209.89C965.98 209.34 966.43 208.89 966.98 208.89C967.53 208.89 967.98 209.34 967.98 209.89V209.99C967.98 210.54 967.53 210.99 966.98 210.99ZM966.98 194.89C966.43 194.89 965.98 194.44 965.98 193.89V193.79C965.98 193.24 966.43 192.79 966.98 192.79C967.53 192.79 967.98 193.24 967.98 193.79V193.89C967.98 194.44 967.53 194.89 966.98 194.89ZM966.98 178.79C966.43 178.79 965.98 178.34 965.98 177.79V177.69C965.98 177.14 966.43 176.69 966.98 176.69C967.53 176.69 967.98 177.14 967.98 177.69V177.79C967.98 178.34 967.53 178.79 966.98 178.79ZM966.98 162.69C966.43 162.69 965.98 162.24 965.98 161.69V161.59C965.98 161.04 966.43 160.59 966.98 160.59C967.53 160.59 967.98 161.04 967.98 161.59V161.69C967.98 162.24 967.53 162.69 966.98 162.69Z" fill="#0000FF"/>
<path d="M950.91 243.19C950.35 243.19 949.91 242.74 949.91 242.19V242.09C949.91 241.54 950.35 241.09 950.91 241.09C951.47 241.09 951.91 241.54 951.91 242.09V242.19C951.91 242.74 951.46 243.19 950.91 243.19ZM950.91 227.09C950.35 227.09 949.91 226.64 949.91 226.09V225.99C949.91 225.44 950.35 224.99 950.91 224.99C951.47 224.99 951.91 225.44 951.91 225.99V226.09C951.91 226.64 951.46 227.09 950.91 227.09ZM950.91 210.99C950.35 210.99 949.91 210.54 949.91 209.99V209.89C949.91 209.34 950.35 208.89 950.91 208.89C951.47 208.89 951.91 209.34 951.91 209.89V209.99C951.91 210.54 951.46 210.99 950.91 210.99ZM950.91 194.89C950.35 194.89 949.91 194.44 949.91 193.89V193.79C949.91 193.24 950.35 192.79 950.91 192.79C951.47 192.79 951.91 193.24 951.91 193.79V193.89C951.91 194.44 951.46 194.89 950.91 194.89ZM950.91 178.79C950.35 178.79 949.91 178.34 949.91 177.79V177.69C949.91 177.14 950.35 176.69 950.91 176.69C951.47 176.69 951.91 177.14 951.91 177.69V177.79C951.91 178.34 951.46 178.79 950.91 178.79ZM950.91 162.69C950.35 162.69 949.91 162.24 949.91 161.69V161.59C949.91 161.04 950.35 160.59 950.91 160.59C951.47 160.59 951.91 161.04 951.91 161.59V161.69C951.91 162.24 951.46 162.69 950.91 162.69Z" fill="#0000FF"/>
<path d="M950.9 445.83C950.35 445.83 949.91 445.38 949.91 444.83V444.73C949.91 444.18 950.35 443.73 950.9 443.73C951.45 443.73 951.91 444.18 951.91 444.73V444.83C951.91 445.38 951.46 445.83 950.9 445.83ZM950.9 429.73C950.35 429.73 949.91 429.28 949.91 428.73V428.63C949.91 428.08 950.35 427.63 950.9 427.63C951.45 427.63 951.91 428.08 951.91 428.63V428.73C951.91 429.28 951.46 429.73 950.9 429.73ZM950.9 413.63C950.35 413.63 949.91 413.18 949.91 412.63V412.53C949.91 411.98 950.35 411.53 950.9 411.53C951.45 411.53 951.91 411.98 951.91 412.53V412.63C951.91 413.18 951.46 413.63 950.9 413.63ZM950.9 397.53C950.35 397.53 949.91 397.08 949.91 396.53V396.43C949.91 395.88 950.35 395.43 950.9 395.43C951.45 395.43 951.91 395.88 951.91 396.43V396.53C951.91 397.08 951.46 397.53 950.9 397.53ZM950.9 381.43C950.35 381.43 949.91 380.98 949.91 380.43V380.33C949.91 379.78 950.35 379.33 950.9 379.33C951.45 379.33 951.91 379.78 951.91 380.33V380.43C951.91 380.98 951.46 381.43 950.9 381.43ZM950.9 365.33C950.35 365.33 949.91 364.88 949.91 364.33V364.23C949.91 363.68 950.35 363.23 950.9 363.23C951.45 363.23 951.91 363.68 951.91 364.23V364.33C951.91 364.88 951.46 365.33 950.9 365.33Z" fill="#0000FF"/>
<path d="M966.98 445.83C966.43 445.83 965.98 445.38 965.98 444.83V444.73C965.98 444.18 966.43 443.73 966.98 443.73C967.53 443.73 967.98 444.18 967.98 444.73V444.83C967.98 445.38 967.53 445.83 966.98 445.83ZM966.98 429.73C966.43 429.73 965.98 429.28 965.98 428.73V428.63C965.98 428.08 966.43 427.63 966.98 427.63C967.53 427.63 967.98 428.08 967.98 428.63V428.73C967.98 429.28 967.53 429.73 966.98 429.73ZM966.98 413.63C966.43 413.63 965.98 413.18 965.98 412.63V412.53C965.98 411.98 966.43 411.53 966.98 411.53C967.53 411.53 967.98 411.98 967.98 412.53V412.63C967.98 413.18 967.53 413.63 966.98 413.63ZM966.98 397.53C966.43 397.53 965.98 397.08 965.98 396.53V396.43C965.98 395.88 966.43 395.43 966.98 395.43C967.53 395.43 967.98 395.88 967.98 396.43V396.53C967.98 397.08 967.53 397.53 966.98 397.53ZM966.98 381.43C966.43 381.43 965.98 380.98 965.98 380.43V380.33C965.98 379.78 966.43 379.33 966.98 379.33C967.53 379.33 967.98 379.78 967.98 380.33V380.43C967.98 380.98 967.53 381.43 966.98 381.43ZM966.98 365.33C966.43 365.33 965.98 364.88 965.98 364.33V364.23C965.98 363.68 966.43 363.23 966.98 363.23C967.53 363.23 967.98 363.68 967.98 364.23V364.33C967.98 364.88 967.53 365.33 966.98 365.33Z" fill="#0000FF"/>
<path d="M959.24 462C958.69 462 958.24 461.55 958.24 461V359.03C958.24 358.48 958.69 358.03 959.24 358.03C959.79 358.03 960.24 358.48 960.24 359.03V461C960.24 461.55 959.79 462 959.24 462Z" fill="#0000FF"/>
<path d="M867.55 302.17H904.317C904.506 302.17 904.66 302.62 904.66 303.17C904.66 303.72 904.506 304.17 904.317 304.17H867.55V302.17Z" fill="#0000FF"/>
<path d="M867.55 302.17H840.968C840.832 302.17 840.72 302.62 840.72 303.17C840.72 303.72 840.832 304.17 840.968 304.17H867.55V302.17Z" fill="#00007F"/>
<path d="M796.5 302.17H840.311C840.536 302.17 840.72 302.62 840.72 303.17C840.72 303.72 840.536 304.17 840.311 304.17H796.5V302.17Z" fill="#000019"/>
<path d="M1123.52 304.17H1014.89C1014.34 304.17 1013.89 303.72 1013.89 303.17C1013.89 302.62 1014.34 302.17 1014.89 302.17H1123.52C1124.07 302.17 1124.52 302.62 1124.52 303.17C1124.52 303.72 1124.07 304.17 1123.52 304.17Z" fill="#0000FF"/>
<path d="M1123.52 100.231H1014.89C1014.34 100.231 1013.89 99.781 1013.89 99.231C1013.89 98.681 1014.34 98.231 1014.89 98.231H1123.52C1124.07 98.231 1124.52 98.681 1124.52 99.231C1124.52 99.781 1124.07 100.231 1123.52 100.231Z" fill="#0000FF"/>
<path d="M1117.19 311.38H1117.09C1116.54 311.38 1116.1 310.93 1116.1 310.38C1116.1 309.83 1116.54 309.38 1117.09 309.38H1117.19C1117.75 309.38 1118.19 309.83 1118.19 310.38C1118.19 310.93 1117.75 311.38 1117.19 311.38ZM1101.1 311.38H1101C1100.44 311.38 1100 310.93 1100 310.38C1100 309.83 1100.44 309.38 1101 309.38H1101.1C1101.65 309.38 1102.1 309.83 1102.1 310.38C1102.1 310.93 1101.65 311.38 1101.1 311.38ZM1084.99 311.38H1084.9C1084.34 311.38 1083.9 310.93 1083.9 310.38C1083.9 309.83 1084.34 309.38 1084.9 309.38H1084.99C1085.55 309.38 1085.99 309.83 1085.99 310.38C1085.99 310.93 1085.55 311.38 1084.99 311.38ZM1068.9 311.38H1068.8C1068.24 311.38 1067.8 310.93 1067.8 310.38C1067.8 309.83 1068.24 309.38 1068.8 309.38H1068.9C1069.45 309.38 1069.89 309.83 1069.89 310.38C1069.89 310.93 1069.45 311.38 1068.9 311.38ZM1052.8 311.38H1052.69C1052.14 311.38 1051.69 310.93 1051.69 310.38C1051.69 309.83 1052.14 309.38 1052.69 309.38H1052.8C1053.35 309.38 1053.79 309.83 1053.79 310.38C1053.79 310.93 1053.35 311.38 1052.8 311.38ZM1036.7 311.38H1036.6C1036.04 311.38 1035.6 310.93 1035.6 310.38C1035.6 309.83 1036.04 309.38 1036.6 309.38H1036.7C1037.25 309.38 1037.69 309.83 1037.69 310.38C1037.69 310.93 1037.25 311.38 1036.7 311.38ZM1020.6 311.38H1020.49C1019.94 311.38 1019.5 310.93 1019.5 310.38C1019.5 309.83 1019.94 309.38 1020.49 309.38H1020.6C1021.15 309.38 1021.6 309.83 1021.6 310.38C1021.6 310.93 1021.15 311.38 1020.6 311.38Z" fill="#0000FF"/>
<path d="M1117.2 295.44H1117.1C1116.54 295.44 1116.1 294.99 1116.1 294.44C1116.1 293.89 1116.54 293.44 1117.1 293.44H1117.2C1117.75 293.44 1118.19 293.89 1118.19 294.44C1118.19 294.99 1117.75 295.44 1117.2 295.44ZM1101.1 295.44H1100.99C1100.44 295.44 1099.99 294.99 1099.99 294.44C1099.99 293.89 1100.44 293.44 1100.99 293.44H1101.1C1101.65 293.44 1102.1 293.89 1102.1 294.44C1102.1 294.99 1101.65 295.44 1101.1 295.44ZM1085 295.44H1084.9C1084.34 295.44 1083.9 294.99 1083.9 294.44C1083.9 293.89 1084.34 293.44 1084.9 293.44H1085C1085.55 293.44 1085.99 293.89 1085.99 294.44C1085.99 294.99 1085.55 295.44 1085 295.44ZM1068.9 295.44H1068.8C1068.24 295.44 1067.79 294.99 1067.79 294.44C1067.79 293.89 1068.24 293.44 1068.8 293.44H1068.9C1069.45 293.44 1069.9 293.89 1069.9 294.44C1069.9 294.99 1069.45 295.44 1068.9 295.44ZM1052.8 295.44H1052.7C1052.14 295.44 1051.69 294.99 1051.69 294.44C1051.69 293.89 1052.14 293.44 1052.7 293.44H1052.8C1053.35 293.44 1053.79 293.89 1053.79 294.44C1053.79 294.99 1053.35 295.44 1052.8 295.44ZM1036.7 295.44H1036.6C1036.04 295.44 1035.59 294.99 1035.59 294.44C1035.59 293.89 1036.04 293.44 1036.6 293.44H1036.7C1037.25 293.44 1037.69 293.89 1037.69 294.44C1037.69 294.99 1037.25 295.44 1036.7 295.44ZM1020.6 295.44H1020.5C1019.94 295.44 1019.5 294.99 1019.5 294.44C1019.5 293.89 1019.94 293.44 1020.5 293.44H1020.6C1021.15 293.44 1021.59 293.89 1021.59 294.44C1021.59 294.99 1021.15 295.44 1020.6 295.44Z" fill="#0000FF"/>
<path d="M898.75 311.38H898.65C898.1 311.38 897.65 310.93 897.65 310.38C897.65 309.83 898.1 309.38 898.65 309.38H898.75C899.3 309.38 899.75 309.83 899.75 310.38C899.75 310.93 899.3 311.38 898.75 311.38Z" fill="#0000FF"/>
<path d="M882.65 311.38H882.55C882 311.38 881.55 310.93 881.55 310.38C881.55 309.83 882 309.38 882.55 309.38H882.65C883.2 309.38 883.65 309.83 883.65 310.38C883.65 310.93 883.2 311.38 882.65 311.38Z" fill="#0000FF"/>
<path d="M866.55 311.38H866.45C865.9 311.38 865.45 310.93 865.45 310.38C865.45 309.83 865.9 309.38 866.45 309.38H866.55C867.1 309.38 867.55 309.83 867.55 310.38C867.55 310.93 867.1 311.38 866.55 311.38Z" fill="#00007F"/>
<path d="M850.45 311.38H850.35C849.8 311.38 849.35 310.93 849.35 310.38C849.35 309.83 849.8 309.38 850.35 309.38H850.45C851 309.38 851.45 309.83 851.45 310.38C851.45 310.93 851 311.38 850.45 311.38Z" fill="#00007F"/>
<path d="M834.35 311.38H834.25C833.7 311.38 833.25 310.93 833.25 310.38C833.25 309.83 833.7 309.38 834.25 309.38H834.35C834.9 309.38 835.35 309.83 835.35 310.38C835.35 310.93 834.9 311.38 834.35 311.38Z" fill="#000019"/>
<path d="M818.25 311.38H818.15C817.6 311.38 817.15 310.93 817.15 310.38C817.15 309.83 817.6 309.38 818.15 309.38H818.25C818.8 309.38 819.25 309.83 819.25 310.38C819.25 310.93 818.8 311.38 818.25 311.38Z" fill="#000019"/>
<path d="M802.15 311.38H802.05C801.5 311.38 801.05 310.93 801.05 310.38C801.05 309.83 801.5 309.38 802.05 309.38H802.15C802.7 309.38 803.15 309.83 803.15 310.38C803.15 310.93 802.7 311.38 802.15 311.38Z" fill="#000019"/>
<path d="M898.75 295.44H898.65C898.1 295.44 897.65 294.99 897.65 294.44C897.65 293.89 898.1 293.44 898.65 293.44H898.75C899.3 293.44 899.75 293.89 899.75 294.44C899.75 294.99 899.3 295.44 898.75 295.44Z" fill="#0000FF"/>
<path d="M882.65 295.44H882.55C882 295.44 881.55 294.99 881.55 294.44C881.55 293.89 882 293.44 882.55 293.44H882.65C883.2 293.44 883.65 293.89 883.65 294.44C883.65 294.99 883.2 295.44 882.65 295.44Z" fill="#0000FF"/>
<path d="M866.55 295.44H866.45C865.9 295.44 865.45 294.99 865.45 294.44C865.45 293.89 865.9 293.44 866.45 293.44H866.55C867.1 293.44 867.55 293.89 867.55 294.44C867.55 294.99 867.1 295.44 866.55 295.44Z" fill="#00007F"/>
<path d="M850.45 295.44H850.35C849.8 295.44 849.35 294.99 849.35 294.44C849.35 293.89 849.8 293.44 850.35 293.44H850.45C851 293.44 851.45 293.89 851.45 294.44C851.45 294.99 851 295.44 850.45 295.44Z" fill="#00007F"/>
<path d="M834.35 295.44H834.25C833.7 295.44 833.25 294.99 833.25 294.44C833.25 293.89 833.7 293.44 834.25 293.44H834.35C834.9 293.44 835.35 293.89 835.35 294.44C835.35 294.99 834.9 295.44 834.35 295.44Z" fill="#000019"/>
<path d="M818.25 295.44H818.15C817.6 295.44 817.15 294.99 817.15 294.44C817.15 293.89 817.6 293.44 818.15 293.44H818.25C818.8 293.44 819.25 293.89 819.25 294.44C819.25 294.99 818.8 295.44 818.25 295.44Z" fill="#000019"/>
<path d="M802.15 295.44H802.05C801.5 295.44 801.05 294.99 801.05 294.44C801.05 293.89 801.5 293.44 802.05 293.44H802.15C802.7 293.44 803.15 293.89 803.15 294.44C803.15 294.99 802.7 295.44 802.15 295.44Z" fill="#000019"/>
<path d="M927.52 303.17C927.52 283.29 942.93 267.02 962.46 265.62C961.56 265.56 960.66 265.51 959.74 265.51C938.94 265.51 922.09 282.37 922.09 303.17C922.09 323.97 938.95 340.82 959.74 340.82C960.65 340.82 961.56 340.78 962.46 340.71C942.93 339.32 927.52 323.05 927.52 303.16V303.17Z" fill="#00007F"/>
<path d="M946.5 466H944.5C943.98 466 943.47 466.22 943.12 466.61L916.89 495.65C916.58 495.99 916.41 496.43 916.41 496.9V576.5H957.19V521.94L946.49 511.24V466H946.5Z" fill="#0000FF"/>
<path d="M941.89 569H926.72C925.18 569 923.92 567.74 923.92 566.2V518.93C923.92 517.39 925.18 516.13 926.72 516.13H932.48C933.27 516.13 934.03 516.47 934.56 517.05L943.98 527.47C944.45 527.99 944.7 528.65 944.7 529.35V566.2C944.7 567.74 943.44 569 941.9 569H941.89ZM926.72 517.13C925.73 517.13 924.92 517.94 924.92 518.93V566.2C924.92 567.19 925.73 568 926.72 568H941.89C942.88 568 943.69 567.19 943.69 566.2V529.35C943.69 528.9 943.52 528.47 943.23 528.14L933.81 517.72C933.47 517.34 932.98 517.13 932.47 517.13H926.71H926.72Z" fill="#0064FF"/>
<path d="M952.7 576.5H951.7V525.52C951.7 524.68 951.37 523.88 950.77 523.29L942.22 514.74C941.43 513.96 941 512.91 941 511.8V467.16H942V511.8C942 512.64 942.33 513.44 942.93 514.03L951.48 522.58C952.27 523.37 952.7 524.41 952.7 525.52V576.5Z" fill="#0064FF"/>
<path d="M971.98 508.06V466H946.5V511.25L957.2 521.94V576.5H982.67V518.75L971.98 508.06Z" fill="#C2E0FF"/>
<path d="M1006.81 492.31L980.58 463.27C979.28 461.83 977.43 461.01 975.49 461.01H944.5C942.56 461.01 940.71 461.83 939.41 463.27L913.18 492.31C912.04 493.57 911.41 495.21 911.41 496.91V576.51H916.41V496.91C916.41 496.45 916.58 496.01 916.89 495.66L943.12 466.62C943.47 466.23 943.97 466.01 944.5 466.01H975.49C976.01 466.01 976.52 466.23 976.87 466.62L1003.1 495.66C1003.41 496 1003.58 496.44 1003.58 496.9V576.5H1008.58V496.9C1008.58 495.2 1007.95 493.56 1006.81 492.3V492.31Z" fill="#66B1FF"/>
<path d="M1118.9 582.2H801.74V584.92H1118.9V582.2Z" fill="#000019"/>
<path d="M1118.9 584.92H801.74V587.64H1118.9V584.92Z" fill="#00007F"/>
<path d="M1054.51 608.99H1017.34V607.49H1053.43L1057.96 593.85L1059.38 594.32L1054.51 608.99Z" fill="#00007F"/>
<path d="M1058.67 631.15L1081.38 630.95L1084.16 623.68H1061.48L1058.67 631.15Z" fill="#0064FF"/>
<path d="M1096 592.72L1094.96 595.44H1110.83C1117.8 595.44 1117.18 608.24 1117.18 608.24L1122.82 595.44L1124.02 592.72H1096.01H1096Z" fill="#00007F"/>
<path d="M796.48 592.72L797.68 595.44L803.32 608.24C803.32 608.24 802.69 595.44 809.66 595.44H1072.08L1073.1 592.72H796.48Z" fill="#00007F"/>
<path d="M1062.04 622.18H1084.73L1094.96 595.44H1072.08L1062.04 622.18Z" fill="#0064FF"/>
<path d="M1073.1 592.72L1072.08 595.44H1094.96L1096 592.72H1073.1Z" fill="#00007F"/>
<path d="M1053.81 622.18L1044.84 631.15H1046.96L1054.43 623.68H1061.48L1062.04 622.18H1053.81Z" fill="#00007F"/>
<path d="M1111.03 622.18H1084.73L1084.16 623.68H1110.34L1111.03 622.18Z" fill="#00007F"/>
<path d="M1062.04 622.18L1061.48 623.68H1084.16L1084.73 622.18H1062.04Z" fill="#66B1FF"/>
<path d="M987.17 576.5V516.89L976.48 506.19V466.29C976.62 466.38 976.76 466.48 976.87 466.61C976.52 466.22 976.02 466 975.49 466H971.97V508.05L982.67 518.75V576.5H987.17Z" fill="#0000FF"/>
<path d="M1003.1 495.66L977.48 467.29V505.78L988.17 516.48V576.51H1003.58V496.91C1003.58 496.45 1003.41 496.01 1003.1 495.67V495.66Z" fill="#0000FF"/>
<path d="M961.14 340.59C961.58 340.64 962.02 340.68 962.46 340.72C981.6 339.35 996.77 323.7 997.37 304.36L961.14 340.59Z" fill="#0000FF"/>
<path d="M992.07 283.86L942.62 333.31C944.98 335.08 947.55 336.58 950.3 337.76L995.8 292.26C994.9 289.29 993.64 286.47 992.07 283.86Z" fill="#0000FF"/>
<path d="M962.46 265.63C942.93 267.02 927.52 283.29 927.52 303.18C927.52 306.78 928.03 310.27 928.98 313.57L974.15 268.4C970.51 266.89 966.58 265.93 962.46 265.64V265.63Z" fill="#0000FF"/>
<path d="M974.15 268.39L928.98 313.56C931.27 321.55 936.13 328.45 942.62 333.31L992.07 283.86C987.94 276.96 981.66 271.5 974.15 268.39Z" fill="#0064FF"/>
<path d="M997.4 303.17C997.4 299.38 996.84 295.72 995.79 292.26L950.29 337.76C953.68 339.22 957.32 340.19 961.13 340.59L997.36 304.36C997.37 303.96 997.39 303.57 997.39 303.17H997.4Z" fill="#0064FF"/>
<path d="M911.42 576.5L866.03 691.84H881.01L911.42 592.72V576.5Z" fill="#000019"/>
<path d="M1008.58 576.5L1053.97 691.84H1038.99L1008.58 592.72V576.5Z" fill="#000019"/>
<path d="M1052.88 723.57L1048.67 718.23C1048.47 717.98 1048.4 717.66 1048.45 717.35L1049.42 712.11L1036.32 668.62L1032.61 663.91C1032.43 663.68 1032.36 663.39 1032.41 663.11L1033.27 658.49L1020.3 615.44L1016.52 610.64C1016.34 610.41 1016.27 610.12 1016.32 609.84L1017.19 605.13L1008.57 576.51H911.41L902.9 605.11L903.78 609.84C903.83 610.12 903.76 610.41 903.58 610.64L899.84 615.39L887.04 658.41L887.91 663.12C887.96 663.4 887.89 663.69 887.71 663.92L883.99 668.64L871.05 712.13L872.02 717.36C872.08 717.67 872 717.99 871.8 718.24L867.67 723.49L858.44 754.49H1062.18L1052.87 723.58L1052.88 723.57Z" fill="#0064FF"/>
<path d="M1004.04 591.86H977.45C976.78 591.87 976.14 592.14 975.67 592.61L974.7 593.58C974.23 594.05 973.58 594.32 972.91 594.32H944.99C944.32 594.32 943.68 594.05 943.2 593.58L942.25 592.63C941.78 592.16 941.13 591.89 940.46 591.89H915.98C914.86 591.89 913.88 592.63 913.56 593.7L912.16 598.41C911.68 600.03 912.89 601.66 914.58 601.66H940.44C941.11 601.66 941.75 601.93 942.23 602.4L943.21 603.38C943.68 603.85 944.33 604.12 945 604.12H972.92C973.59 604.12 974.23 603.85 974.71 603.38L975.69 602.4C976.16 601.93 976.81 601.66 977.48 601.66H1005.48C1007.17 601.66 1008.38 600.03 1007.9 598.41L1006.48 593.67C1006.16 592.6 1005.18 591.87 1004.06 591.87L1004.04 591.86Z" fill="#C2E0FF"/>
<path d="M972.92 631.53H945C944.23 631.53 943.5 631.23 942.95 630.68L941.97 629.7C941.56 629.29 941.02 629.07 940.45 629.07H906.53C905.61 629.07 904.76 628.65 904.21 627.9C903.66 627.16 903.49 626.22 903.75 625.34L905.15 620.63C905.51 619.41 906.65 618.56 907.93 618.56H940.47C941.24 618.56 941.97 618.85 942.52 619.4L943.47 620.35C943.88 620.76 944.42 620.98 944.99 620.98H972.91C973.48 620.98 974.03 620.75 974.43 620.35L975.39 619.39C975.94 618.84 976.67 618.54 977.44 618.54H1012C1013.29 618.53 1014.41 619.36 1014.78 620.6L1016.2 625.34C1016.47 626.23 1016.3 627.16 1015.75 627.9C1015.2 628.64 1014.35 629.07 1013.42 629.07H977.45C976.87 629.07 976.33 629.29 975.93 629.7L974.95 630.68C974.41 631.22 973.66 631.53 972.9 631.53H972.92ZM940.48 619.31H907.94C907 619.31 906.15 619.95 905.88 620.85L904.48 625.56C904.28 626.22 904.41 626.91 904.82 627.46C905.23 628.01 905.86 628.33 906.54 628.33H940.46C941.23 628.33 941.96 628.63 942.51 629.18L943.49 630.16C943.9 630.57 944.44 630.79 945.01 630.79H972.93C973.5 630.79 974.05 630.56 974.45 630.16L975.43 629.18C975.98 628.63 976.71 628.33 977.48 628.33H1013.45C1014.14 628.33 1014.76 628.01 1015.17 627.46C1015.58 626.91 1015.7 626.22 1015.5 625.56L1014.08 620.82C1013.81 619.9 1012.98 619.29 1012.02 619.29H977.46C976.89 619.3 976.35 619.52 975.94 619.93L974.98 620.89C974.44 621.43 973.69 621.74 972.93 621.74H945.01C944.24 621.74 943.51 621.44 942.96 620.89L942.01 619.94C941.6 619.53 941.06 619.31 940.49 619.31H940.48Z" fill="#0000FF"/>
<path d="M1020.32 645.95H977.46C976.79 645.96 976.15 646.23 975.68 646.7L974.71 647.67C974.24 648.14 973.59 648.41 972.92 648.41H945C944.33 648.41 943.69 648.14 943.21 647.67L942.26 646.72C941.79 646.25 941.14 645.98 940.47 645.98H899.96C898.84 645.98 897.86 646.72 897.54 647.79L896.14 652.5C895.66 654.12 896.87 655.75 898.56 655.75H940.45C941.12 655.75 941.76 656.02 942.24 656.49L943.22 657.47C943.69 657.94 944.34 658.21 945.01 658.21H972.93C973.6 658.21 974.24 657.94 974.72 657.47L975.7 656.49C976.17 656.02 976.82 655.75 977.49 655.75H1021.77C1023.46 655.75 1024.67 654.12 1024.19 652.5L1022.77 647.76C1022.45 646.69 1021.47 645.96 1020.35 645.96L1020.32 645.95Z" fill="#C2E0FF"/>
<path d="M972.92 685.62H945C944.23 685.62 943.5 685.32 942.95 684.77L941.97 683.79C941.56 683.38 941.02 683.16 940.45 683.16H890.68C889.76 683.16 888.91 682.74 888.36 681.99C887.81 681.25 887.64 680.31 887.9 679.43L889.3 674.72C889.66 673.5 890.8 672.65 892.08 672.65H940.47C941.24 672.65 941.97 672.94 942.52 673.49L943.47 674.44C943.88 674.85 944.42 675.07 944.99 675.07H972.91C973.48 675.07 974.03 674.84 974.43 674.44L975.39 673.48C975.94 672.93 976.67 672.63 977.44 672.63H1027.92C1029.21 672.63 1030.33 673.46 1030.7 674.7L1032.12 679.44C1032.39 680.33 1032.22 681.26 1031.67 682C1031.12 682.74 1030.27 683.17 1029.34 683.17H977.45C976.87 683.17 976.33 683.39 975.93 683.8L974.95 684.78C974.41 685.32 973.66 685.63 972.9 685.63L972.92 685.62ZM940.48 673.4H892.09C891.15 673.4 890.3 674.04 890.03 674.94L888.63 679.65C888.43 680.31 888.56 681 888.97 681.55C889.38 682.1 890.01 682.41 890.69 682.41H940.46C941.23 682.41 941.96 682.71 942.51 683.26L943.49 684.24C943.9 684.65 944.44 684.87 945.01 684.87H972.93C973.5 684.87 974.05 684.64 974.45 684.24L975.43 683.26C975.98 682.71 976.71 682.41 977.48 682.41H1029.37C1030.06 682.41 1030.69 682.09 1031.1 681.54C1031.51 680.99 1031.63 680.3 1031.43 679.64L1030.01 674.9C1029.73 673.98 1028.91 673.37 1027.95 673.37H977.47C976.9 673.37 976.36 673.6 975.95 674.01L974.99 674.97C974.45 675.51 973.7 675.82 972.94 675.82H945.02C944.25 675.82 943.52 675.52 942.97 674.97L942.02 674.02C941.61 673.61 941.07 673.39 940.5 673.39L940.48 673.4Z" fill="#0000FF"/>
<path d="M1036.53 700.05H977.45C976.78 700.06 976.14 700.33 975.67 700.8L974.7 701.77C974.23 702.24 973.58 702.51 972.91 702.51H944.99C944.32 702.51 943.68 702.24 943.2 701.77L942.25 700.82C941.78 700.35 941.13 700.08 940.46 700.08H883.55C882.43 700.08 881.45 700.82 881.13 701.89L879.73 706.6C879.25 708.22 880.46 709.85 882.15 709.85H940.44C941.11 709.85 941.75 710.12 942.23 710.59L943.21 711.57C943.68 712.04 944.33 712.31 945 712.31H972.92C973.59 712.31 974.23 712.04 974.71 711.57L975.69 710.59C976.16 710.12 976.81 709.85 977.48 709.85H1037.97C1039.66 709.85 1040.87 708.22 1040.39 706.6L1038.97 701.86C1038.65 700.79 1037.67 700.06 1036.55 700.06L1036.53 700.05Z" fill="#C2E0FF"/>
<path d="M972.92 739.71H945C944.23 739.71 943.5 739.41 942.95 738.86L941.97 737.88C941.56 737.47 941.02 737.25 940.45 737.25H874.39C873.47 737.25 872.62 736.83 872.07 736.08C871.52 735.34 871.35 734.41 871.62 733.52L873.02 728.81C873.38 727.59 874.53 726.74 875.8 726.74H940.49C941.27 726.74 941.99 727.03 942.54 727.58L943.49 728.53C943.9 728.94 944.44 729.16 945.01 729.16H972.93C973.5 729.16 974.05 728.93 974.45 728.53L975.41 727.57C975.96 727.02 976.69 726.72 977.46 726.72H1044.79C1046.08 726.72 1047.2 727.55 1047.57 728.79L1048.99 733.53C1049.26 734.42 1049.09 735.35 1048.54 736.09C1047.99 736.83 1047.14 737.26 1046.21 737.26H977.47C976.89 737.26 976.35 737.48 975.95 737.89L974.97 738.87C974.43 739.41 973.68 739.72 972.92 739.72V739.71ZM940.48 727.49H875.79C874.85 727.49 874 728.13 873.73 729.04L872.33 733.75C872.13 734.41 872.26 735.1 872.67 735.65C873.08 736.2 873.71 736.52 874.39 736.52H940.45C941.22 736.52 941.95 736.82 942.5 737.37L943.48 738.35C943.89 738.76 944.43 738.98 945 738.98H972.92C973.49 738.98 974.04 738.75 974.44 738.35L975.42 737.37C975.97 736.82 976.7 736.52 977.47 736.52H1046.21C1046.9 736.52 1047.53 736.2 1047.94 735.65C1048.35 735.1 1048.47 734.41 1048.27 733.75L1046.85 729.01C1046.57 728.09 1045.75 727.48 1044.79 727.48H977.46C976.89 727.48 976.35 727.71 975.94 728.12L974.98 729.08C974.44 729.62 973.69 729.93 972.93 729.93H945.01C944.24 729.93 943.51 729.63 942.96 729.08L942.01 728.13C941.6 727.72 941.06 727.5 940.49 727.5L940.48 727.49Z" fill="#0000FF"/>
<path d="M1286.64 719.88C1286.1 718.7 1280.39 707.02 1264.09 708.05C1264.09 708.05 1259.93 687.44 1239.69 687.44C1219.45 687.44 1215.1 707.69 1215.1 707.69C1215.1 707.69 1198.29 707.51 1192.5 720.89C1192.5 720.89 1189.79 714.92 1181.47 714.92C1173.15 714.92 1169.72 720.16 1166.28 723.06C1163.57 725.34 1157.02 729.64 1148.96 731.36C1193.12 725.62 1214.07 719.53 1255.79 719.53C1267.24 719.53 1277.47 719.66 1286.63 719.89L1286.64 719.88Z" fill="#E3F2FF"/>
<path d="M1142.25 732.09C1142.65 732.09 1143.05 732.07 1143.44 732.05C1143.93 731.99 1144.43 731.93 1144.91 731.87L1142.24 732.09H1142.25Z" fill="#E3F2FF"/>
<path d="M1381.2 714C1386.88 708.32 1392.23 703.32 1397.35 698.9C1392.74 692.76 1384.55 686.85 1369.9 686.45C1342.45 685.69 1336.91 708.11 1336.91 708.11C1321.8 707.35 1314.05 720.97 1314.05 720.97C1377.35 724.56 1362.88 732.33 1381.19 714.01L1381.2 714Z" fill="#E3F2FF"/>
<path d="M1148.97 731.35C1147.64 731.52 1146.29 731.7 1144.91 731.87L1147.21 731.68C1147.8 731.59 1148.39 731.48 1148.97 731.36V731.35Z" fill="#210E66"/>
<path d="M1144.92 731.87C1144.43 731.93 1143.94 731.99 1143.45 732.05C1144.73 732 1145.99 731.87 1147.22 731.67L1144.92 731.86V731.87Z" fill="#210E66"/>
<path d="M1523.29 664.93L1521.83 667.91C1526.26 668.05 1530.88 668.18 1535.71 668.28C1539.99 668.37 1544.04 668.45 1547.88 668.52L1531.94 652.58C1527.67 648.31 1521.94 645.95 1515.88 645.95H1510.15L1522.17 657.97C1523.97 659.77 1524.42 662.57 1523.29 664.93Z" fill="#7154C3"/>
<path d="M1550.75 607.81L1547.52 607.88C1546.09 607.91 1544.84 608.48 1543.97 609.4L1541.96 611.51C1540.03 613.53 1540.11 616.75 1542.12 618.68C1544.14 620.61 1547.36 620.53 1549.29 618.52L1559.8 607.52L1555.22 603.14L1550.75 607.82V607.81Z" fill="#0064FF"/>
<path d="M1561.5 649.01V660.22L1555.73 662.36C1554.74 662.85 1554.08 663.84 1554.08 665V666.48C1554.08 667.8 1555.23 668.95 1556.55 668.95H1568.92C1570.24 668.95 1571.39 667.8 1571.39 666.48V649H1561.5V649.01Z" fill="#0000FF"/>
<path d="M1583.43 649.01L1585.41 660.22L1579.97 662.36C1579.15 662.85 1578.65 663.84 1578.82 665L1579.15 666.98C1579.31 668.13 1580.3 668.96 1581.62 668.96H1593.99C1595.47 668.96 1596.63 667.64 1596.46 665.99L1593.49 649.17H1583.43V649.01Z" fill="#0000FF"/>
<path d="M1586.4 612.73C1582.77 612.73 1579.8 609.76 1579.8 606.13V589.64C1579.8 584.2 1575.35 579.75 1569.91 579.75C1569.85 579.75 1569.8 579.75 1569.75 579.75C1564.38 579.84 1560.02 584.25 1560.02 589.64V649C1560.02 651.8 1562.16 653.95 1564.97 653.95H1568.27C1571.07 653.95 1573.22 651.81 1573.22 649V626.24C1573.22 624.59 1574.37 623.11 1575.86 622.61C1578 622.12 1579.82 623.6 1579.98 625.58L1582.45 650.97C1582.78 653.44 1584.76 655.42 1587.4 655.42H1590.7C1593.67 655.42 1595.98 652.95 1595.65 649.98L1592.85 622.44C1596.48 622.44 1599.45 619.47 1599.45 615.84V612.71H1586.42L1586.4 612.73Z" fill="#00007F"/>
<path d="M1565.4 583.79C1562.71 583.5 1560.43 585.65 1560.14 588.34L1559.04 596.41L1550.16 605.71C1549.48 606.43 1549.5 607.36 1550.21 608.04L1554.98 612.6C1555.7 613.28 1556.63 613.26 1557.31 612.55L1566.19 603.25C1567.67 601.7 1568.56 599.81 1568.86 597.82L1569.95 589.51C1570.23 586.59 1568.19 583.95 1565.39 583.78L1565.4 583.79Z" fill="#0000FF"/>
<path d="M804.45 741.03C793.42 741.03 783.84 734.88 780.41 731.99C776.98 729.1 773.54 723.85 765.22 723.85C756.9 723.85 754.19 729.82 754.19 729.82C748.41 716.44 731.59 716.62 731.59 716.62C731.59 716.62 727.25 696.37 707 696.37C686.75 696.37 682.6 716.98 682.6 716.98C665.43 715.9 660 728.91 660 728.91C651.5 720.59 640.66 725.11 637.4 728.19C635.25 730.22 634.03 731.94 630.74 734.28C663.41 735.36 694.32 738.27 726.77 739.93L804.43 741.02L804.45 741.03Z" fill="#E3F2FF"/>
<path d="M555.04 736.07C572.79 734.5 589.58 733.88 605.78 733.87C605.7 733.8 605.61 733.73 605.53 733.66C591.18 721.32 586.64 717.04 572.8 725.85C572.8 725.85 564.74 712.76 549.63 713.51C549.63 713.51 544.09 691.1 516.64 691.85C489.19 692.61 484.41 712.69 483.4 717.38C483.4 717.38 478.36 704.31 457.97 704.31C452.75 704.31 448.49 705.78 445.13 707.73C467.92 725.48 497.98 741.09 555.05 736.06L555.04 736.07Z" fill="#E3F2FF"/>
<path d="M308.51 645.99C299.99 650.17 308.31 655.29 318.04 658.97C327.64 659.66 338.01 660.52 348.5 661.87C348.5 661.87 340.23 639.99 330.8 633.7C328.63 632.25 324.38 630.42 319.12 628.45C320.3 626.61 321.86 624.54 323.8 622.84C328.52 618.7 327.52 617.41 327.52 617.41C318.9 618.4 314.56 622.89 312.54 626.09C312.17 625.96 311.81 625.84 311.44 625.71C311.57 624.71 311.74 623.46 311.95 621.84C312.95 614.27 308.95 612.55 308.81 617.55C308.72 620.76 307.4 622.9 306.46 624.03C290.39 618.74 272.8 613.82 272.8 613.82C283.68 617.05 297.18 625.44 305.95 629.41C317.95 634.84 323.67 638.56 308.52 645.99H308.51Z" fill="#7154C3"/>
<path d="M1563.31 558.32C1563.31 555.88 1564.33 553.73 1565.96 552.23H1562.96C1559.58 552.23 1556.99 554.98 1556.99 558.57V571.26C1556.99 574.86 1559.58 577.6 1562.96 577.6H1565.05C1563.97 576.43 1563.31 574.87 1563.31 573.16V558.32Z" fill="#66B1FF"/>
<path d="M1573.04 550.07H1571.56C1569.38 550.07 1567.43 550.88 1565.97 552.22C1564.33 553.72 1563.32 555.87 1563.32 558.31V573.15C1563.32 574.86 1563.99 576.42 1565.06 577.59C1566.25 578.89 1567.95 579.71 1569.83 579.74C1575.23 579.7 1579.64 575.26 1579.64 569.85V556.66C1579.64 553.03 1576.67 550.06 1573.04 550.06V550.07Z" fill="#0000FF"/>
<path d="M1589.64 585.38C1589.64 583.97 1590.79 582.82 1592.2 582.82H1598.64C1597.78 580.67 1596.27 578.86 1594.31 577.77C1591.18 575.96 1589.53 572.66 1589.53 569.2V559.97C1589.53 554.53 1585.08 550.08 1579.64 550.08H1573.04C1576.67 550.08 1579.64 553.05 1579.64 556.68V569.87C1579.64 575.28 1575.23 579.72 1569.83 579.76C1569.86 579.76 1569.88 579.76 1569.91 579.76C1575.35 579.76 1579.8 584.21 1579.8 589.65V606.14C1579.8 609.77 1582.77 612.74 1586.4 612.74H1599.43V587.95H1592.21C1590.8 587.95 1589.65 586.8 1589.65 585.39L1589.64 585.38Z" fill="#0064FF"/>
<path d="M1589.64 585.38C1589.64 586.79 1590.79 587.94 1592.2 587.94H1599.42V586.34C1599.36 585.11 1599.08 583.92 1598.64 582.81H1592.2C1590.79 582.81 1589.64 583.96 1589.64 585.37V585.38Z" fill="#74FFE6"/>
<path d="M1599.42 590.97H1592.2C1590.79 590.97 1589.64 592.12 1589.64 593.53C1589.64 594.94 1590.79 596.09 1592.2 596.09H1599.42V590.97Z" fill="#74FFE6"/>
<path d="M1599.42 599.11H1592.2C1590.79 599.11 1589.64 600.26 1589.64 601.67C1589.64 603.08 1590.79 604.23 1592.2 604.23H1599.42V599.11Z" fill="#C2E0FF"/>
<path d="M1585.18 587.94C1586.59 587.94 1587.74 586.794 1587.74 585.38C1587.74 583.966 1586.59 582.82 1585.18 582.82C1583.77 582.82 1582.62 583.966 1582.62 585.38C1582.62 586.794 1583.77 587.94 1585.18 587.94Z" fill="#74FFE6"/>
<path d="M1585.18 596.09C1586.59 596.09 1587.74 594.944 1587.74 593.53C1587.74 592.116 1586.59 590.97 1585.18 590.97C1583.77 590.97 1582.62 592.116 1582.62 593.53C1582.62 594.944 1583.77 596.09 1585.18 596.09Z" fill="#74FFE6"/>
<path d="M1585.18 604.24C1586.59 604.24 1587.74 603.094 1587.74 601.68C1587.74 600.266 1586.59 599.12 1585.18 599.12C1583.77 599.12 1582.62 600.266 1582.62 601.68C1582.62 603.094 1583.77 604.24 1585.18 604.24Z" fill="#C2E0FF"/>
<path fill-rule="evenodd" clip-rule="evenodd" d="M1870.74 462.53C1875.47 431.79 1890.45 335.61 1890.45 335.61V335.6C1890.45 335.6 1900.67 308.01 1920 299.34V785.45H1919.99V417.5C1913.76 419.111 1910.85 416.172 1908.88 416.707C1905.57 417.607 1904.93 428.325 1895.7 486.98C1883.52 564.465 1875.65 571.281 1851.21 592.47C1846.15 596.863 1840.37 601.873 1833.69 608.26C1827.45 614.224 1822.24 619.481 1817.65 624.116C1793.6 648.39 1786.41 655.641 1736.99 658.21C1697.57 660.259 1680.31 668.566 1660.89 677.908C1651.32 682.516 1641.22 687.375 1627.68 691.86C1603.01 700.032 1575.68 696.113 1544.31 691.615C1523.55 688.638 1501.02 685.407 1476.32 685.26C1442.66 685.059 1434.39 697.404 1425.3 710.982C1417.63 722.421 1409.38 734.735 1384.87 741.16C1343.84 753.538 1292.72 752.304 1242.37 751.089C1203.73 750.157 1165.54 749.235 1132.72 754.49C1057.15 766.58 869.84 762.36 795.93 760.26C722.03 758.15 597.6 758.16 525.08 764.46C464.804 769.696 432.293 737.365 408.098 713.304C403.183 708.417 398.611 703.871 394.22 700.05C370.249 679.211 321.529 679.183 267.163 679.151C262.516 679.148 257.828 679.146 253.11 679.13C217.351 679.011 205.462 670.676 194.815 663.212C187.624 658.171 180.999 653.527 167.97 652.08C135.65 648.49 134.07 639.11 147.47 630.95C160.87 622.79 160.08 610.38 129.34 591.86C98.6 573.34 0 587.64 0 587.64V557.1H88.31C127.31 557.1 163.82 576.31 185.9 608.46L212.9 647.76C212.9 647.76 214.62 648 217.65 648.41C218.78 646.55 220.1 644.74 221.62 643.11C229.63 634.53 251.35 615.38 262.21 612.81C265.14 612.12 268.79 612.61 272.79 613.8C279.988 615.939 288.343 620.34 295.713 624.222C299.473 626.203 302.977 628.049 305.94 629.39C317.94 634.82 323.66 638.54 308.51 645.97C299.98 650.15 308.31 655.27 318.04 658.95C327.64 659.63 338.01 660.5 348.5 661.85C374.71 665.23 401.7 671.67 419.44 686.13C422.886 688.94 426.309 691.908 429.807 694.94C434.674 699.16 439.687 703.506 445.11 707.73C467.9 725.48 497.97 741.1 555.03 736.06C572.78 734.5 589.57 733.88 605.77 733.86C614.24 733.85 622.55 734.01 630.75 734.28C650.018 734.917 668.681 736.191 687.409 737.47C700.426 738.358 713.474 739.249 726.78 739.93C741.13 740.66 755.79 741.16 771.03 741.13C806.169 741.066 826.451 741.107 852.155 741.16C874.575 741.206 901.121 741.26 945.25 741.26C1047.2 741.26 1104.31 736.87 1143.44 732.04C1144.72 731.98 1145.98 731.86 1147.21 731.66C1147.81 731.57 1148.39 731.46 1148.97 731.34C1162.22 729.621 1173.37 727.868 1183.63 726.257C1207.57 722.499 1226.6 719.51 1255.8 719.51C1267.26 719.51 1277.49 719.64 1286.64 719.87C1297.12 720.12 1306.19 720.5 1314.05 720.95C1354.97 723.271 1363.39 727.339 1369.17 724.975C1372.34 723.682 1374.71 720.466 1381.19 713.99C1386.88 708.31 1392.23 703.31 1397.34 698.89C1420.7 678.7 1439.07 670.87 1460.87 668.19L1481.28 651.23C1485.32 647.86 1490.49 645.95 1495.77 645.95H1510.15L1522.17 657.97C1523.96 659.76 1524.41 662.57 1523.29 664.93L1521.83 667.91C1526.26 668.05 1530.88 668.18 1535.71 668.28C1540 668.37 1544.04 668.45 1547.88 668.52C1611.2 669.68 1616.12 668.28 1616.12 668.28L1635.72 655.01C1656.31 641.08 1680.7 633.83 1705.56 634.26L1758.01 635.17C1758.01 635.17 1843.94 546.09 1851.82 538.21C1859.7 530.33 1866.01 493.27 1870.74 462.53Z" fill="#210E66"/>
<path d="M1079.64 318V480.3H1075.68V321.96C1075.68 319.77 1077.45 318 1079.64 318Z" fill="#0064FF"/>
<path d="M1079.64 44.0901V206.39H1075.68V48.0501C1075.68 45.8601 1077.45 44.0901 1079.64 44.0901Z" fill="#0064FF"/>
<path d="M1079.64 318C1081.83 318 1083.6 319.77 1083.6 321.96V480.3H1079.64V318Z" fill="#C2E0FF"/>
<path d="M1079.64 44.0901C1081.83 44.0901 1083.6 45.8601 1083.6 48.0501V206.39H1079.64V44.0901Z" fill="#C2E0FF"/>
<path d="M1083.6 480.3H1079.64H1075.68V321.96C1075.68 320.73 1076.25 319.64 1077.13 318.92V318.9C1077.13 318.9 1072.96 321.42 1072.96 329.11V481.59C1072.96 482.43 1073.64 483.11 1074.48 483.11H1080.88L1083.6 480.31V480.3Z" fill="#0000FF"/>
<path d="M1083.6 206.39H1079.64H1075.68V48.05C1075.68 46.82 1076.25 45.73 1077.13 45.01V44.99C1077.13 44.99 1072.96 47.51 1072.96 55.2V207.68C1072.96 208.52 1073.64 209.2 1074.48 209.2H1080.88L1083.6 206.4V206.39Z" fill="#0000FF"/>
<path d="M844.68 480.3H840.72H836.76V321.96C836.76 320.73 837.33 319.64 838.21 318.92V318.9C838.21 318.9 834.04 321.42 834.04 329.11V481.59C834.04 482.43 834.72 483.11 835.56 483.11H841.96L844.68 480.31V480.3Z" fill="#000019"/>
<path d="M844.68 206.39H840.72H836.76V48.05C836.76 46.82 837.33 45.73 838.21 45.01V44.99C838.21 44.99 834.04 47.51 834.04 55.2V207.68C834.04 208.52 834.72 209.2 835.56 209.2H841.96L844.68 206.4V206.39Z" fill="#000019"/>
<g filter="url(#filter4_f_15_279)">
<path d="M971.98 508.06V466H946.5V511.25L957.2 521.94V576.5H982.67V518.75L971.98 508.06Z" fill="#C2E0FF"/>
</g>
<g filter="url(#filter5_f_15_279)">
<path d="M1004.04 591.86H977.45C976.78 591.87 976.14 592.14 975.67 592.61L974.7 593.58C974.23 594.05 973.58 594.32 972.91 594.32H944.99C944.32 594.32 943.68 594.05 943.2 593.58L942.25 592.63C941.78 592.16 941.13 591.89 940.46 591.89H915.98C914.86 591.89 913.88 592.63 913.56 593.7L912.16 598.41C911.68 600.03 912.89 601.66 914.58 601.66H940.44C941.11 601.66 941.75 601.93 942.23 602.4L943.21 603.38C943.68 603.85 944.33 604.12 945 604.12H972.92C973.59 604.12 974.23 603.85 974.71 603.38L975.69 602.4C976.16 601.93 976.81 601.66 977.48 601.66H1005.48C1007.17 601.66 1008.38 600.03 1007.9 598.41L1006.48 593.67C1006.16 592.6 1005.18 591.87 1004.06 591.87L1004.04 591.86Z" fill="#C2E0FF"/>
</g>
<g filter="url(#filter6_f_15_279)">
<path d="M1020.32 645.95H977.46C976.79 645.96 976.15 646.23 975.68 646.7L974.71 647.67C974.24 648.14 973.59 648.41 972.92 648.41H945C944.33 648.41 943.69 648.14 943.21 647.67L942.26 646.72C941.79 646.25 941.14 645.98 940.47 645.98H899.96C898.84 645.98 897.86 646.72 897.54 647.79L896.14 652.5C895.66 654.12 896.87 655.75 898.56 655.75H940.45C941.12 655.75 941.76 656.02 942.24 656.49L943.22 657.47C943.69 657.94 944.34 658.21 945.01 658.21H972.93C973.6 658.21 974.24 657.94 974.72 657.47L975.7 656.49C976.17 656.02 976.82 655.75 977.49 655.75H1021.77C1023.46 655.75 1024.67 654.12 1024.19 652.5L1022.77 647.76C1022.45 646.69 1021.47 645.96 1020.35 645.96L1020.32 645.95Z" fill="#C2E0FF"/>
</g>
<g filter="url(#filter7_f_15_279)">
<path d="M1036.53 700.05H977.45C976.78 700.06 976.14 700.33 975.67 700.8L974.7 701.77C974.23 702.24 973.58 702.51 972.91 702.51H944.99C944.32 702.51 943.68 702.24 943.2 701.77L942.25 700.82C941.78 700.35 941.13 700.08 940.46 700.08H883.55C882.43 700.08 881.45 700.82 881.13 701.89L879.73 706.6C879.25 708.22 880.46 709.85 882.15 709.85H940.44C941.11 709.85 941.75 710.12 942.23 710.59L943.21 711.57C943.68 712.04 944.33 712.31 945 712.31H972.92C973.59 712.31 974.23 712.04 974.71 711.57L975.69 710.59C976.16 710.12 976.81 709.85 977.48 709.85H1037.97C1039.66 709.85 1040.87 708.22 1040.39 706.6L1038.97 701.86C1038.65 700.79 1037.67 700.06 1036.55 700.06L1036.53 700.05Z" fill="#C2E0FF"/>
</g>
<g filter="url(#filter8_f_15_279)">
<path d="M1589.64 585.38C1589.64 586.79 1590.79 587.94 1592.2 587.94H1599.42V586.34C1599.36 585.11 1599.08 583.92 1598.64 582.81H1592.2C1590.79 582.81 1589.64 583.96 1589.64 585.37V585.38Z" fill="#74FFE6"/>
</g>
<g filter="url(#filter9_f_15_279)">
<path d="M1599.42 590.97H1592.2C1590.79 590.97 1589.64 592.12 1589.64 593.53C1589.64 594.94 1590.79 596.09 1592.2 596.09H1599.42V590.97Z" fill="#74FFE6"/>
</g>
<g filter="url(#filter10_f_15_279)">
<path d="M1585.18 587.94C1586.59 587.94 1587.74 586.794 1587.74 585.38C1587.74 583.966 1586.59 582.82 1585.18 582.82C1583.77 582.82 1582.62 583.966 1582.62 585.38C1582.62 586.794 1583.77 587.94 1585.18 587.94Z" fill="#74FFE6"/>
</g>
<g filter="url(#filter11_f_15_279)">
<path d="M1585.18 596.09C1586.59 596.09 1587.74 594.944 1587.74 593.53C1587.74 592.116 1586.59 590.97 1585.18 590.97C1583.77 590.97 1582.62 592.116 1582.62 593.53C1582.62 594.944 1583.77 596.09 1585.18 596.09Z" fill="#74FFE6"/>
</g>
<path d="M937.05 157.366C936.92 157.366 936.79 157.346 936.68 157.296C936.66 157.296 936.64 157.286 936.63 157.276C936.61 157.276 936.6 157.276 936.58 157.276C936.07 157.066 935.82 156.486 936.02 155.976C936.23 155.476 936.82 155.216 937.32 155.416C937.34 155.416 937.36 155.426 937.37 155.436C937.39 155.436 937.4 155.436 937.42 155.456C937.79 155.596 938.04 155.956 938.05 156.356C938.05 156.486 938.02 156.626 937.97 156.746C937.82 157.136 937.46 157.376 937.05 157.376V157.366ZM984.01 156.726C983.61 156.726 983.25 156.496 983.09 156.126C982.99 155.876 982.98 155.606 983.09 155.356C983.19 155.116 983.38 154.916 983.63 154.816C983.63 154.816 983.66 154.796 983.67 154.796C983.69 154.786 983.7 154.786 983.72 154.776C984.22 154.556 984.82 154.806 985.03 155.296C985.08 155.426 985.11 155.546 985.11 155.686C985.11 156.086 984.88 156.456 984.51 156.616C984.48 156.626 984.46 156.636 984.43 156.646C984.3 156.706 984.17 156.726 984.03 156.726H984.01ZM923.03 149.536C922.82 149.536 922.62 149.466 922.45 149.346C922.43 149.336 922.41 149.316 922.39 149.306C922.39 149.296 922.37 149.286 922.37 149.286C922.15 149.126 922.01 148.896 921.97 148.626C921.94 148.366 922 148.096 922.17 147.886C922.48 147.466 923.14 147.366 923.56 147.686C923.58 147.686 923.59 147.706 923.6 147.716C923.62 147.726 923.63 147.736 923.64 147.746C923.89 147.936 924.03 148.216 924.03 148.536C924.03 148.756 923.97 148.956 923.84 149.136C923.65 149.386 923.35 149.536 923.03 149.536ZM997.8 148.526C997.5 148.526 997.21 148.386 997.02 148.146C996.85 147.936 996.78 147.676 996.81 147.406C996.84 147.136 996.97 146.906 997.18 146.736L997.26 146.676C997.68 146.346 998.33 146.416 998.66 146.836C998.81 147.026 998.88 147.246 998.88 147.476C998.88 147.776 998.74 148.046 998.51 148.236C998.51 148.236 998.503 148.243 998.49 148.256H998.47C998.47 148.256 998.44 148.286 998.43 148.296C998.26 148.436 998.04 148.516 997.81 148.516L997.8 148.526ZM911.52 138.356C911.21 138.356 910.92 138.216 910.73 137.976C910.72 137.976 910.71 137.946 910.7 137.936C910.7 137.936 910.68 137.906 910.67 137.896C910.5 137.686 910.43 137.426 910.46 137.156C910.49 136.896 910.63 136.656 910.84 136.496C911.26 136.166 911.91 136.236 912.24 136.656L912.27 136.696C912.27 136.696 912.29 136.726 912.3 136.736C912.44 136.916 912.52 137.146 912.52 137.376C912.51 137.676 912.37 137.956 912.14 138.146C911.96 138.286 911.74 138.356 911.52 138.356ZM1008.99 137.016C1008.78 137.016 1008.57 136.956 1008.4 136.816C1008.18 136.656 1008.04 136.426 1008.01 136.166C1007.97 135.896 1008.04 135.636 1008.2 135.416C1008.2 135.416 1008.24 135.366 1008.25 135.336C1008.58 134.906 1009.22 134.816 1009.66 135.136C1009.91 135.326 1010.06 135.616 1010.06 135.936C1010.06 136.156 1009.99 136.356 1009.86 136.536L1009.84 136.556C1009.84 136.556 1009.81 136.596 1009.8 136.616C1009.61 136.866 1009.31 137.016 1008.99 137.016ZM903.29 124.576C902.89 124.576 902.53 124.336 902.37 123.976V123.946C902.37 123.946 902.34 123.896 902.33 123.876C902.23 123.636 902.22 123.366 902.33 123.116C902.44 122.866 902.62 122.666 902.86 122.566C903.36 122.356 903.97 122.596 904.18 123.096C904.18 123.096 904.18 123.126 904.2 123.146C904.2 123.146 904.2 123.166 904.22 123.176V123.196C904.27 123.316 904.3 123.436 904.3 123.576C904.3 123.976 904.06 124.336 903.69 124.496C903.57 124.546 903.44 124.576 903.3 124.576H903.29ZM1016.85 123.016C1016.72 123.016 1016.6 122.996 1016.48 122.946C1015.97 122.736 1015.71 122.156 1015.92 121.646C1015.92 121.626 1015.92 121.606 1015.94 121.596L1015.96 121.556C1016.15 121.056 1016.75 120.796 1017.26 120.996C1017.63 121.146 1017.88 121.496 1017.89 121.906C1017.89 122.036 1017.86 122.166 1017.81 122.296V122.316C1017.81 122.316 1017.79 122.366 1017.78 122.386C1017.62 122.766 1017.26 123.016 1016.85 123.016ZM902.62 77.516C902.5 77.516 902.37 77.496 902.25 77.446C901.88 77.296 901.63 76.946 901.62 76.536C901.62 76.406 901.64 76.276 901.69 76.146C901.71 76.116 901.72 76.086 901.73 76.056C901.93 75.556 902.53 75.296 903.03 75.496C903.28 75.596 903.47 75.786 903.58 76.036C903.69 76.276 903.69 76.546 903.59 76.796C903.58 76.816 903.58 76.826 903.57 76.846C903.57 76.846 903.57 76.876 903.55 76.886C903.4 77.276 903.03 77.516 902.62 77.516ZM1016.26 76.026C1015.86 76.026 1015.5 75.786 1015.34 75.426C1015.34 75.406 1015.34 75.386 1015.32 75.366L1015.3 75.336V75.316C1015.25 75.196 1015.23 75.076 1015.22 74.946C1015.22 74.536 1015.46 74.176 1015.83 74.016C1016.33 73.806 1016.93 74.046 1017.14 74.546C1017.14 74.566 1017.16 74.586 1017.17 74.606V74.636C1017.4 75.146 1017.17 75.736 1016.65 75.946C1016.53 76.006 1016.4 76.026 1016.26 76.026ZM910.46 63.506C910.24 63.506 910.04 63.446 909.86 63.316C909.61 63.126 909.46 62.836 909.46 62.506C909.46 62.296 909.53 62.086 909.66 61.916L909.72 61.836C910.04 61.406 910.69 61.306 911.12 61.626C911.33 61.786 911.47 62.026 911.51 62.286C911.55 62.556 911.48 62.816 911.32 63.036C911.3 63.056 911.28 63.086 911.26 63.106C911.07 63.366 910.78 63.506 910.46 63.506ZM1008.07 62.226C1007.76 62.226 1007.47 62.086 1007.28 61.846C1007.27 61.846 1007.25 61.806 1007.23 61.786V61.766C1007.08 61.586 1007 61.366 1007 61.126C1007 60.836 1007.15 60.556 1007.38 60.366C1007.8 60.036 1008.46 60.106 1008.79 60.536C1008.79 60.536 1008.8 60.5426 1008.81 60.556C1008.81 60.556 1008.83 60.596 1008.85 60.606C1009.02 60.816 1009.09 61.076 1009.06 61.346C1009.03 61.606 1008.89 61.846 1008.68 62.016C1008.51 62.156 1008.29 62.226 1008.07 62.226ZM921.64 51.996C921.34 51.996 921.05 51.856 920.86 51.616C920.71 51.426 920.64 51.206 920.64 50.976C920.65 50.676 920.79 50.396 921.02 50.216C921.05 50.186 921.08 50.166 921.1 50.146C921.52 49.816 922.18 49.896 922.51 50.316C922.67 50.526 922.75 50.786 922.71 51.046C922.68 51.316 922.55 51.556 922.34 51.716C922.33 51.716 922.32 51.736 922.3 51.746C922.3 51.756 922.28 51.766 922.26 51.776C922.09 51.916 921.87 51.996 921.64 51.996ZM996.57 51.026C996.35 51.026 996.15 50.956 995.97 50.826C995.94 50.806 995.92 50.786 995.89 50.766C995.65 50.576 995.5 50.286 995.5 49.976C995.5 49.756 995.57 49.556 995.7 49.376C996.02 48.956 996.66 48.856 997.09 49.166L997.13 49.196C997.13 49.216 997.16 49.226 997.17 49.236C997.61 49.566 997.7 50.196 997.37 50.636C997.18 50.886 996.88 51.036 996.57 51.036V51.026ZM935.43 43.776C935.03 43.776 934.67 43.536 934.51 43.166C934.45 43.046 934.43 42.916 934.43 42.776C934.43 42.376 934.66 42.016 935.03 41.856H935.06C935.06 41.856 935.1 41.826 935.12 41.816C935.64 41.596 936.23 41.846 936.44 42.336C936.66 42.846 936.42 43.436 935.91 43.656C935.89 43.666 935.87 43.676 935.85 43.676L935.82 43.696C935.7 43.746 935.56 43.776 935.43 43.776ZM982.58 43.156C982.45 43.156 982.32 43.136 982.21 43.086C982.19 43.086 982.18 43.076 982.16 43.076C982.15 43.076 982.13 43.056 982.12 43.056C981.74 42.906 981.49 42.546 981.48 42.146C981.48 42.006 981.51 41.876 981.56 41.746C981.76 41.246 982.35 40.996 982.85 41.196C982.87 41.196 982.89 41.196 982.91 41.216C982.91 41.216 982.94 41.216 982.95 41.216C983.2 41.316 983.39 41.506 983.49 41.756C983.6 42.006 983.6 42.276 983.49 42.526C983.34 42.906 982.98 43.146 982.57 43.146L982.58 43.156ZM950.87 39.416C950.38 39.416 949.96 39.046 949.88 38.566C949.88 38.506 949.87 38.456 949.87 38.406C949.88 37.926 950.25 37.496 950.73 37.426H950.77C950.77 37.426 950.81 37.426 950.83 37.426C951.39 37.336 951.89 37.736 951.96 38.266C952.04 38.816 951.66 39.326 951.12 39.406C951.08 39.406 951.05 39.406 951.02 39.406C950.97 39.416 950.92 39.416 950.87 39.416ZM967.03 39.186H966.91C966.91 39.186 966.85 39.186 966.82 39.186C966.31 39.126 965.93 38.686 965.93 38.176C965.93 38.146 965.93 38.106 965.93 38.076C965.99 37.536 966.48 37.146 967.04 37.196C967.06 37.196 967.08 37.196 967.1 37.196H967.14C967.69 37.266 968.08 37.756 968.02 38.306C967.96 38.806 967.53 39.186 967.03 39.186Z" fill="#0000FF"/>
<path d="M959.73 154.966C945.04 154.966 931.21 149.316 920.71 139.006C910.09 128.576 904.16 114.646 904.02 99.756C903.73 69.036 928.5 43.806 959.22 43.516C974.09 43.356 988.15 49.046 998.77 59.466C1009.39 69.896 1015.32 83.826 1015.46 98.716C1015.75 129.436 990.98 154.666 960.26 154.956C960.08 154.956 959.9 154.956 959.73 154.956V154.966ZM959.76 45.526C959.59 45.526 959.42 45.526 959.25 45.526C929.63 45.806 905.76 70.126 906.03 99.746C906.16 114.096 911.88 127.536 922.12 137.586C932.24 147.516 945.58 152.966 959.74 152.966C959.91 152.966 960.08 152.966 960.25 152.966C989.87 152.686 1013.75 128.366 1013.47 98.746C1013.34 84.396 1007.62 70.956 997.38 60.906C987.26 50.976 973.92 45.526 959.76 45.526Z" fill="#0000FF"/>
<path d="M959.75 143.576C984.238 143.576 1004.09 123.724 1004.09 99.236C1004.09 74.7477 984.238 54.896 959.75 54.896C935.262 54.896 915.41 74.7477 915.41 99.236C915.41 123.724 935.262 143.576 959.75 143.576Z" fill="#66B1FF"/>
<path d="M1117.19 107.446H1117.09C1116.54 107.446 1116.1 106.996 1116.1 106.446C1116.1 105.896 1116.54 105.446 1117.09 105.446H1117.19C1117.75 105.446 1118.19 105.896 1118.19 106.446C1118.19 106.996 1117.75 107.446 1117.19 107.446ZM1101.1 107.446H1101C1100.44 107.446 1100 106.996 1100 106.446C1100 105.896 1100.44 105.446 1101 105.446H1101.1C1101.65 105.446 1102.1 105.896 1102.1 106.446C1102.1 106.996 1101.65 107.446 1101.1 107.446ZM1084.99 107.446H1084.9C1084.34 107.446 1083.9 106.996 1083.9 106.446C1083.9 105.896 1084.34 105.446 1084.9 105.446H1084.99C1085.55 105.446 1085.99 105.896 1085.99 106.446C1085.99 106.996 1085.55 107.446 1084.99 107.446ZM1068.9 107.446H1068.8C1068.24 107.446 1067.8 106.996 1067.8 106.446C1067.8 105.896 1068.24 105.446 1068.8 105.446H1068.9C1069.45 105.446 1069.89 105.896 1069.89 106.446C1069.89 106.996 1069.45 107.446 1068.9 107.446ZM1052.8 107.446H1052.69C1052.14 107.446 1051.69 106.996 1051.69 106.446C1051.69 105.896 1052.14 105.446 1052.69 105.446H1052.8C1053.35 105.446 1053.79 105.896 1053.79 106.446C1053.79 106.996 1053.35 107.446 1052.8 107.446ZM1036.7 107.446H1036.6C1036.04 107.446 1035.6 106.996 1035.6 106.446C1035.6 105.896 1036.04 105.446 1036.6 105.446H1036.7C1037.25 105.446 1037.69 105.896 1037.69 106.446C1037.69 106.996 1037.25 107.446 1036.7 107.446ZM1020.6 107.446H1020.49C1019.94 107.446 1019.5 106.996 1019.5 106.446C1019.5 105.896 1019.94 105.446 1020.49 105.446H1020.6C1021.15 105.446 1021.6 105.896 1021.6 106.446C1021.6 106.996 1021.15 107.446 1020.6 107.446Z" fill="#0000FF"/>
<path d="M1117.2 91.5059H1117.1C1116.54 91.5059 1116.1 91.0559 1116.1 90.5059C1116.1 89.9559 1116.54 89.5059 1117.1 89.5059H1117.2C1117.75 89.5059 1118.19 89.9559 1118.19 90.5059C1118.19 91.0559 1117.75 91.5059 1117.2 91.5059ZM1101.1 91.5059H1100.99C1100.44 91.5059 1099.99 91.0559 1099.99 90.5059C1099.99 89.9559 1100.44 89.5059 1100.99 89.5059H1101.1C1101.65 89.5059 1102.1 89.9559 1102.1 90.5059C1102.1 91.0559 1101.65 91.5059 1101.1 91.5059ZM1085 91.5059H1084.9C1084.34 91.5059 1083.9 91.0559 1083.9 90.5059C1083.9 89.9559 1084.34 89.5059 1084.9 89.5059H1085C1085.55 89.5059 1085.99 89.9559 1085.99 90.5059C1085.99 91.0559 1085.55 91.5059 1085 91.5059ZM1068.9 91.5059H1068.8C1068.24 91.5059 1067.79 91.0559 1067.79 90.5059C1067.79 89.9559 1068.24 89.5059 1068.8 89.5059H1068.9C1069.45 89.5059 1069.9 89.9559 1069.9 90.5059C1069.9 91.0559 1069.45 91.5059 1068.9 91.5059ZM1052.8 91.5059H1052.7C1052.14 91.5059 1051.69 91.0559 1051.69 90.5059C1051.69 89.9559 1052.14 89.5059 1052.7 89.5059H1052.8C1053.35 89.5059 1053.79 89.9559 1053.79 90.5059C1053.79 91.0559 1053.35 91.5059 1052.8 91.5059ZM1036.7 91.5059H1036.6C1036.04 91.5059 1035.59 91.0559 1035.59 90.5059C1035.59 89.9559 1036.04 89.5059 1036.6 89.5059H1036.7C1037.25 89.5059 1037.69 89.9559 1037.69 90.5059C1037.69 91.0559 1037.25 91.5059 1036.7 91.5059ZM1020.6 91.5059H1020.5C1019.94 91.5059 1019.5 91.0559 1019.5 90.5059C1019.5 89.9559 1019.94 89.5059 1020.5 89.5059H1020.6C1021.15 89.5059 1021.59 89.9559 1021.59 90.5059C1021.59 91.0559 1021.15 91.5059 1020.6 91.5059Z" fill="#0000FF"/>
<path d="M898.75 107.446H898.65C898.1 107.446 897.65 106.996 897.65 106.446C897.65 105.896 898.1 105.446 898.65 105.446H898.75C899.3 105.446 899.75 105.896 899.75 106.446C899.75 106.996 899.3 107.446 898.75 107.446Z" fill="#0000FF"/>
<path d="M882.65 107.446H882.55C882 107.446 881.55 106.996 881.55 106.446C881.55 105.896 882 105.446 882.55 105.446H882.65C883.2 105.446 883.65 105.896 883.65 106.446C883.65 106.996 883.2 107.446 882.65 107.446Z" fill="#0000FF"/>
<path d="M866.55 107.446H866.45C865.9 107.446 865.45 106.996 865.45 106.446C865.45 105.896 865.9 105.446 866.45 105.446H866.55C867.1 105.446 867.55 105.896 867.55 106.446C867.55 106.996 867.1 107.446 866.55 107.446Z" fill="#00007F"/>
<path d="M850.45 107.446H850.35C849.8 107.446 849.35 106.996 849.35 106.446C849.35 105.896 849.8 105.446 850.35 105.446H850.45C851 105.446 851.45 105.896 851.45 106.446C851.45 106.996 851 107.446 850.45 107.446Z" fill="#00007F"/>
<path d="M834.35 107.446H834.25C833.7 107.446 833.25 106.996 833.25 106.446C833.25 105.896 833.7 105.446 834.25 105.446H834.35C834.9 105.446 835.35 105.896 835.35 106.446C835.35 106.996 834.9 107.446 834.35 107.446Z" fill="#000019"/>
<path d="M818.25 107.446H818.15C817.6 107.446 817.15 106.996 817.15 106.446C817.15 105.896 817.6 105.446 818.15 105.446H818.25C818.8 105.446 819.25 105.896 819.25 106.446C819.25 106.996 818.8 107.446 818.25 107.446Z" fill="#000019"/>
<path d="M802.15 107.446H802.05C801.5 107.446 801.05 106.996 801.05 106.446C801.05 105.896 801.5 105.446 802.05 105.446H802.15C802.7 105.446 803.15 105.896 803.15 106.446C803.15 106.996 802.7 107.446 802.15 107.446Z" fill="#000019"/>
<path d="M898.75 91.5059H898.65C898.1 91.5059 897.65 91.0559 897.65 90.5059C897.65 89.9559 898.1 89.5059 898.65 89.5059H898.75C899.3 89.5059 899.75 89.9559 899.75 90.5059C899.75 91.0559 899.3 91.5059 898.75 91.5059Z" fill="#0000FF"/>
<path d="M882.65 91.5059H882.55C882 91.5059 881.55 91.0559 881.55 90.5059C881.55 89.9559 882 89.5059 882.55 89.5059H882.65C883.2 89.5059 883.65 89.9559 883.65 90.5059C883.65 91.0559 883.2 91.5059 882.65 91.5059Z" fill="#0000FF"/>
<path d="M866.55 91.5059H866.45C865.9 91.5059 865.45 91.0559 865.45 90.5059C865.45 89.9559 865.9 89.5059 866.45 89.5059H866.55C867.1 89.5059 867.55 89.9559 867.55 90.5059C867.55 91.0559 867.1 91.5059 866.55 91.5059Z" fill="#00007F"/>
<path d="M850.45 91.5059H850.35C849.8 91.5059 849.35 91.0559 849.35 90.5059C849.35 89.9559 849.8 89.5059 850.35 89.5059H850.45C851 89.5059 851.45 89.9559 851.45 90.5059C851.45 91.0559 851 91.5059 850.45 91.5059Z" fill="#00007F"/>
<path d="M834.35 91.5059H834.25C833.7 91.5059 833.25 91.0559 833.25 90.5059C833.25 89.9559 833.7 89.5059 834.25 89.5059H834.35C834.9 89.5059 835.35 89.9559 835.35 90.5059C835.35 91.0559 834.9 91.5059 834.35 91.5059Z" fill="#000019"/>
<path d="M818.25 91.5059H818.15C817.6 91.5059 817.15 91.0559 817.15 90.5059C817.15 89.9559 817.6 89.5059 818.15 89.5059H818.25C818.8 89.5059 819.25 89.9559 819.25 90.5059C819.25 91.0559 818.8 91.5059 818.25 91.5059Z" fill="#000019"/>
<path d="M802.15 91.5059H802.05C801.5 91.5059 801.05 91.0559 801.05 90.5059C801.05 89.9559 801.5 89.5059 802.05 89.5059H802.15C802.7 89.5059 803.15 89.9559 803.15 90.5059C803.15 91.0559 802.7 91.5059 802.15 91.5059Z" fill="#000019"/>
<path d="M927.52 99.2359C927.52 79.3559 942.93 63.0859 962.46 61.6859C961.56 61.6259 960.66 61.5759 959.74 61.5759C938.94 61.5759 922.09 78.4359 922.09 99.2359C922.09 120.036 938.95 136.886 959.74 136.886C960.65 136.886 961.56 136.846 962.46 136.776C942.93 135.386 927.52 119.116 927.52 99.2259V99.2359Z" fill="#00007F"/>
<path d="M961.14 136.656C961.58 136.706 962.02 136.746 962.46 136.786C981.6 135.416 996.77 119.766 997.37 100.426L961.14 136.656Z" fill="#0000FF"/>
<path d="M992.07 79.9259L942.62 129.376C944.98 131.146 947.55 132.646 950.3 133.826L995.8 88.3259C994.9 85.3559 993.64 82.5359 992.07 79.9259Z" fill="#0000FF"/>
<path d="M962.46 61.6959C942.93 63.0859 927.52 79.3559 927.52 99.2459C927.52 102.846 928.03 106.336 928.98 109.636L974.15 64.4659C970.51 62.9559 966.58 61.9959 962.46 61.7059V61.6959Z" fill="#0000FF"/>
<path d="M974.15 64.4559L928.98 109.626C931.27 117.616 936.13 124.516 942.62 129.376L992.07 79.9259C987.94 73.0259 981.66 67.5659 974.15 64.4559Z" fill="#0064FF"/>
<path d="M997.4 99.2359C997.4 95.4459 996.84 91.7859 995.79 88.3259L950.29 133.826C953.68 135.286 957.32 136.256 961.13 136.656L997.36 100.426C997.37 100.026 997.39 99.6359 997.39 99.2359H997.4Z" fill="#0064FF"/>
<path d="M960 -0.406006V44.4936C960 44.7666 959.55 44.99 959 44.99C958.45 44.99 958 44.7666 958 44.4936V-0.406006H960Z" fill="#0000FF"/>
<path d="M966.98 23.3539C966.43 23.3539 965.98 22.9039 965.98 22.3539V22.2539C965.98 21.7039 966.43 21.2539 966.98 21.2539C967.53 21.2539 967.98 21.7039 967.98 22.2539V22.3539C967.98 22.9039 967.53 23.3539 966.98 23.3539ZM966.98 7.25393C966.43 7.25393 965.98 6.80393 965.98 6.25393V6.15393C965.98 5.60393 966.43 5.15393 966.98 5.15393C967.53 5.15393 967.98 5.60393 967.98 6.15393V6.25393C967.98 6.80393 967.53 7.25393 966.98 7.25393Z" fill="#0000FF"/>
<path d="M950.91 23.3539C950.35 23.3539 949.91 22.9039 949.91 22.3539V22.2539C949.91 21.7039 950.35 21.2539 950.91 21.2539C951.47 21.2539 951.91 21.7039 951.91 22.2539V22.3539C951.91 22.9039 951.46 23.3539 950.91 23.3539ZM950.91 7.25393C950.35 7.25393 949.91 6.80393 949.91 6.25393V6.15393C949.91 5.60393 950.35 5.15393 950.91 5.15393C951.47 5.15393 951.91 5.60393 951.91 6.15393V6.25393C951.91 6.80393 951.46 7.25393 950.91 7.25393Z" fill="#0000FF"/>
<path d="M867.05 98.236L904.472 98.236C904.661 98.236 904.815 98.686 904.815 99.236C904.815 99.786 904.661 100.236 904.472 100.236L867.05 100.236V98.236Z" fill="#0000FF"/>
<path d="M867.99 98.236H844.684C844.684 98.7457 844.684 99.1618 844.684 99.1618C844.684 99.1618 844.684 99.8753 844.684 100.236L867.99 100.236V98.236Z" fill="#00007F"/>
<path d="M796 98.236H835.856C835.856 98.4745 835.856 99.1859 835.856 99.1859C835.856 99.1859 835.856 99.8103 835.856 100.236H796V98.236Z" fill="#000019"/>
</g>
<defs>
<filter id="filter0_f_15_279" x="930" y="-653" width="1614" height="1288" filterUnits="userSpaceOnUse" color-interpolation-filters="sRGB">
<feFlood flood-opacity="0" result="BackgroundImageFix"/>
<feBlend mode="normal" in="SourceGraphic" in2="BackgroundImageFix" result="shape"/>
<feGaussianBlur stdDeviation="125" result="effect1_foregroundBlur_15_279"/>
</filter>
<filter id="filter1_f_15_279" x="-261" y="-613" width="1566" height="1207" filterUnits="userSpaceOnUse" color-interpolation-filters="sRGB">
<feFlood flood-opacity="0" result="BackgroundImageFix"/>
<feBlend mode="normal" in="SourceGraphic" in2="BackgroundImageFix" result="shape"/>
<feGaussianBlur stdDeviation="125" result="effect1_foregroundBlur_15_279"/>
</filter>
<filter id="filter2_f_15_279" x="-34.3494" y="-233.253" width="780" height="676" filterUnits="userSpaceOnUse" color-interpolation-filters="sRGB">
<feFlood flood-opacity="0" result="BackgroundImageFix"/>
<feBlend mode="normal" in="SourceGraphic" in2="BackgroundImageFix" result="shape"/>
<feGaussianBlur stdDeviation="75" result="effect1_foregroundBlur_15_279"/>
</filter>
<filter id="filter3_f_15_279" x="1517" y="-61" width="1131" height="555" filterUnits="userSpaceOnUse" color-interpolation-filters="sRGB">
<feFlood flood-opacity="0" result="BackgroundImageFix"/>
<feBlend mode="normal" in="SourceGraphic" in2="BackgroundImageFix" result="shape"/>
<feGaussianBlur stdDeviation="75" result="effect1_foregroundBlur_15_279"/>
</filter>
<filter id="filter4_f_15_279" x="915.5" y="435" width="98.17" height="172.5" filterUnits="userSpaceOnUse" color-interpolation-filters="sRGB">
<feFlood flood-opacity="0" result="BackgroundImageFix"/>
<feBlend mode="normal" in="SourceGraphic" in2="BackgroundImageFix" result="shape"/>
<feGaussianBlur stdDeviation="15.5" result="effect1_foregroundBlur_15_279"/>
</filter>
<filter id="filter5_f_15_279" x="906.054" y="585.86" width="107.952" height="24.26" filterUnits="userSpaceOnUse" color-interpolation-filters="sRGB">
<feFlood flood-opacity="0" result="BackgroundImageFix"/>
<feBlend mode="normal" in="SourceGraphic" in2="BackgroundImageFix" result="shape"/>
<feGaussianBlur stdDeviation="3" result="effect1_foregroundBlur_15_279"/>
</filter>
<filter id="filter6_f_15_279" x="890.034" y="639.95" width="140.262" height="24.26" filterUnits="userSpaceOnUse" color-interpolation-filters="sRGB">
<feFlood flood-opacity="0" result="BackgroundImageFix"/>
<feBlend mode="normal" in="SourceGraphic" in2="BackgroundImageFix" result="shape"/>
<feGaussianBlur stdDeviation="3" result="effect1_foregroundBlur_15_279"/>
</filter>
<filter id="filter7_f_15_279" x="873.624" y="694.05" width="172.872" height="24.26" filterUnits="userSpaceOnUse" color-interpolation-filters="sRGB">
<feFlood flood-opacity="0" result="BackgroundImageFix"/>
<feBlend mode="normal" in="SourceGraphic" in2="BackgroundImageFix" result="shape"/>
<feGaussianBlur stdDeviation="3" result="effect1_foregroundBlur_15_279"/>
</filter>
<filter id="filter8_f_15_279" x="1583.64" y="576.81" width="21.78" height="17.13" filterUnits="userSpaceOnUse" color-interpolation-filters="sRGB">
<feFlood flood-opacity="0" result="BackgroundImageFix"/>
<feBlend mode="normal" in="SourceGraphic" in2="BackgroundImageFix" result="shape"/>
<feGaussianBlur stdDeviation="3" result="effect1_foregroundBlur_15_279"/>
</filter>
<filter id="filter9_f_15_279" x="1583.64" y="584.97" width="21.78" height="17.12" filterUnits="userSpaceOnUse" color-interpolation-filters="sRGB">
<feFlood flood-opacity="0" result="BackgroundImageFix"/>
<feBlend mode="normal" in="SourceGraphic" in2="BackgroundImageFix" result="shape"/>
<feGaussianBlur stdDeviation="3" result="effect1_foregroundBlur_15_279"/>
</filter>
<filter id="filter10_f_15_279" x="1576.62" y="576.82" width="17.12" height="17.12" filterUnits="userSpaceOnUse" color-interpolation-filters="sRGB">
<feFlood flood-opacity="0" result="BackgroundImageFix"/>
<feBlend mode="normal" in="SourceGraphic" in2="BackgroundImageFix" result="shape"/>
<feGaussianBlur stdDeviation="3" result="effect1_foregroundBlur_15_279"/>
</filter>
<filter id="filter11_f_15_279" x="1576.62" y="584.97" width="17.12" height="17.12" filterUnits="userSpaceOnUse" color-interpolation-filters="sRGB">
<feFlood flood-opacity="0" result="BackgroundImageFix"/>
<feBlend mode="normal" in="SourceGraphic" in2="BackgroundImageFix" result="shape"/>
<feGaussianBlur stdDeviation="3" result="effect1_foregroundBlur_15_279"/>
</filter>
<clipPath id="clip0_15_279">
<rect width="1920" height="785" fill="white"/>
</clipPath>
<clipPath id="clip1_15_279">
<rect width="1919" height="785" fill="white" transform="translate(1)"/>
</clipPath>
</defs>
</svg>
