<svg width="448" height="242" viewBox="0 0 448 242" fill="none" xmlns="http://www.w3.org/2000/svg">
<g opacity="0.5">
<path d="M112.039 98.5941L113.411 99.1869L113.436 97.6924C114.305 44.253 160.295 1.09863 217.02 1.09863C265.313 1.09863 305.842 32.3832 317.351 74.6564L317.651 75.7598L318.705 75.3149C330.041 70.5279 342.595 67.8598 355.814 67.8598C406.223 67.8598 447 106.576 447 154.225C447 201.877 407.132 239.721 357.496 240.57L356.29 240.59H77.8736L77.882 240.566L76.5229 240.518C34.5016 239.032 1 206.312 1 166.245C1 125.234 36.0955 91.9025 79.4996 91.9025C91.1134 91.9025 102.123 94.3099 112.039 98.5941Z" stroke="url(#paint0_linear_660_3418)" stroke-width="2"/>
<path d="M112.039 98.5941L113.411 99.1869L113.436 97.6924C114.305 44.253 160.295 1.09863 217.02 1.09863C265.313 1.09863 305.842 32.3832 317.351 74.6564L317.651 75.7598L318.705 75.3149C330.041 70.5279 342.595 67.8598 355.814 67.8598C406.223 67.8598 447 106.576 447 154.225C447 201.877 407.132 239.721 357.496 240.57L356.29 240.59H77.8736L77.882 240.566L76.5229 240.518C34.5016 239.032 1 206.312 1 166.245C1 125.234 36.0955 91.9025 79.4996 91.9025C91.1134 91.9025 102.123 94.3099 112.039 98.5941Z" stroke="url(#paint1_linear_660_3418)" stroke-width="2"/>
</g>
<defs>
<linearGradient id="paint0_linear_660_3418" x1="-2.89517e-06" y1="103.729" x2="227.417" y2="201.557" gradientUnits="userSpaceOnUse">
<stop stop-color="white"/>
<stop offset="0.976841" stop-color="white" stop-opacity="0"/>
</linearGradient>
<linearGradient id="paint1_linear_660_3418" x1="120.5" y1="69.5" x2="120.5" y2="187.5" gradientUnits="userSpaceOnUse">
<stop stop-color="#79F0A9"/>
<stop offset="1" stop-color="#79F0A9" stop-opacity="0"/>
</linearGradient>
</defs>
</svg>
