<svg width="369" height="294" viewBox="0 0 369 294" fill="none" xmlns="http://www.w3.org/2000/svg">
<g opacity="0.6">
<mask id="path-1-inside-1_660_4161" fill="white">
<path fill-rule="evenodd" clip-rule="evenodd" d="M0 30C0 13.4314 13.4315 0 30 0H339C355.569 0 369 13.4315 369 30V191.193C369 207.762 355.569 221.193 339 221.193H212.925V268.739H225.664C231.187 268.739 235.664 273.216 235.664 278.739V283.546C235.664 289.069 231.187 293.546 225.664 293.546H143.336C137.813 293.546 133.336 289.069 133.336 283.546V278.739C133.336 273.216 137.813 268.739 143.336 268.739H156.076V221.193H30C13.4315 221.193 0 207.762 0 191.193V30Z"/>
</mask>
<path d="M212.925 221.193V219.193H210.925V221.193H212.925ZM212.925 268.739H210.925V270.739H212.925V268.739ZM156.076 268.739V270.739H158.076V268.739H156.076ZM156.076 221.193H158.076V219.193H156.076V221.193ZM30 -2C12.3269 -2 -2 12.3269 -2 30H2C2 14.536 14.536 2 30 2V-2ZM339 -2H30V2H339V-2ZM371 30C371 12.3269 356.673 -2 339 -2V2C354.464 2 367 14.536 367 30H371ZM371 191.193V30H367V191.193H371ZM339 223.193C356.673 223.193 371 208.866 371 191.193H367C367 206.657 354.464 219.193 339 219.193V223.193ZM212.925 223.193H339V219.193H212.925V223.193ZM214.925 268.739V221.193H210.925V268.739H214.925ZM212.925 270.739H225.664V266.739H212.925V270.739ZM225.664 270.739C230.082 270.739 233.664 274.321 233.664 278.739H237.664C237.664 272.112 232.291 266.739 225.664 266.739V270.739ZM233.664 278.739V283.546H237.664V278.739H233.664ZM233.664 283.546C233.664 287.964 230.082 291.546 225.664 291.546V295.546C232.291 295.546 237.664 290.173 237.664 283.546H233.664ZM225.664 291.546H143.336V295.546H225.664V291.546ZM143.336 291.546C138.918 291.546 135.336 287.964 135.336 283.546H131.336C131.336 290.173 136.709 295.546 143.336 295.546V291.546ZM135.336 283.546V278.739H131.336V283.546H135.336ZM135.336 278.739C135.336 274.321 138.918 270.739 143.336 270.739V266.739C136.709 266.739 131.336 272.112 131.336 278.739H135.336ZM143.336 270.739H156.076V266.739H143.336V270.739ZM154.076 221.193V268.739H158.076V221.193H154.076ZM30 223.193H156.076V219.193H30V223.193ZM-2 191.193C-2 208.866 12.3269 223.193 30 223.193V219.193C14.536 219.193 2 206.657 2 191.193H-2ZM-2 30V191.193H2V30H-2Z" fill="url(#paint0_linear_660_4161)" mask="url(#path-1-inside-1_660_4161)"/>
<path d="M212.925 221.193V219.193H210.925V221.193H212.925ZM212.925 268.739H210.925V270.739H212.925V268.739ZM156.076 268.739V270.739H158.076V268.739H156.076ZM156.076 221.193H158.076V219.193H156.076V221.193ZM30 -2C12.3269 -2 -2 12.3269 -2 30H2C2 14.536 14.536 2 30 2V-2ZM339 -2H30V2H339V-2ZM371 30C371 12.3269 356.673 -2 339 -2V2C354.464 2 367 14.536 367 30H371ZM371 191.193V30H367V191.193H371ZM339 223.193C356.673 223.193 371 208.866 371 191.193H367C367 206.657 354.464 219.193 339 219.193V223.193ZM212.925 223.193H339V219.193H212.925V223.193ZM214.925 268.739V221.193H210.925V268.739H214.925ZM212.925 270.739H225.664V266.739H212.925V270.739ZM225.664 270.739C230.082 270.739 233.664 274.321 233.664 278.739H237.664C237.664 272.112 232.291 266.739 225.664 266.739V270.739ZM233.664 278.739V283.546H237.664V278.739H233.664ZM233.664 283.546C233.664 287.964 230.082 291.546 225.664 291.546V295.546C232.291 295.546 237.664 290.173 237.664 283.546H233.664ZM225.664 291.546H143.336V295.546H225.664V291.546ZM143.336 291.546C138.918 291.546 135.336 287.964 135.336 283.546H131.336C131.336 290.173 136.709 295.546 143.336 295.546V291.546ZM135.336 283.546V278.739H131.336V283.546H135.336ZM135.336 278.739C135.336 274.321 138.918 270.739 143.336 270.739V266.739C136.709 266.739 131.336 272.112 131.336 278.739H135.336ZM143.336 270.739H156.076V266.739H143.336V270.739ZM154.076 221.193V268.739H158.076V221.193H154.076ZM30 223.193H156.076V219.193H30V223.193ZM-2 191.193C-2 208.866 12.3269 223.193 30 223.193V219.193C14.536 219.193 2 206.657 2 191.193H-2ZM-2 30V191.193H2V30H-2Z" fill="url(#paint1_linear_660_4161)" mask="url(#path-1-inside-1_660_4161)"/>
</g>
<defs>
<linearGradient id="paint0_linear_660_4161" x1="-5.17366e-06" y1="121.532" x2="271.81" y2="32.3737" gradientUnits="userSpaceOnUse">
<stop stop-color="white"/>
<stop offset="1" stop-color="white" stop-opacity="0"/>
</linearGradient>
<linearGradient id="paint1_linear_660_4161" x1="99.2511" y1="81.3906" x2="326.58" y2="261.954" gradientUnits="userSpaceOnUse">
<stop stop-color="#79F0A9"/>
<stop offset="1" stop-color="#79F0A9" stop-opacity="0"/>
</linearGradient>
</defs>
</svg>
