<svg width="413" height="338" viewBox="0 0 413 338" fill="none" xmlns="http://www.w3.org/2000/svg">
<g opacity="0.5">
<path d="M272.299 267.32L271.7 267.846L272.08 268.547L323.634 363.677C330.45 376.254 325.784 391.964 313.215 398.785C306.92 402.186 299.857 402.713 293.499 400.825C287.149 398.939 281.511 394.638 278.102 388.356L227.162 294.359L226.763 293.623L225.969 293.886C200.962 302.172 173.263 303.191 146.082 295.117C75.4198 274.128 35.1559 199.845 56.1459 129.181C77.1351 58.5187 151.426 18.257 222.085 39.2455C292.745 60.2339 333.015 134.525 312.026 205.186C304.607 230.164 290.516 251.303 272.299 267.32ZM95.9955 141.023C81.5449 189.672 109.27 240.824 157.917 255.274C206.566 269.725 257.717 242.002 272.168 193.353C286.618 144.704 258.896 93.55 210.247 79.0994C161.601 64.6495 110.446 92.3741 95.9955 141.023Z" stroke="url(#paint0_linear_660_3972)" stroke-width="2"/>
<path d="M272.299 267.32L271.7 267.846L272.08 268.547L323.634 363.677C330.45 376.254 325.784 391.964 313.215 398.785C306.92 402.186 299.857 402.713 293.499 400.825C287.149 398.939 281.511 394.638 278.102 388.356L227.162 294.359L226.763 293.623L225.969 293.886C200.962 302.172 173.263 303.191 146.082 295.117C75.4198 274.128 35.1559 199.845 56.1459 129.181C77.1351 58.5187 151.426 18.257 222.085 39.2455C292.745 60.2339 333.015 134.525 312.026 205.186C304.607 230.164 290.516 251.303 272.299 267.32ZM95.9955 141.023C81.5449 189.672 109.27 240.824 157.917 255.274C206.566 269.725 257.717 242.002 272.168 193.353C286.618 144.704 258.896 93.55 210.247 79.0994C161.601 64.6495 110.446 92.3741 95.9955 141.023Z" stroke="url(#paint1_linear_660_3972)" stroke-width="2"/>
</g>
<defs>
<linearGradient id="paint0_linear_660_3972" x1="53.3622" y1="135.04" x2="316.231" y2="145.262" gradientUnits="userSpaceOnUse">
<stop stop-color="white"/>
<stop offset="1" stop-color="white" stop-opacity="0"/>
</linearGradient>
<linearGradient id="paint1_linear_660_3972" x1="152.413" y1="115.923" x2="341.775" y2="328.146" gradientUnits="userSpaceOnUse">
<stop stop-color="#79F0A9"/>
<stop offset="1" stop-color="#79F0A9" stop-opacity="0"/>
</linearGradient>
</defs>
</svg>
