<?xml version="1.0" encoding="UTF-8" standalone="no"?>
<!-- Created with Inkscape (http://www.inkscape.org/) -->

<svg
   width="93.662491mm"
   height="66.675003mm"
   viewBox="0 0 93.662491 66.675003"
   version="1.1"
   id="svg5"
   xml:space="preserve"
   xmlns:inkscape="http://www.inkscape.org/namespaces/inkscape"
   xmlns:sodipodi="http://sodipodi.sourceforge.net/DTD/sodipodi-0.dtd"
   xmlns="http://www.w3.org/2000/svg"
   xmlns:svg="http://www.w3.org/2000/svg"><sodipodi:namedview
     id="namedview7"
     pagecolor="#ffffff"
     bordercolor="#000000"
     borderopacity="0.25"
     inkscape:showpageshadow="2"
     inkscape:pageopacity="0.0"
     inkscape:pagecheckerboard="0"
     inkscape:deskcolor="#d1d1d1"
     inkscape:document-units="mm"
     showgrid="false"
     showguides="true"><sodipodi:guide
       position="71.67444,39.564126"
       orientation="-0.28709086,0.95790336"
       id="guide2452"
       inkscape:locked="false" /><sodipodi:guide
       position="51.38154,54.3512"
       orientation="-0.98300294,0.1835898"
       id="guide2454"
       inkscape:locked="false" /><sodipodi:guide
       position="62.23589,13.450779"
       orientation="0.77933477,0.62660778"
       id="guide2456"
       inkscape:locked="false" /><sodipodi:guide
       position="22.593938,41.451838"
       orientation="0.35251302,0.93580691"
       id="guide2458"
       inkscape:locked="false" /><sodipodi:guide
       position="32.819043,14.237326"
       orientation="-0.77952509,0.626371"
       id="guide2460"
       inkscape:locked="false" /></sodipodi:namedview><defs
     id="defs2"><linearGradient
       id="paint0_linear_660_2530"
       x1="154.095"
       y1="10.4937"
       x2="161.67101"
       y2="290.70401"
       gradientUnits="userSpaceOnUse"><stop
         stop-color="white"
         stop-opacity="0.7"
         id="stop2096" /><stop
         offset="0.976841"
         stop-color="white"
         stop-opacity="0"
         id="stop2098" /></linearGradient><linearGradient
       id="paint1_linear_660_2530"
       x1="237.07001"
       y1="8.7721996"
       x2="173.729"
       y2="118.948"
       gradientUnits="userSpaceOnUse"><stop
         stop-color="#26C076"
         id="stop2101" /><stop
         offset="1"
         stop-color="#26C076"
         stop-opacity="0"
         id="stop2103" /></linearGradient><linearGradient
       id="paint2_linear_660_2530"
       x1="171.99899"
       y1="64.500504"
       x2="68.423698"
       y2="222.912"
       gradientUnits="userSpaceOnUse"><stop
         offset="0.131381"
         stop-color="white"
         stop-opacity="0.7"
         id="stop2106" /><stop
         offset="0.976841"
         stop-color="white"
         stop-opacity="0"
         id="stop2108" /></linearGradient><linearGradient
       id="paint3_linear_660_2530"
       x1="175.99899"
       y1="66.000504"
       x2="43.1544"
       y2="187.16901"
       gradientUnits="userSpaceOnUse"><stop
         stop-color="#77EBBE"
         id="stop2111" /><stop
         offset="0.976841"
         stop-color="white"
         stop-opacity="0"
         id="stop2113" /></linearGradient><linearGradient
       id="paint4_linear_660_2530"
       x1="181.672"
       y1="-0.31030399"
       x2="129.209"
       y2="55.853199"
       gradientUnits="userSpaceOnUse"><stop
         stop-color="#82FBB2"
         id="stop2116" /><stop
         offset="0.978513"
         stop-color="#4BA9ED"
         id="stop2118" /></linearGradient><linearGradient
       id="paint5_linear_660_2530"
       x1="272.10199"
       y1="42.393902"
       x2="186.19099"
       y2="134.36501"
       gradientUnits="userSpaceOnUse"><stop
         stop-color="#82FBB2"
         id="stop2121" /><stop
         offset="0.978513"
         stop-color="#4BA9ED"
         id="stop2123" /></linearGradient><linearGradient
       id="paint6_linear_660_2530"
       x1="175.618"
       y1="73.386597"
       x2="113.157"
       y2="118.776"
       gradientUnits="userSpaceOnUse"><stop
         stop-color="#63ECD3"
         id="stop2126" /><stop
         offset="1"
         stop-color="#754EE2"
         id="stop2128" /></linearGradient><linearGradient
       id="paint7_linear_660_2530"
       x1="67.710899"
       y1="145.179"
       x2="80.309502"
       y2="212.366"
       gradientUnits="userSpaceOnUse"><stop
         stop-color="#AF97F2"
         id="stop2131" /><stop
         offset="1"
         stop-color="#503EBB"
         id="stop2133" /></linearGradient><linearGradient
       id="paint8_linear_660_2530"
       x1="255.873"
       y1="100.024"
       x2="191.841"
       y2="221.26601"
       gradientUnits="userSpaceOnUse"><stop
         stop-color="#63ECD3"
         id="stop2136" /><stop
         offset="1"
         stop-color="#835AF7"
         id="stop2138" /></linearGradient><linearGradient
       id="paint9_linear_660_2530"
       x1="55.052299"
       y1="11.0905"
       x2="-5.9607501"
       y2="109.774"
       gradientUnits="userSpaceOnUse"><stop
         stop-color="#AF97F2"
         id="stop2141" /><stop
         offset="1"
         stop-color="#503EBB"
         id="stop2143" /></linearGradient><linearGradient
       id="paint0_linear_660_2529"
       x1="94.322304"
       y1="235.35001"
       x2="485.84698"
       y2="114.731"
       gradientUnits="userSpaceOnUse"><stop
         stop-color="#12123E"
         id="stop2225" /><stop
         offset="1"
         stop-color="#3E3174"
         id="stop2227" /></linearGradient></defs><g
     inkscape:label="Layer 1"
     inkscape:groupmode="layer"
     id="layer1"
     transform="translate(-54.173009,-175.66084)"><g
       style="fill:none"
       id="g274"
       transform="matrix(0.26458333,0,0,0.26458333,28.50663,150.04093)"><g
         style="fill:none"
         id="g2240"
         transform="translate(97.006794,96.830663)"><rect
           y="0.00048828099"
           width="354"
           height="252"
           rx="20"
           fill="url(#paint0_linear_660_2529)"
           id="rect2223"
           x="0"
           style="fill:url(#paint0_linear_660_2529)" /></g><g
         style="fill:none"
         id="g2192"
         transform="translate(131.68287,121.83091)"><circle
           cx="142.998"
           cy="103.998"
           r="86.247704"
           stroke="url(#paint0_linear_660_2530)"
           stroke-width="1.5"
           id="circle2076"
           style="stroke:url(#paint0_linear_660_2530)" /><circle
           cx="142.998"
           cy="103.998"
           r="86.247704"
           stroke="url(#paint1_linear_660_2530)"
           stroke-width="1.5"
           id="circle2078"
           style="stroke:url(#paint1_linear_660_2530)" /><path
           d="m 159.33,42.0284 c 11.606,0 21.014,-9.4083 21.014,-21.014 0,-11.60565 -9.408,-21.013911719 -21.014,-21.013911719 -11.605,0 -21.014,9.408261719 -21.014,21.013911719 0,11.6057 9.409,21.014 21.014,21.014 z"
           fill="url(#paint4_linear_660_2530)"
           id="path2084"
           style="fill:url(#paint4_linear_660_2530)" /><path
           d="m 235.517,111.726 c 19.005,0 34.411,-15.4067 34.411,-34.4117 0,-19.0049 -15.406,-34.4115 -34.411,-34.4115 -19.005,0 -34.412,15.4066 -34.412,34.4115 0,19.005 15.407,34.4117 34.412,34.4117 z"
           fill="url(#paint5_linear_660_2530)"
           id="path2086"
           style="fill:url(#paint5_linear_660_2530)" /><path
           d="m 143.111,124.222 c 11.106,0 20.11,-9.004 20.11,-20.111 0,-11.1067 -9.004,-20.1105 -20.11,-20.1105 -11.107,0 -20.111,9.0038 -20.111,20.1105 0,11.107 9.004,20.111 20.111,20.111 z"
           fill="url(#paint6_linear_660_2530)"
           id="path2088"
           style="fill:url(#paint6_linear_660_2530)" /><path
           d="m 88.7249,193.329 c 11.6061,0 21.0141,-9.408 21.0141,-21.014 0,-11.605 -9.408,-21.014 -21.0141,-21.014 -11.6057,0 -21.014,9.409 -21.014,21.014 0,11.606 9.4083,21.014 21.014,21.014 z"
           fill="url(#paint7_linear_660_2530)"
           id="path2090"
           style="fill:url(#paint7_linear_660_2530)" /><path
           d="m 198.872,202 c 15.056,0 27.261,-12.205 27.261,-27.261 0,-15.056 -12.205,-27.261 -27.261,-27.261 -15.055,0 -27.261,12.205 -27.261,27.261 0,15.056 12.206,27.261 27.261,27.261 z"
           fill="url(#paint8_linear_660_2530)"
           id="path2092"
           style="fill:url(#paint8_linear_660_2530)" /><path
           d="M 26.3606,95.5162 C 40.9189,108.785 63.4775,107.741 76.7468,93.1823 90.016,78.624 88.9711,56.0654 74.4128,42.7961 59.8545,29.5269 37.2959,30.5718 24.0266,45.1301 10.7574,59.6883 11.8023,82.247 26.3606,95.5162 Z"
           fill="url(#paint9_linear_660_2530)"
           id="path2094"
           style="fill:url(#paint9_linear_660_2530)" /></g><g
         id="g2387"><path
           fill-rule="evenodd"
           clip-rule="evenodd"
           d="m 149.67049,76.134546 c -0.229,0.154 -0.54,0.093 -0.694,-0.1362 l -2.509,-3.7353 c -0.154,-0.2292 -0.093,-0.5399 0.136,-0.6939 0.229,-0.154 0.54,-0.093 0.694,0.1362 l 1.836,2.7333 4.23368,-22.911731 -2.733,1.8363 c -0.229,0.154 -0.54,0.093 -0.694,-0.1362 -0.154,-0.2292 -0.093,-0.5399 0.136,-0.6939 l 3.735,-2.5095 c 0.23,-0.1539 0.54,-0.093 0.694,0.1362 l 2.51,3.7353 c 0.154,0.2293 0.093,0.5399 -0.136,0.6939 -0.23,0.154 -0.54,0.093 -0.694,-0.1362 l -1.837,-2.7333 -4.23368,22.911731 2.734,-1.8363 c 0.229,-0.154 0.539,-0.093 0.693,0.1362 0.154,0.2292 0.093,0.5399 -0.136,0.6939 z m -40.05331,72.569404 c -0.269,0.061 -0.537,-0.108 -0.598,-0.377 l -0.996,-4.388 c -0.061,-0.27 0.108,-0.538 0.377,-0.599 0.269,-0.061 0.537,0.108 0.598,0.377 l 0.729,3.212 15.05548,-18.64008 -3.212,0.728 c -0.269,0.061 -0.537,-0.107 -0.598,-0.377 -0.061,-0.269 0.108,-0.537 0.377,-0.598 l 4.389,-0.996 c 0.269,-0.061 0.537,0.108 0.598,0.377 l 0.996,4.389 c 0.061,0.269 -0.108,0.537 -0.377,0.598 -0.27,0.061 -0.537,-0.108 -0.599,-0.377 l -0.728,-3.211 -15.05548,18.64008 3.211,-0.729 c 0.27,-0.061 0.538,0.108 0.599,0.377 0.061,0.269 -0.108,0.537 -0.377,0.598 z m 65.76053,-3.33673 c 0.273,0.036 0.524,-0.157 0.56,-0.431 l 0.585,-4.462 c 0.036,-0.274 -0.157,-0.525 -0.43,-0.561 -0.274,-0.035 -0.525,0.157 -0.561,0.431 l -0.428,3.265 -13.34615,-16.65268 3.265,0.428 c 0.273,0.036 0.524,-0.157 0.56,-0.43 0.036,-0.274 -0.157,-0.525 -0.43,-0.561 l -4.462,-0.585 c -0.274,-0.036 -0.525,0.157 -0.561,0.431 l -0.585,4.461 c -0.036,0.274 0.157,0.525 0.431,0.561 0.274,0.036 0.525,-0.157 0.561,-0.431 l 0.428,-3.265 13.34615,16.65268 -3.265,-0.428 c -0.274,-0.036 -0.525,0.157 -0.561,0.431 -0.036,0.274 0.157,0.525 0.431,0.561 z m -59.1132,-50.76356 c 0.099,0.2581 -0.031,0.5469 -0.289,0.6451 l -4.206,1.5995 c -0.258,0.0982 -0.547,-0.0315 -0.645,-0.2896 -0.098,-0.2581 0.031,-0.5469 0.289,-0.6451 l 3.078,-1.1704 -20.832314,-7.72617 1.1705,3.0779 c 0.0982,0.2581 -0.0315,0.5469 -0.2896,0.645 -0.2581,0.0982 -0.5469,-0.0315 -0.6451,-0.2896 l -1.5995,-4.2061 c -0.0982,-0.2581 0.0315,-0.5469 0.2896,-0.6451 l 4.2061,-1.5995 c 0.2582,-0.0982 0.547,0.0315 0.6451,0.2896 0.0982,0.2581 -0.0315,0.5469 -0.2896,0.6451 l -3.0779,1.1704 20.832714,7.72617 -1.171,-3.0779 c -0.098,-0.2581 0.032,-0.5469 0.29,-0.645 0.258,-0.0982 0.547,0.0315 0.645,0.2896 z m 54.80115,2.904316 c -0.252,-0.114 -0.363,-0.41 -0.25,-0.662 l 1.856,-4.0994 c 0.114,-0.2516 0.41,-0.3632 0.662,-0.2494 0.251,0.1139 0.363,0.4101 0.249,0.6617 l -1.358,3.0001 19.72474,-6.049494 -3,-1.3578 c -0.252,-0.1139 -0.364,-0.4102 -0.25,-0.6617 0.114,-0.2516 0.41,-0.3632 0.662,-0.2494 l 4.1,1.8557 c 0.251,0.1138 0.363,0.4101 0.249,0.6617 l -1.856,4.0996 c -0.114,0.2515 -0.41,0.3632 -0.661,0.2493 -0.252,-0.1139 -0.364,-0.4101 -0.25,-0.6617 l 1.358,-2.9999 -19.72374,6.049694 3,1.357 c 0.251,0.114 0.363,0.411 0.249,0.662 -0.114,0.252 -0.41,0.363 -0.662,0.249 z"
           fill="url(#paint2_linear_660_2530)"
           id="path2080"
           style="fill:url(#paint2_linear_660_2530)"
           transform="translate(131.68287,121.83091)"
           sodipodi:nodetypes="cccsccccscccccccccscccccsccccccccccccccsccccccccccsccccsccccscccccsccccsccccsccccsccccccccccscccccccccccc" /><path
           fill-rule="evenodd"
           clip-rule="evenodd"
           d="m 149.67049,76.134546 c -0.229,0.154 -0.54,0.093 -0.694,-0.1362 l -2.509,-3.7353 c -0.154,-0.2292 -0.093,-0.5399 0.136,-0.6939 0.229,-0.154 0.54,-0.093 0.694,0.1362 l 1.836,2.7333 4.23368,-22.911731 -2.733,1.8363 c -0.229,0.154 -0.54,0.093 -0.694,-0.1362 -0.154,-0.2292 -0.093,-0.5399 0.136,-0.6939 l 3.735,-2.5095 c 0.23,-0.1539 0.54,-0.093 0.694,0.1362 l 2.51,3.7353 c 0.154,0.2293 0.093,0.5399 -0.136,0.6939 -0.23,0.154 -0.54,0.093 -0.694,-0.1362 l -1.837,-2.7333 -4.23368,22.911731 2.734,-1.8363 c 0.229,-0.154 0.539,-0.093 0.693,0.1362 0.154,0.2292 0.093,0.5399 -0.136,0.6939 z m -40.05331,72.569404 c -0.269,0.061 -0.537,-0.108 -0.598,-0.377 l -0.996,-4.388 c -0.061,-0.27 0.108,-0.538 0.377,-0.599 0.269,-0.061 0.537,0.108 0.598,0.377 l 0.729,3.212 15.05548,-18.64008 -3.212,0.728 c -0.269,0.061 -0.537,-0.107 -0.598,-0.377 -0.061,-0.269 0.108,-0.537 0.377,-0.598 l 4.389,-0.996 c 0.269,-0.061 0.537,0.108 0.598,0.377 l 0.996,4.389 c 0.061,0.269 -0.108,0.537 -0.377,0.598 -0.27,0.061 -0.537,-0.108 -0.599,-0.377 l -0.728,-3.211 -15.05548,18.64008 3.211,-0.729 c 0.27,-0.061 0.538,0.108 0.599,0.377 0.061,0.269 -0.108,0.537 -0.377,0.598 z m 65.76053,-3.33673 c 0.273,0.036 0.524,-0.157 0.56,-0.431 l 0.585,-4.462 c 0.036,-0.274 -0.157,-0.525 -0.43,-0.561 -0.274,-0.035 -0.525,0.157 -0.561,0.431 l -0.428,3.265 -13.34615,-16.65268 3.265,0.428 c 0.273,0.036 0.524,-0.157 0.56,-0.43 0.036,-0.274 -0.157,-0.525 -0.43,-0.561 l -4.462,-0.585 c -0.274,-0.036 -0.525,0.157 -0.561,0.431 l -0.585,4.461 c -0.036,0.274 0.157,0.525 0.431,0.561 0.274,0.036 0.525,-0.157 0.561,-0.431 l 0.428,-3.265 13.34615,16.65268 -3.265,-0.428 c -0.274,-0.036 -0.525,0.157 -0.561,0.431 -0.036,0.274 0.157,0.525 0.431,0.561 z m -59.1132,-50.76356 c 0.099,0.2581 -0.031,0.5469 -0.289,0.6451 l -4.206,1.5995 c -0.258,0.0982 -0.547,-0.0315 -0.645,-0.2896 -0.098,-0.2581 0.031,-0.5469 0.289,-0.6451 l 3.078,-1.1704 -20.832314,-7.72617 1.1705,3.0779 c 0.0982,0.2581 -0.0315,0.5469 -0.2896,0.645 -0.2581,0.0982 -0.5469,-0.0315 -0.6451,-0.2896 l -1.5995,-4.2061 c -0.0982,-0.2581 0.0315,-0.5469 0.2896,-0.6451 l 4.2061,-1.5995 c 0.2582,-0.0982 0.547,0.0315 0.6451,0.2896 0.0982,0.2581 -0.0315,0.5469 -0.2896,0.6451 l -3.0779,1.1704 20.832714,7.72617 -1.171,-3.0779 c -0.098,-0.2581 0.032,-0.5469 0.29,-0.645 0.258,-0.0982 0.547,0.0315 0.645,0.2896 z m 54.80116,2.904316 c -0.252,-0.114 -0.363,-0.41 -0.25,-0.662 l 1.856,-4.0994 c 0.114,-0.2516 0.41,-0.3632 0.662,-0.2494 0.251,0.1139 0.363,0.4101 0.249,0.6617 l -1.358,3.0001 19.72473,-6.049494 -3,-1.3578 c -0.252,-0.1139 -0.364,-0.4102 -0.25,-0.6617 0.114,-0.2516 0.41,-0.3632 0.662,-0.2494 l 4.1,1.8557 c 0.251,0.1138 0.363,0.4101 0.249,0.6617 l -1.856,4.0996 c -0.114,0.2515 -0.41,0.3632 -0.661,0.2493 -0.252,-0.1139 -0.364,-0.4101 -0.25,-0.6617 l 1.358,-2.9999 -19.72373,6.049694 3,1.357 c 0.251,0.114 0.363,0.411 0.249,0.662 -0.114,0.252 -0.41,0.363 -0.662,0.249 z"
           fill="url(#paint3_linear_660_2530)"
           id="path2082"
           style="fill:url(#paint3_linear_660_2530)"
           transform="translate(131.68287,121.83091)"
           sodipodi:nodetypes="cccsccccscccccccccscccccsccccccccccccccsccccccccccsccccsccccscccccsccccsccccsccccsccccccccccscccccccccccc" /></g></g></g></svg>
