<?xml version="1.0" encoding="UTF-8" standalone="no"?>
<!-- Created with Inkscape (http://www.inkscape.org/) -->

<svg
   width="76.729164mm"
   height="52.652084mm"
   viewBox="0 0 76.729164 52.652084"
   version="1.1"
   id="svg5"
   xml:space="preserve"
   xmlns:inkscape="http://www.inkscape.org/namespaces/inkscape"
   xmlns:sodipodi="http://sodipodi.sourceforge.net/DTD/sodipodi-0.dtd"
   xmlns="http://www.w3.org/2000/svg"
   xmlns:svg="http://www.w3.org/2000/svg"><sodipodi:namedview
     id="namedview7"
     pagecolor="#ffffff"
     bordercolor="#000000"
     borderopacity="0.25"
     inkscape:showpageshadow="2"
     inkscape:pageopacity="0.0"
     inkscape:pagecheckerboard="0"
     inkscape:deskcolor="#d1d1d1"
     inkscape:document-units="mm"
     showgrid="false" /><defs
     id="defs2"><linearGradient
       id="paint0_linear_660_2433"
       x1="140.381"
       y1="-5.3506699"
       x2="146.668"
       y2="158.246"
       gradientUnits="userSpaceOnUse"><stop
         stop-color="white"
         stop-opacity="0.7"
         id="stop177" /><stop
         offset="0.976841"
         stop-color="white"
         stop-opacity="0"
         id="stop179" /></linearGradient><linearGradient
       id="paint1_linear_660_2433"
       x1="259.125"
       y1="-6.76648"
       x2="223.214"
       y2="101.926"
       gradientUnits="userSpaceOnUse"><stop
         stop-color="#26C076"
         id="stop182" /><stop
         offset="1"
         stop-color="#26C076"
         stop-opacity="0"
         id="stop184" /></linearGradient><linearGradient
       id="paint2_linear_660_2433"
       x1="164.271"
       y1="65.2761"
       x2="130.422"
       y2="130.64999"
       gradientUnits="userSpaceOnUse"><stop
         stop-color="#63ECD3"
         id="stop187" /><stop
         offset="1"
         stop-color="#835AF7"
         id="stop189" /></linearGradient><linearGradient
       id="paint3_linear_660_2433"
       x1="79.108101"
       y1="218.30701"
       x2="154.754"
       y2="132.55099"
       gradientUnits="userSpaceOnUse"><stop
         stop-color="#AF97F2"
         id="stop192" /><stop
         offset="1"
         stop-color="#503EBB"
         id="stop194" /></linearGradient><linearGradient
       id="paint4_linear_660_2433"
       x1="157.35201"
       y1="210.526"
       x2="155.00101"
       y2="111.217"
       gradientUnits="userSpaceOnUse"><stop
         stop-color="#63ECD3"
         id="stop197" /><stop
         offset="1"
         stop-color="#754EE2"
         id="stop199" /></linearGradient><linearGradient
       id="paint5_linear_660_2433"
       x1="111.098"
       y1="-9.9425602"
       x2="87.764999"
       y2="116.144"
       gradientUnits="userSpaceOnUse"><stop
         stop-color="#6A56E7"
         id="stop202" /><stop
         offset="1"
         stop-color="#AB8DFF"
         id="stop204" /></linearGradient><linearGradient
       id="paint6_linear_660_2433"
       x1="173.34801"
       y1="154.761"
       x2="194.478"
       y2="43.5116"
       gradientUnits="userSpaceOnUse"><stop
         stop-color="#63ECD3"
         id="stop207" /><stop
         offset="1"
         stop-color="#835AF7"
         id="stop209" /></linearGradient><linearGradient
       id="paint7_linear_660_2433"
       x1="-2.7764399"
       y1="-0.239502"
       x2="142.897"
       y2="-50.5033"
       gradientUnits="userSpaceOnUse"><stop
         stop-color="#84FFD3"
         id="stop212" /><stop
         offset="1"
         stop-color="#937AF7"
         id="stop214" /></linearGradient><linearGradient
       id="paint0_linear_660_2428"
       x1="77.269699"
       y1="185.85201"
       x2="395.90601"
       y2="84.017601"
       gradientUnits="userSpaceOnUse"><stop
         stop-color="#12123E"
         id="stop259" /><stop
         offset="1"
         stop-color="#3E3174"
         id="stop261" /></linearGradient></defs><g
     inkscape:label="Layer 1"
     inkscape:groupmode="layer"
     id="layer1"
     transform="translate(-28.506631,-150.04106)"><g
       style="fill:none"
       id="g274"
       transform="matrix(0.26458333,0,0,0.26458333,28.50663,150.04093)"><rect
         y="0.00048828099"
         width="290"
         height="199"
         rx="20"
         fill="url(#paint0_linear_660_2428)"
         id="rect257"
         x="0"
         style="fill:url(#paint0_linear_660_2428)"
         inkscape:export-filename="emulation.svg"
         inkscape:export-xdpi="96"
         inkscape:export-ydpi="96" /><g
         style="fill:none"
         id="g255"
         transform="translate(20.5,15.000488)"><path
           d="m 62.1784,58.5005 1.0461,0.4818 0.0176,-1.1516 C 63.7244,26.2157 89.2338,0.750488 120.621,0.750488 c 26.724,0 49.189,18.459212 55.573,43.458512 l 0.221,0.8647 0.814,-0.3663 c 6.274,-2.8244 13.22,-4.3981 20.534,-4.3981 27.874,0 50.487,22.8336 50.487,51.0177 0,28.185 -22.108,50.505 -49.557,51.005 l -0.668,0.013 H 43.535 l 0.0016,-0.005 -0.9963,-0.038 C 19.3219,141.427 0.75,122.141 0.75,98.4491 c 0,-24.2502 19.455,-43.8934 43.4362,-43.8934 6.4206,0 12.5077,1.4187 17.9922,3.9448 z"
           stroke="url(#paint0_linear_660_2433)"
           stroke-width="1.5"
           id="path161"
           style="stroke:url(#paint0_linear_660_2433)" /><path
           d="m 62.1784,58.5005 1.0461,0.4818 0.0176,-1.1516 C 63.7244,26.2157 89.2338,0.750488 120.621,0.750488 c 26.724,0 49.189,18.459212 55.573,43.458512 l 0.221,0.8647 0.814,-0.3663 c 6.274,-2.8244 13.22,-4.3981 20.534,-4.3981 27.874,0 50.487,22.8336 50.487,51.0177 0,28.185 -22.108,50.505 -49.557,51.005 l -0.668,0.013 H 43.535 l 0.0016,-0.005 -0.9963,-0.038 C 19.3219,141.427 0.75,122.141 0.75,98.4491 c 0,-24.2502 19.455,-43.8934 43.4362,-43.8934 6.4206,0 12.5077,1.4187 17.9922,3.9448 z"
           stroke="url(#paint1_linear_660_2433)"
           stroke-width="1.5"
           id="path163"
           style="stroke:url(#paint1_linear_660_2433)" /><path
           fill-rule="evenodd"
           clip-rule="evenodd"
           d="m 91.6496,65.1213 c -10.5067,0 -19.0246,8.4531 -19.0246,18.8817 0,8.8797 6.1761,16.324 14.4969,18.34 L 134.875,89.9978 v -0.0813 l 0.126,0.0488 0.189,-0.0488 v 0.122 l 29.943,11.6105 c 8.564,-2.9761 14.7,-11.0199 14.7,-20.6583 0,-12.0923 -9.877,-21.8948 -22.06,-21.8948 -3.196,0 -6.232,0.6756 -8.974,1.8881 -2.783,-10.7084 -12.581,-18.6193 -24.24,-18.6193 -13.694,0 -24.8173,10.9128 -25.0276,24.4542 -2.4024,-1.087 -5.0693,-1.6976 -7.8818,-1.6976 z"
           fill="url(#paint2_linear_660_2433)"
           id="path165"
           style="fill:url(#paint2_linear_660_2433)" /><path
           d="M 68.3008,116.719 135.19,99.4272 v 79.5508 c 0,1.241 -0.321,2.431 -0.891,3.309 -0.57,0.878 -1.343,1.371 -2.15,1.371 H 71.3412 c -0.8064,0 -1.5797,-0.493 -2.1499,-1.371 -0.5702,-0.878 -0.8905,-2.068 -0.8905,-3.309 z"
           fill="url(#paint3_linear_660_2433)"
           id="path167"
           style="fill:url(#paint3_linear_660_2433)" /><path
           d="m 134.84,99.4272 44.592,17.2918 v 62.259 c 0,1.241 -0.522,2.431 -1.451,3.309 -0.929,0.878 -2.189,1.371 -3.503,1.371 H 134.84 Z"
           fill="url(#paint4_linear_660_2433)"
           id="path169"
           style="fill:url(#paint4_linear_660_2433)" /><path
           d="M 66.5723,117.151 134.874,99.4272 126.229,126.662 56.1973,142.224 Z"
           fill="url(#paint5_linear_660_2433)"
           id="path171"
           style="fill:url(#paint5_linear_660_2433)" /><path
           d="m 181.129,116.719 -46.255,-17.2918 8.646,27.2348 47.984,15.13 z"
           fill="url(#paint6_linear_660_2433)"
           id="path173"
           style="fill:url(#paint6_linear_660_2433)" /><rect
           width="165"
           height="6"
           rx="2"
           transform="matrix(-1,0,0,1,208,178)"
           fill="url(#paint7_linear_660_2433)"
           id="rect175"
           x="0"
           y="0"
           style="fill:url(#paint7_linear_660_2433)" /></g></g></g></svg>
