<svg width="288" height="197" viewBox="0 0 288 197" fill="none" xmlns="http://www.w3.org/2000/svg">
<path d="M72.071 67.3299L72.7684 67.6511L72.7801 66.8834C73.341 30.1197 103.006 0.500977 139.513 0.500977C170.597 0.500977 196.723 21.9715 204.147 51.0428L204.294 51.6193L204.837 51.3751C212.139 48.0875 220.225 46.2558 228.737 46.2558C261.184 46.2558 287.5 72.8338 287.5 105.632C287.5 138.43 261.77 164.411 229.821 164.993L229.144 165.006L229.144 165.007H49.8456L49.8536 164.983L49.1894 164.958C22.1345 163.938 0.5 141.467 0.5 113.869C0.5 85.6214 23.1632 62.7335 51.1069 62.7335C58.5879 62.7335 65.6807 64.3867 72.071 67.3299Z" stroke="url(#paint0_linear_324_833)"/>
<path d="M72.071 67.3299L72.7684 67.6511L72.7801 66.8834C73.341 30.1197 103.006 0.500977 139.513 0.500977C170.597 0.500977 196.723 21.9715 204.147 51.0428L204.294 51.6193L204.837 51.3751C212.139 48.0875 220.225 46.2558 228.737 46.2558C261.184 46.2558 287.5 72.8338 287.5 105.632C287.5 138.43 261.77 164.411 229.821 164.993L229.144 165.006L229.144 165.007H49.8456L49.8536 164.983L49.1894 164.958C22.1345 163.938 0.5 141.467 0.5 113.869C0.5 85.6214 23.1632 62.7335 51.1069 62.7335C58.5879 62.7335 65.6807 64.3867 72.071 67.3299Z" stroke="url(#paint1_linear_324_833)"/>
<path fill-rule="evenodd" clip-rule="evenodd" d="M107.695 110.177C107.695 122.939 97.2077 133.284 84.2712 133.284C71.3347 133.284 60.8476 122.939 60.8476 110.177C60.8476 97.4157 71.3347 87.0703 84.2712 87.0703C97.2077 87.0703 107.695 97.4157 107.695 110.177ZM67.8135 139.615H100.729C107.779 139.623 114.537 142.419 119.522 147.388C124.507 152.357 127.311 159.094 127.32 166.122L127.941 193.313C127.941 194.188 127.592 195.028 126.971 195.647C126.35 196.266 125.508 196.614 124.63 196.614H45.1551C44.2769 196.614 43.4346 196.266 42.8136 195.647C42.1926 195.028 41.8437 194.188 41.8437 193.313L41.2227 166.122C41.2314 159.094 44.0358 152.357 49.0206 147.388C54.0055 142.419 60.7639 139.623 67.8135 139.615Z" fill="url(#paint2_linear_324_833)"/>
<path fill-rule="evenodd" clip-rule="evenodd" d="M107.695 110.177C107.695 122.939 97.2077 133.284 84.2712 133.284C71.3347 133.284 60.8476 122.939 60.8476 110.177C60.8476 97.4157 71.3347 87.0703 84.2712 87.0703C97.2077 87.0703 107.695 97.4157 107.695 110.177ZM67.8135 139.615H100.729C107.779 139.623 114.537 142.419 119.522 147.388C124.507 152.357 127.311 159.094 127.32 166.122L127.941 193.313C127.941 194.188 127.592 195.028 126.971 195.647C126.35 196.266 125.508 196.614 124.63 196.614H45.1551C44.2769 196.614 43.4346 196.266 42.8136 195.647C42.1926 195.028 41.8437 194.188 41.8437 193.313L41.2227 166.122C41.2314 159.094 44.0358 152.357 49.0206 147.388C54.0055 142.419 60.7639 139.623 67.8135 139.615Z" fill="url(#paint3_linear_324_833)"/>
<path fill-rule="evenodd" clip-rule="evenodd" d="M181.733 110.177C181.733 122.939 192.221 133.284 205.157 133.284C218.093 133.284 228.581 122.939 228.581 110.177C228.581 97.4157 218.093 87.0703 205.157 87.0703C192.221 87.0703 181.733 97.4157 181.733 110.177ZM221.615 139.615H188.699C181.65 139.623 174.891 142.419 169.906 147.388C164.921 152.357 162.117 159.094 162.108 166.122L161.487 193.313C161.487 194.188 161.836 195.028 162.457 195.647C163.078 196.266 163.921 196.614 164.799 196.614H244.273C245.152 196.614 245.994 196.266 246.615 195.647C247.236 195.028 247.585 194.188 247.585 193.313L248.206 166.122C248.197 159.094 245.393 152.357 240.408 147.388C235.423 142.419 228.665 139.623 221.615 139.615Z" fill="url(#paint4_linear_324_833)"/>
<path fill-rule="evenodd" clip-rule="evenodd" d="M181.733 110.177C181.733 122.939 192.221 133.284 205.157 133.284C218.093 133.284 228.581 122.939 228.581 110.177C228.581 97.4157 218.093 87.0703 205.157 87.0703C192.221 87.0703 181.733 97.4157 181.733 110.177ZM221.615 139.615H188.699C181.65 139.623 174.891 142.419 169.906 147.388C164.921 152.357 162.117 159.094 162.108 166.122L161.487 193.313C161.487 194.188 161.836 195.028 162.457 195.647C163.078 196.266 163.921 196.614 164.799 196.614H244.273C245.152 196.614 245.994 196.266 246.615 195.647C247.236 195.028 247.585 194.188 247.585 193.313L248.206 166.122C248.197 159.094 245.393 152.357 240.408 147.388C235.423 142.419 228.665 139.623 221.615 139.615Z" fill="url(#paint5_linear_324_833)"/>
<path fill-rule="evenodd" clip-rule="evenodd" d="M168.476 94.1582C168.476 107.56 157.462 118.425 143.877 118.425C130.291 118.425 119.278 107.56 119.278 94.1582C119.278 80.7561 130.291 69.8916 143.877 69.8916C157.462 69.8916 168.476 80.7561 168.476 94.1582ZM126.593 125.205H161.16C168.564 125.214 175.661 128.15 180.896 133.369C186.131 138.587 189.076 145.662 189.086 153.042V192.947C189.086 193.866 188.719 194.748 188.067 195.398C187.415 196.048 186.53 196.413 185.608 196.413H102.145C101.223 196.413 100.338 196.048 99.6863 195.398C99.0341 194.748 98.6677 193.866 98.6677 192.947V153.042C98.6769 145.662 101.622 138.587 106.857 133.369C112.092 128.15 119.19 125.214 126.593 125.205Z" fill="url(#paint6_linear_324_833)"/>
<defs>
<linearGradient id="paint0_linear_324_833" x1="162.369" y1="-6.18832" x2="179.446" y2="158.026" gradientUnits="userSpaceOnUse">
<stop stop-color="white" stop-opacity="0.7"/>
<stop offset="0.976841" stop-color="white" stop-opacity="0"/>
</linearGradient>
<linearGradient id="paint1_linear_324_833" x1="299.71" y1="-7.82587" x2="258.176" y2="117.891" gradientUnits="userSpaceOnUse">
<stop stop-color="#26C076"/>
<stop offset="1" stop-color="#26C076" stop-opacity="0"/>
</linearGradient>
<linearGradient id="paint2_linear_324_833" x1="41.2227" y1="79.5778" x2="73.8447" y2="210.617" gradientUnits="userSpaceOnUse">
<stop stop-color="#AF97F2"/>
<stop offset="0.961244" stop-color="#503EBB"/>
</linearGradient>
<linearGradient id="paint3_linear_324_833" x1="67.5" y1="179.501" x2="96.0499" y2="201.666" gradientUnits="userSpaceOnUse">
<stop stop-color="#835AF7" stop-opacity="0"/>
<stop offset="1" stop-color="#4735B8"/>
</linearGradient>
<linearGradient id="paint4_linear_324_833" x1="247.852" y1="73.9278" x2="212.155" y2="198.64" gradientUnits="userSpaceOnUse">
<stop stop-color="#63ECD3"/>
<stop offset="1" stop-color="#754EE2"/>
</linearGradient>
<linearGradient id="paint5_linear_324_833" x1="216.5" y1="142.001" x2="172.5" y2="168.501" gradientUnits="userSpaceOnUse">
<stop stop-color="#835AF7" stop-opacity="0"/>
<stop offset="1" stop-color="#503EBB"/>
</linearGradient>
<linearGradient id="paint6_linear_324_833" x1="141.043" y1="75.8203" x2="110.826" y2="220.01" gradientUnits="userSpaceOnUse">
<stop stop-color="#63ECD3"/>
<stop offset="1" stop-color="#835AF7"/>
</linearGradient>
</defs>
</svg>
