<?xml version="1.0" encoding="UTF-8" standalone="no"?>
<!-- Created with Inkscape (http://www.inkscape.org/) -->

<svg
   width="76.729164mm"
   height="52.652084mm"
   viewBox="0 0 76.729164 52.652084"
   version="1.1"
   id="svg5"
   xml:space="preserve"
   xmlns:inkscape="http://www.inkscape.org/namespaces/inkscape"
   xmlns:sodipodi="http://sodipodi.sourceforge.net/DTD/sodipodi-0.dtd"
   xmlns="http://www.w3.org/2000/svg"
   xmlns:svg="http://www.w3.org/2000/svg"><sodipodi:namedview
     id="namedview7"
     pagecolor="#ffffff"
     bordercolor="#000000"
     borderopacity="0.25"
     inkscape:showpageshadow="2"
     inkscape:pageopacity="0.0"
     inkscape:pagecheckerboard="0"
     inkscape:deskcolor="#d1d1d1"
     inkscape:document-units="mm"
     showgrid="false" /><defs
     id="defs2"><linearGradient
       id="paint0_linear_660_2433"
       x1="140.381"
       y1="-5.3506699"
       x2="146.668"
       y2="158.246"
       gradientUnits="userSpaceOnUse"><stop
         stop-color="white"
         stop-opacity="0.7"
         id="stop177" /><stop
         offset="0.976841"
         stop-color="white"
         stop-opacity="0"
         id="stop179" /></linearGradient><linearGradient
       id="paint1_linear_660_2433"
       x1="259.125"
       y1="-6.76648"
       x2="223.214"
       y2="101.926"
       gradientUnits="userSpaceOnUse"><stop
         stop-color="#26C076"
         id="stop182" /><stop
         offset="1"
         stop-color="#26C076"
         stop-opacity="0"
         id="stop184" /></linearGradient><linearGradient
       id="paint2_linear_660_2433"
       x1="164.271"
       y1="65.2761"
       x2="130.422"
       y2="130.64999"
       gradientUnits="userSpaceOnUse"><stop
         stop-color="#63ECD3"
         id="stop187" /><stop
         offset="1"
         stop-color="#835AF7"
         id="stop189" /></linearGradient><linearGradient
       id="paint3_linear_660_2433"
       x1="79.108101"
       y1="218.30701"
       x2="154.754"
       y2="132.55099"
       gradientUnits="userSpaceOnUse"><stop
         stop-color="#AF97F2"
         id="stop192" /><stop
         offset="1"
         stop-color="#503EBB"
         id="stop194" /></linearGradient><linearGradient
       id="paint4_linear_660_2433"
       x1="157.35201"
       y1="210.526"
       x2="155.00101"
       y2="111.217"
       gradientUnits="userSpaceOnUse"><stop
         stop-color="#63ECD3"
         id="stop197" /><stop
         offset="1"
         stop-color="#754EE2"
         id="stop199" /></linearGradient><linearGradient
       id="paint5_linear_660_2433"
       x1="111.098"
       y1="-9.9425602"
       x2="87.764999"
       y2="116.144"
       gradientUnits="userSpaceOnUse"><stop
         stop-color="#6A56E7"
         id="stop202" /><stop
         offset="1"
         stop-color="#AB8DFF"
         id="stop204" /></linearGradient><linearGradient
       id="paint6_linear_660_2433"
       x1="173.34801"
       y1="154.761"
       x2="194.478"
       y2="43.5116"
       gradientUnits="userSpaceOnUse"><stop
         stop-color="#63ECD3"
         id="stop207" /><stop
         offset="1"
         stop-color="#835AF7"
         id="stop209" /></linearGradient><linearGradient
       id="paint7_linear_660_2433"
       x1="-2.7764399"
       y1="-0.239502"
       x2="142.897"
       y2="-50.5033"
       gradientUnits="userSpaceOnUse"><stop
         stop-color="#84FFD3"
         id="stop212" /><stop
         offset="1"
         stop-color="#937AF7"
         id="stop214" /></linearGradient><linearGradient
       id="paint0_linear_660_2428"
       x1="77.269699"
       y1="185.85201"
       x2="395.90601"
       y2="84.017601"
       gradientUnits="userSpaceOnUse"
       gradientTransform="translate(46.187163,53.254471)"><stop
         stop-color="#12123E"
         id="stop259" /><stop
         offset="1"
         stop-color="#3E3174"
         id="stop261" /></linearGradient><linearGradient
       id="paint0_linear_660_2452"
       x1="82.9972"
       y1="8.7171898"
       x2="141.46899"
       y2="111.114"
       gradientUnits="userSpaceOnUse"><stop
         stop-color="white"
         stop-opacity="0.7"
         id="stop1067" /><stop
         offset="0.976841"
         stop-color="white"
         stop-opacity="0"
         id="stop1069" /></linearGradient><linearGradient
       id="paint1_linear_660_2452"
       x1="121.33"
       y1="7.9218798"
       x2="92.067802"
       y2="58.8204"
       gradientUnits="userSpaceOnUse"><stop
         stop-color="#26C076"
         id="stop1072" /><stop
         offset="1"
         stop-color="#26C076"
         stop-opacity="0"
         id="stop1074" /></linearGradient><linearGradient
       id="paint2_linear_660_2452"
       x1="142.241"
       y1="8.7171898"
       x2="83.769096"
       y2="111.114"
       gradientUnits="userSpaceOnUse"><stop
         stop-color="white"
         stop-opacity="0.7"
         id="stop1077" /><stop
         offset="0.976841"
         stop-color="white"
         stop-opacity="0"
         id="stop1079" /></linearGradient><linearGradient
       id="paint3_linear_660_2452"
       x1="167.00101"
       y1="12.0009"
       x2="147.62199"
       y2="40.859299"
       gradientUnits="userSpaceOnUse"><stop
         stop-color="#26C076"
         id="stop1082" /><stop
         offset="1"
         stop-color="#26C076"
         stop-opacity="0"
         id="stop1084" /></linearGradient><linearGradient
       id="paint4_linear_660_2452"
       x1="146.32001"
       y1="123.211"
       x2="115.261"
       y2="9.4591503"
       gradientUnits="userSpaceOnUse"><stop
         stop-color="white"
         stop-opacity="0.7"
         id="stop1087" /><stop
         offset="0.976841"
         stop-color="white"
         stop-opacity="0"
         id="stop1089" /></linearGradient><linearGradient
       id="paint5_linear_660_2452"
       x1="173.98801"
       y1="96.667702"
       x2="117.306"
       y2="81.368301"
       gradientUnits="userSpaceOnUse"><stop
         stop-color="#26C076"
         id="stop1092" /><stop
         offset="1"
         stop-color="#26C076"
         stop-opacity="0"
         id="stop1094" /></linearGradient><linearGradient
       id="paint6_linear_660_2452"
       x1="-2.9396101e-06"
       y1="51.4953"
       x2="28.3741"
       y2="183.315"
       gradientUnits="userSpaceOnUse"><stop
         stop-color="#AF97F2"
         id="stop1097" /><stop
         offset="1"
         stop-color="#503EBB"
         id="stop1099" /></linearGradient><linearGradient
       id="paint7_linear_660_2452"
       x1="224.70399"
       y1="53.636501"
       x2="199.692"
       y2="149.79601"
       gradientUnits="userSpaceOnUse"><stop
         stop-color="#63ECD3"
         id="stop1102" /><stop
         offset="1"
         stop-color="#754EE2"
         id="stop1104" /></linearGradient><linearGradient
       id="paint8_linear_660_2452"
       x1="149.99899"
       y1="9.5004597"
       x2="92.406998"
       y2="73.871803"
       gradientUnits="userSpaceOnUse"><stop
         stop-color="#82FBB2"
         id="stop1107" /><stop
         offset="0.978513"
         stop-color="#4BA9ED"
         id="stop1109" /></linearGradient></defs><g
     inkscape:label="Layer 1"
     inkscape:groupmode="layer"
     id="layer1"
     transform="translate(-40.726983,-164.13131)"><g
       style="fill:none"
       id="g274"
       transform="matrix(0.26458333,0,0,0.26458333,28.50663,150.04093)"><rect
         y="53.254959"
         width="290"
         height="199"
         rx="20"
         fill="url(#paint0_linear_660_2428)"
         id="rect257"
         x="46.187164"
         style="fill:url(#paint0_linear_660_2428)"
         inkscape:export-filename="emulation.svg"
         inkscape:export-xdpi="96"
         inkscape:export-ydpi="96" /><g
         style="fill:none"
         id="g255"
         transform="translate(315.61988,268.37843)"><path
           d="m 62.1784,58.5005 1.0461,0.4818 0.0176,-1.1516 C 63.7244,26.2157 89.2338,0.750488 120.621,0.750488 c 26.724,0 49.189,18.459212 55.573,43.458512 l 0.221,0.8647 0.814,-0.3663 c 6.274,-2.8244 13.22,-4.3981 20.534,-4.3981 27.874,0 50.487,22.8336 50.487,51.0177 0,28.185 -22.108,50.505 -49.557,51.005 l -0.668,0.013 H 43.535 l 0.0016,-0.005 -0.9963,-0.038 C 19.3219,141.427 0.75,122.141 0.75,98.4491 c 0,-24.2502 19.455,-43.8934 43.4362,-43.8934 6.4206,0 12.5077,1.4187 17.9922,3.9448 z"
           stroke="url(#paint0_linear_660_2433)"
           stroke-width="1.5"
           id="path161"
           style="stroke:url(#paint0_linear_660_2433)" /><path
           d="m 62.1784,58.5005 1.0461,0.4818 0.0176,-1.1516 C 63.7244,26.2157 89.2338,0.750488 120.621,0.750488 c 26.724,0 49.189,18.459212 55.573,43.458512 l 0.221,0.8647 0.814,-0.3663 c 6.274,-2.8244 13.22,-4.3981 20.534,-4.3981 27.874,0 50.487,22.8336 50.487,51.0177 0,28.185 -22.108,50.505 -49.557,51.005 l -0.668,0.013 H 43.535 l 0.0016,-0.005 -0.9963,-0.038 C 19.3219,141.427 0.75,122.141 0.75,98.4491 c 0,-24.2502 19.455,-43.8934 43.4362,-43.8934 6.4206,0 12.5077,1.4187 17.9922,3.9448 z"
           stroke="url(#paint1_linear_660_2433)"
           stroke-width="1.5"
           id="path163"
           style="stroke:url(#paint1_linear_660_2433)" /><path
           fill-rule="evenodd"
           clip-rule="evenodd"
           d="m 91.6496,65.1213 c -10.5067,0 -19.0246,8.4531 -19.0246,18.8817 0,8.8797 6.1761,16.324 14.4969,18.34 L 134.875,89.9978 v -0.0813 l 0.126,0.0488 0.189,-0.0488 v 0.122 l 29.943,11.6105 c 8.564,-2.9761 14.7,-11.0199 14.7,-20.6583 0,-12.0923 -9.877,-21.8948 -22.06,-21.8948 -3.196,0 -6.232,0.6756 -8.974,1.8881 -2.783,-10.7084 -12.581,-18.6193 -24.24,-18.6193 -13.694,0 -24.8173,10.9128 -25.0276,24.4542 -2.4024,-1.087 -5.0693,-1.6976 -7.8818,-1.6976 z"
           fill="url(#paint2_linear_660_2433)"
           id="path165"
           style="fill:url(#paint2_linear_660_2433)" /><path
           d="M 68.3008,116.719 135.19,99.4272 v 79.5508 c 0,1.241 -0.321,2.431 -0.891,3.309 -0.57,0.878 -1.343,1.371 -2.15,1.371 H 71.3412 c -0.8064,0 -1.5797,-0.493 -2.1499,-1.371 -0.5702,-0.878 -0.8905,-2.068 -0.8905,-3.309 z"
           fill="url(#paint3_linear_660_2433)"
           id="path167"
           style="fill:url(#paint3_linear_660_2433)" /><path
           d="m 134.84,99.4272 44.592,17.2918 v 62.259 c 0,1.241 -0.522,2.431 -1.451,3.309 -0.929,0.878 -2.189,1.371 -3.503,1.371 H 134.84 Z"
           fill="url(#paint4_linear_660_2433)"
           id="path169"
           style="fill:url(#paint4_linear_660_2433)" /><path
           d="M 66.5723,117.151 134.874,99.4272 126.229,126.662 56.1973,142.224 Z"
           fill="url(#paint5_linear_660_2433)"
           id="path171"
           style="fill:url(#paint5_linear_660_2433)" /><path
           d="m 181.129,116.719 -46.255,-17.2918 8.646,27.2348 47.984,15.13 z"
           fill="url(#paint6_linear_660_2433)"
           id="path173"
           style="fill:url(#paint6_linear_660_2433)" /><rect
           width="165"
           height="6"
           rx="2"
           transform="matrix(-1,0,0,1,208,178)"
           fill="url(#paint7_linear_660_2433)"
           id="rect175"
           x="0"
           y="0"
           style="fill:url(#paint7_linear_660_2433)" /></g><g
         style="fill:none"
         id="g1154"
         transform="translate(78.687164,79.262215)"><path
           d="m 37.6797,51.9139 c 0,-22.1967 17.994,-40.1908 40.1908,-40.1908"
           stroke="url(#paint0_linear_660_2452)"
           stroke-width="1.5"
           id="path1049"
           style="stroke:url(#paint0_linear_660_2452)" /><path
           d="m 37.6797,51.9139 c 0,-22.1967 17.994,-40.1908 40.1908,-40.1908"
           stroke="url(#paint1_linear_660_2452)"
           stroke-width="1.5"
           id="path1051"
           style="stroke:url(#paint1_linear_660_2452)" /><path
           d="m 187.559,51.9139 c 0,-22.1967 -17.994,-40.1908 -40.191,-40.1908"
           stroke="url(#paint2_linear_660_2452)"
           stroke-width="1.5"
           id="path1053"
           style="stroke:url(#paint2_linear_660_2452)" /><path
           d="m 187.559,51.9139 c 0,-22.1967 -17.994,-40.1908 -40.191,-40.1908"
           stroke="url(#paint3_linear_660_2452)"
           stroke-width="1.5"
           id="path1055"
           style="stroke:url(#paint3_linear_660_2452)" /><path
           d="m 83.7312,124.71 c 15.6955,15.696 41.1428,15.696 56.8388,0"
           stroke="url(#paint4_linear_660_2452)"
           stroke-width="1.5"
           id="path1057"
           style="stroke:url(#paint4_linear_660_2452)" /><path
           d="m 83.7312,124.71 c 15.6955,15.696 41.1428,15.696 56.8388,0"
           stroke="url(#paint5_linear_660_2452)"
           stroke-width="1.5"
           id="path1059"
           style="stroke:url(#paint5_linear_660_2452)" /><path
           fill-rule="evenodd"
           clip-rule="evenodd"
           d="m 55.6571,82.9839 c 0,10.6855 -8.7809,19.3481 -19.6127,19.3481 -10.8318,0 -19.6128,-8.6626 -19.6128,-19.3481 0,-10.6854 8.781,-19.3477 19.6128,-19.3477 10.8318,0 19.6127,8.6623 19.6127,19.3477 z M 22.2647,107.632 h 27.5606 c 5.9028,0.007 11.5616,2.348 15.7355,6.509 4.1738,4.161 6.5219,9.802 6.5293,15.686 l 0.52,14.394 c 0,0.733 -0.2922,1.436 -0.8121,1.954 -0.52,0.519 -1.2253,0.81 -1.9606,0.81 H 3.29268 c -0.73537,0 -1.44061,-0.291 -1.9606,-0.81 -0.519976,-0.518 -0.812099,-1.221 -0.812099,-1.954 L 0,129.827 c 0.00733714,-5.884 2.35544,-11.525 6.5293,-15.686 4.1739,-4.161 9.8327,-6.502 15.7354,-6.509 z"
           fill="url(#paint6_linear_660_2452)"
           id="path1061"
           style="fill:url(#paint6_linear_660_2452)" /><path
           fill-rule="evenodd"
           clip-rule="evenodd"
           d="m 169.343,82.9839 c 0,10.6855 8.781,19.3481 19.613,19.3481 10.831,0 19.612,-8.6626 19.612,-19.3481 0,-10.6854 -8.781,-19.3477 -19.612,-19.3477 -10.832,0 -19.613,8.6623 -19.613,19.3477 z m 33.392,24.6481 h -27.56 c -5.903,0.007 -11.562,2.348 -15.736,6.509 -4.174,4.161 -6.522,9.802 -6.529,15.686 l -0.52,14.394 c 0,0.733 0.292,1.436 0.812,1.954 0.52,0.519 1.225,0.81 1.961,0.81 h 66.544 c 0.736,0 1.441,-0.291 1.961,-0.81 0.52,-0.518 0.812,-1.221 0.812,-1.954 L 225,129.827 c -0.007,-5.884 -2.355,-11.525 -6.529,-15.686 -4.174,-4.161 -9.833,-6.502 -15.736,-6.509 z"
           fill="url(#paint7_linear_660_2452)"
           id="path1063"
           style="fill:url(#paint7_linear_660_2452)" /><path
           fill-rule="evenodd"
           clip-rule="evenodd"
           d="m 132.969,20.3191 c 0,11.2216 -9.221,20.3186 -20.597,20.3186 -11.375,0 -20.5966,-9.097 -20.5966,-20.3186 0,-11.22167 9.2216,-20.318611719 20.5966,-20.318611719 11.376,0 20.597,9.096941719 20.597,20.318611719 z M 97.9015,46.4985 h 28.9435 c 6.199,0.0077 12.142,2.4659 16.525,6.8354 4.384,4.3695 6.849,10.2936 6.857,16.473 v 16.666 c 0,0.7698 -0.307,1.5081 -0.853,2.0525 -0.546,0.5443 -1.286,0.8501 -2.059,0.8501 H 77.4314 c -0.7723,0 -1.5129,-0.3058 -2.059,-0.8501 -0.5461,-0.5444 -0.8529,-1.2827 -0.8529,-2.0525 v -16.666 c 0.0077,-6.1794 2.4737,-12.1035 6.857,-16.473 4.3833,-4.3695 10.3261,-6.8277 16.525,-6.8354 z"
           fill="url(#paint8_linear_660_2452)"
           id="path1065"
           style="fill:url(#paint8_linear_660_2452)" /></g></g></g></svg>
