<?xml version="1.0" encoding="UTF-8" standalone="no"?>
<svg
   width="380"
   height="89"
   viewBox="0 0 380 89"
   fill="none"
   version="1.1"
   id="svg119"
   sodipodi:docname="localstack-logo-horizontal-color-centered.svg"
   inkscape:version="1.2 (dc2aedaf03, 2022-05-15)"
   xmlns:inkscape="http://www.inkscape.org/namespaces/inkscape"
   xmlns:sodipodi="http://sodipodi.sourceforge.net/DTD/sodipodi-0.dtd"
   xmlns="http://www.w3.org/2000/svg"
   xmlns:svg="http://www.w3.org/2000/svg">
  <sodipodi:namedview
     id="namedview121"
     pagecolor="#ffffff"
     bordercolor="#000000"
     borderopacity="0.25"
     inkscape:showpageshadow="2"
     inkscape:pageopacity="0.0"
     inkscape:pagecheckerboard="0"
     inkscape:deskcolor="#d1d1d1"
     showgrid="false"
     inkscape:zoom="3.1842105"
     inkscape:cx="161.89256"
     inkscape:cy="73.487603"
     inkscape:window-width="1920"
     inkscape:window-height="1017"
     inkscape:window-x="-8"
     inkscape:window-y="-8"
     inkscape:window-maximized="1"
     inkscape:current-layer="svg119" />
  <path
     d="m 115.18,56.425194 h 11.49 v 5.5455 h -18.485 v -34.872 h 6.995 z"
     fill="#E5E5E5"
     id="path76" />
  <path
     d="m 143.406,62.420394 c -2.664,0 -5.063,-0.5829 -7.194,-1.7486 -2.132,-1.1991 -3.814,-2.881 -5.046,-5.046 -1.199,-2.1649 -1.799,-4.6629 -1.799,-7.4939 0,-2.8311 0.617,-5.3291 1.849,-7.494 1.266,-2.165 2.981,-3.8303 5.146,-4.996 2.165,-1.1991 4.579,-1.7986 7.244,-1.7986 2.664,0 5.079,0.5995 7.244,1.7986 2.165,1.1657 3.864,2.831 5.096,4.996 1.266,2.1649 1.898,4.6629 1.898,7.494 0,2.831 -0.649,5.329 -1.948,7.4939 -1.266,2.165 -2.998,3.8469 -5.196,5.046 -2.165,1.1657 -4.596,1.7486 -7.294,1.7486 z m 0,-6.0951 c 1.266,0 2.448,-0.2998 3.547,-0.8993 1.133,-0.6328 2.032,-1.5654 2.698,-2.7978 0.666,-1.2323 0.999,-2.7311 0.999,-4.4963 0,-2.6313 -0.699,-4.6463 -2.098,-6.0452 -1.366,-1.4322 -3.048,-2.1483 -5.046,-2.1483 -1.998,0 -3.68,0.7161 -5.046,2.1483 -1.332,1.3989 -1.998,3.4139 -1.998,6.0452 0,2.6312 0.649,4.6629 1.948,6.0951 1.332,1.3988 2.998,2.0983 4.996,2.0983 z"
     fill="#E5E5E5"
     id="path78" />
  <path
     d="m 161.177,48.131894 c 0,-2.8644 0.582,-5.3624 1.748,-7.494 1.166,-2.165 2.781,-3.8303 4.846,-4.996 2.065,-1.1991 4.43,-1.7986 7.095,-1.7986 3.43,0 6.261,0.866 8.493,2.5979 2.265,1.6987 3.78,4.0968 4.546,7.1943 h -7.544 c -0.4,-1.1991 -1.082,-2.1317 -2.048,-2.7978 -0.933,-0.6994 -2.099,-1.0491 -3.497,-1.0491 -1.999,0 -3.581,0.7327 -4.747,2.1982 -1.165,1.4322 -1.748,3.4805 -1.748,6.1451 0,2.6312 0.583,4.6795 1.748,6.145 1.166,1.4322 2.748,2.1483 4.747,2.1483 2.831,0 4.679,-1.2657 5.545,-3.797 h 7.544 c -0.766,2.9976 -2.281,5.379 -4.546,7.1443 -2.265,1.7652 -5.096,2.6479 -8.493,2.6479 -2.665,0 -5.03,-0.5829 -7.095,-1.7486 -2.065,-1.1991 -3.68,-2.8644 -4.846,-4.996 -1.166,-2.1649 -1.748,-4.6796 -1.748,-7.5439 z"
     fill="#E5E5E5"
     id="path80" />
  <path
     d="m 191.231,48.031894 c 0,-2.7977 0.549,-5.2791 1.648,-7.444 1.133,-2.1649 2.648,-3.8302 4.547,-4.996 1.931,-1.1657 4.08,-1.7486 6.444,-1.7486 2.065,0 3.864,0.4164 5.396,1.249 1.565,0.8327 2.814,1.8818 3.747,3.1475 v -3.9468 h 7.044 v 27.6777 h -7.044 v -4.0467 c -0.899,1.2989 -2.148,2.3814 -3.747,3.2474 -1.565,0.8326 -3.381,1.249 -5.446,1.249 -2.331,0 -4.463,-0.5995 -6.394,-1.7986 -1.899,-1.199 -3.414,-2.881 -4.547,-5.0459 -1.099,-2.1983 -1.648,-4.7129 -1.648,-7.544 z m 21.782,0.1 c 0,-1.6987 -0.333,-3.1475 -0.999,-4.3466 -0.666,-1.2323 -1.566,-2.1649 -2.698,-2.7977 -1.132,-0.6661 -2.348,-0.9992 -3.647,-0.9992 -1.299,0 -2.498,0.3164 -3.597,0.9492 -1.099,0.6329 -1.999,1.5654 -2.698,2.7978 -0.666,1.199 -0.999,2.6312 -0.999,4.2965 0,1.6654 0.333,3.1308 0.999,4.3965 0.699,1.2323 1.599,2.1816 2.698,2.8477 1.132,0.6661 2.331,0.9992 3.597,0.9992 1.299,0 2.515,-0.3164 3.647,-0.9492 1.132,-0.6662 2.032,-1.5987 2.698,-2.7978 0.666,-1.2323 0.999,-2.6978 0.999,-4.3964 z"
     fill="#E5E5E5"
     id="path82" />
  <path
     d="m 233.883,25.000394 v 36.9703 h -6.994 v -36.9703 z"
     fill="#E5E5E5"
     id="path84" />
  <path
     d="m 252.834,62.320394 c -2.432,0 -4.63,-0.4163 -6.595,-1.2489 -1.932,-0.8327 -3.464,-2.0318 -4.596,-3.5972 -1.133,-1.5654 -1.715,-3.4139 -1.749,-5.5455 h 7.494 c 0.1,1.4322 0.6,2.5646 1.499,3.3973 0.933,0.8326 2.198,1.249 3.797,1.249 1.632,0 2.914,-0.3831 3.847,-1.1491 0.932,-0.7994 1.399,-1.8319 1.399,-3.0975 0,-1.0325 -0.317,-1.8818 -0.95,-2.548 -0.632,-0.6661 -1.432,-1.1824 -2.398,-1.5487 -0.932,-0.3997 -2.231,-0.8327 -3.896,-1.299 -2.265,-0.6661 -4.114,-1.3156 -5.546,-1.9484 -1.399,-0.6662 -2.615,-1.6487 -3.647,-2.9477 -0.999,-1.3322 -1.499,-3.0975 -1.499,-5.2957 0,-2.065 0.516,-3.8636 1.549,-5.3957 1.032,-1.5321 2.481,-2.6978 4.346,-3.4972 1.866,-0.8326 3.997,-1.2489 6.395,-1.2489 3.597,0 6.512,0.8826 8.743,2.6478 2.265,1.732 3.514,4.1633 3.747,7.2942 h -7.694 c -0.066,-1.1991 -0.582,-2.1816 -1.548,-2.9477 -0.933,-0.7993 -2.182,-1.199 -3.747,-1.199 -1.366,0 -2.465,0.3497 -3.298,1.0491 -0.799,0.6995 -1.199,1.7153 -1.199,3.0476 0,0.9326 0.3,1.7153 0.9,2.3481 0.632,0.5995 1.398,1.0991 2.298,1.4988 0.932,0.3664 2.231,0.7994 3.897,1.299 2.264,0.6661 4.113,1.3322 5.545,1.9984 1.432,0.6661 2.665,1.6653 3.697,2.9976 1.033,1.3322 1.549,3.0808 1.549,5.2457 0,1.8652 -0.483,3.5971 -1.449,5.1959 -0.966,1.5987 -2.381,2.881 -4.247,3.8469 -1.865,0.9326 -4.08,1.3988 -6.644,1.3988 z"
     fill="#E5E5E5"
     id="path86" />
  <path
     d="m 279.381,40.038394 v 13.3892 c 0,0.9326 0.217,1.6154 0.65,2.0483 0.466,0.3997 1.232,0.5996 2.298,0.5996 h 3.247 v 5.8952 h -4.396 c -5.895,0 -8.843,-2.8643 -8.843,-8.5931 v -13.3392 h -3.297 v -5.7454 h 3.297 v -6.8445 h 7.044 v 6.8445 h 6.195 v 5.7454 z"
     fill="#E5E5E5"
     id="path88" />
  <path
     d="m 288.808,48.031894 c 0,-2.7977 0.55,-5.2791 1.649,-7.444 1.133,-2.1649 2.648,-3.8302 4.546,-4.996 1.932,-1.1657 4.08,-1.7486 6.445,-1.7486 2.065,0 3.864,0.4164 5.396,1.249 1.565,0.8327 2.814,1.8818 3.747,3.1475 v -3.9468 h 7.044 v 27.6777 h -7.044 v -4.0467 c -0.899,1.2989 -2.148,2.3814 -3.747,3.2474 -1.565,0.8326 -3.381,1.249 -5.446,1.249 -2.331,0 -4.463,-0.5995 -6.395,-1.7986 -1.898,-1.199 -3.413,-2.881 -4.546,-5.0459 -1.099,-2.1983 -1.649,-4.7129 -1.649,-7.544 z m 21.783,0.1 c 0,-1.6987 -0.333,-3.1475 -0.999,-4.3466 -0.666,-1.2323 -1.566,-2.1649 -2.698,-2.7977 -1.133,-0.6661 -2.348,-0.9992 -3.647,-0.9992 -1.299,0 -2.498,0.3164 -3.597,0.9492 -1.099,0.6329 -1.999,1.5654 -2.698,2.7978 -0.666,1.199 -0.999,2.6312 -0.999,4.2965 0,1.6654 0.333,3.1308 0.999,4.3965 0.699,1.2323 1.599,2.1816 2.698,2.8477 1.132,0.6661 2.331,0.9992 3.597,0.9992 1.299,0 2.514,-0.3164 3.647,-0.9492 1.132,-0.6662 2.032,-1.5987 2.698,-2.7978 0.666,-1.2323 0.999,-2.6978 0.999,-4.3964 z"
     fill="#E5E5E5"
     id="path90" />
  <path
     d="m 322.668,48.131894 c 0,-2.8644 0.583,-5.3624 1.749,-7.494 1.165,-2.165 2.781,-3.8303 4.846,-4.996 2.065,-1.1991 4.429,-1.7986 7.094,-1.7986 3.431,0 6.262,0.866 8.493,2.5979 2.265,1.6987 3.78,4.0968 4.546,7.1943 h -7.543 c -0.4,-1.1991 -1.083,-2.1317 -2.049,-2.7978 -0.932,-0.6994 -2.098,-1.0491 -3.497,-1.0491 -1.998,0 -3.58,0.7327 -4.746,2.1982 -1.166,1.4322 -1.749,3.4805 -1.749,6.1451 0,2.6312 0.583,4.6795 1.749,6.145 1.166,1.4322 2.748,2.1483 4.746,2.1483 2.831,0 4.68,-1.2657 5.546,-3.797 h 7.543 c -0.766,2.9976 -2.281,5.379 -4.546,7.1443 -2.265,1.7652 -5.096,2.6479 -8.493,2.6479 -2.665,0 -5.029,-0.5829 -7.094,-1.7486 -2.065,-1.1991 -3.681,-2.8644 -4.846,-4.996 -1.166,-2.1649 -1.749,-4.6796 -1.749,-7.5439 z"
     fill="#E5E5E5"
     id="path92" />
  <path
     d="m 370.907,61.970694 -9.392,-11.7905 v 11.7905 h -6.995 v -36.9703 h 6.995 v 21.0331 l 9.292,-11.7405 h 9.093 l -12.19,13.8888 12.29,13.7889 z"
     fill="#E5E5E5"
     id="path94" />
  <path
     fill-rule="evenodd"
     clip-rule="evenodd"
     d="M76.2983 61.8727C77.3006 61.8727 77.8025 63.0845 77.0938 63.7932L52.7163 88.1688C52.0076 88.8775 50.7957 88.3756 50.7957 87.3734L50.7957 62.9977C50.7957 62.3764 51.2994 61.8727 51.9208 61.8727L76.2983 61.8727ZM1.12732 38.9036C0.12502 38.9036 -0.376933 37.6918 0.331807 36.9832L24.7093 12.6075C25.418 11.8988 26.6298 12.4007 26.6298 13.4029L26.6298 37.7786C26.6298 38.3999 26.1261 38.9036 25.5048 38.9036L1.12732 38.9036Z"
     fill="url(#paint0_linear_20_3)"
     id="path96" />
  <path
     d="M54.1934 34.9029L86.8489 34.9029C87.4702 34.9029 87.9739 34.3993 87.9739 33.778L87.9739 1.12488C87.9739 0.503582 87.4702 -8.01527e-05 86.8489 -8.0207e-05L54.1934 -8.30618e-05C53.5721 -8.31162e-05 53.0684 0.503579 53.0684 1.12487L53.0684 33.778C53.0684 34.3993 53.5721 34.9029 54.1934 34.9029Z"
     fill="url(#paint1_linear_20_3)"
     id="path98" />
  <path
     d="M78.3818 56.248L33.3801 56.248C32.7588 56.248 32.2551 55.7443 32.2551 55.123L32.2551 10.1246C32.2551 9.50333 32.7588 8.99967 33.3801 8.99967L46.3181 8.99967C46.9394 8.99967 47.4431 9.50333 47.4431 10.1246L47.4431 39.3736C47.4431 39.9949 47.9468 40.4986 48.5682 40.4986L78.3818 40.4986C79.0031 40.4986 79.5068 41.0022 79.5068 41.6235L79.5068 55.123C79.5068 55.7443 79.0031 56.248 78.3818 56.248Z"
     fill="url(#paint2_linear_20_3)"
     id="path100" />
  <defs
     id="defs117">
    <linearGradient
       id="paint0_linear_20_3"
       x1="77.5035"
       y1="12.0444"
       x2="13.9516"
       y2="74.968"
       gradientUnits="userSpaceOnUse">
      <stop
         stop-color="#4D29B4"
         id="stop102" />
      <stop
         offset="1"
         stop-color="#836FFF"
         id="stop104" />
    </linearGradient>
    <linearGradient
       id="paint1_linear_20_3"
       x1="50.0107"
       y1="36.657"
       x2="93.9964"
       y2="-6.54887"
       gradientUnits="userSpaceOnUse">
      <stop
         stop-color="#70FFE5"
         id="stop107" />
      <stop
         offset="1"
         stop-color="#6295E1"
         id="stop109" />
    </linearGradient>
    <linearGradient
       id="paint2_linear_20_3"
       x1="73.8377"
       y1="19.3759"
       x2="32.4705"
       y2="58.6544"
       gradientUnits="userSpaceOnUse">
      <stop
         offset="0.00747511"
         stop-color="#654FEC"
         id="stop112" />
      <stop
         offset="1"
         stop-color="#71B2FF"
         id="stop114" />
    </linearGradient>
  </defs>
</svg>
