<?xml version="1.0" encoding="UTF-8" standalone="no"?>
<svg
   width="899.13367"
   height="536.46252"
   viewBox="0 0 899.13367 536.46252"
   fill="none"
   version="1.1"
   id="svg1928"
   sodipodi:docname="localstack.svg"
   inkscape:version="1.1.1 (3bf5ae0d25, 2021-09-20)"
   inkscape:export-filename="/home/localstack/Repos/localstack.github.io/static/images/localstack.png"
   inkscape:export-xdpi="128.12"
   inkscape:export-ydpi="128.12"
   xmlns:inkscape="http://www.inkscape.org/namespaces/inkscape"
   xmlns:sodipodi="http://sodipodi.sourceforge.net/DTD/sodipodi-0.dtd"
   xmlns:xlink="http://www.w3.org/1999/xlink"
   xmlns="http://www.w3.org/2000/svg"
   xmlns:svg="http://www.w3.org/2000/svg">
  <sodipodi:namedview
     id="namedview1930"
     pagecolor="#ffffff"
     bordercolor="#666666"
     borderopacity="1.0"
     inkscape:pageshadow="2"
     inkscape:pageopacity="0.0"
     inkscape:pagecheckerboard="0"
     showgrid="false"
     fit-margin-top="0"
     fit-margin-left="0"
     fit-margin-right="0"
     fit-margin-bottom="0"
     inkscape:snap-global="false"
     inkscape:zoom="1.0915259"
     inkscape:cx="246.90206"
     inkscape:cy="253.3151"
     inkscape:window-width="2510"
     inkscape:window-height="1376"
     inkscape:window-x="0"
     inkscape:window-y="0"
     inkscape:window-maximized="1"
     inkscape:current-layer="svg1928" />
  <mask
     id="mask0_324_691"
     maskUnits="userSpaceOnUse"
     x="131"
     y="160"
     width="371"
     height="218">
    <path
       d="m 131.614,192.28 v 158.232 17.487 c 0,5.523 4.477,10 10,10 h 349.98 c 5.523,0 10,-4.477 10,-10 V 193.347 c 0,-3.978 -1.58,-7.794 -4.394,-10.607 l -19.711,-19.711 c -1.876,-1.876 -4.419,-2.929 -7.071,-2.929 H 161.724 c -2.653,0 -5.196,1.053 -7.071,2.929 l -18.645,18.644 c -2.813,2.813 -4.394,6.629 -4.394,10.607 z"
       fill="#d9d9d9"
       id="path1782" />
  </mask>
  <rect
     style="fill:url(#linearGradient2072);fill-opacity:1;fill-rule:evenodd;stroke-width:1.4082"
     id="rect2034"
     width="899.13367"
     height="536.46252"
     x="0"
     y="0"
     ry="0" />
  <g
     id="g40090"
     transform="translate(132.06683,79.331262)">
    <g
       mask="url(#mask0_324_691)"
       id="g1793">
      <path
         fill-rule="evenodd"
         clip-rule="evenodd"
         d="M 131.43,186.254 V 353.67 l 26.129,22.13 V 160.125 Z"
         fill="url(#paint0_linear_324_691)"
         id="path1785"
         style="fill:url(#paint0_linear_324_691)" />
      <path
         fill-rule="evenodd"
         clip-rule="evenodd"
         d="m 502.905,186.256 v -0.087 L 476.863,160.127 H 157.601 l -26.13,26.129 z"
         fill="url(#paint1_linear_324_691)"
         id="path1787"
         style="fill:url(#paint1_linear_324_691)" />
      <path
         fill-rule="evenodd"
         clip-rule="evenodd"
         d="m 475.767,369.975 v -209.7 l 26.129,26.129 v 167.438 z"
         fill="url(#paint2_linear_324_691)"
         id="path1789"
         style="fill:url(#paint2_linear_324_691)" />
      <rect
         opacity="0.4"
         width="317.20801"
         height="165.48199"
         transform="matrix(-1,0,0,1,476.42,186.213)"
         fill="url(#paint3_linear_324_691)"
         id="rect1791"
         style="fill:url(#paint3_linear_324_691)"
         x="0"
         y="0" />
    </g>
    <path
       d="m 529.172,356.999 c 0.895,-2.597 -1.034,-5.304 -3.782,-5.304 h -418.3 c -2.747,0 -4.677,2.707 -3.781,5.304 l 5.544,16.082 c 0.973,2.824 3.631,4.719 6.617,4.719 h 401.54 c 2.986,0 5.644,-1.895 6.618,-4.719 z"
       fill="url(#paint4_linear_324_691)"
       id="path1795"
       style="fill:url(#paint4_linear_324_691)" />
    <path
       d="m 209.635,266.929 c -2.232,-1.098 -2.235,-4.279 -0.005,-5.381 l 102.408,-50.606 c 2.787,-1.377 6.057,-1.38 8.846,-0.007 l 101.964,50.185 c 2.231,1.098 2.234,4.279 0.004,5.381 l -102.408,50.606 c -2.787,1.378 -6.057,1.38 -8.846,0.007 z"
       fill="url(#paint5_linear_324_691)"
       id="path1797"
       style="fill:url(#paint5_linear_324_691)" />
    <path
       opacity="0.6"
       d="m 209.635,266.929 c -2.232,-1.098 -2.235,-4.279 -0.005,-5.381 l 102.408,-50.606 c 2.787,-1.377 6.057,-1.38 8.846,-0.007 l 101.964,50.185 c 2.231,1.098 2.234,4.279 0.004,5.381 l -102.408,50.606 c -2.787,1.378 -6.057,1.38 -8.846,0.007 z"
       fill="url(#paint6_linear_324_691)"
       id="path1799"
       style="fill:url(#paint6_linear_324_691)" />
    <g
       filter="url(#filter0_d_324_691)"
       id="g1803">
      <path
         d="m 209.635,207.925 c -2.232,-1.099 -2.235,-4.28 -0.005,-5.382 l 102.408,-50.606 c 2.787,-1.377 6.057,-1.38 8.846,-0.007 l 101.964,50.185 c 2.231,1.099 2.234,4.279 0.004,5.381 l -102.408,50.607 c -2.787,1.377 -6.057,1.379 -8.846,0.007 z"
         fill="url(#paint7_linear_324_691)"
         id="path1801"
         style="fill:url(#paint7_linear_324_691)" />
    </g>
    <path
       opacity="0.6"
       d="m 209.635,207.925 c -2.232,-1.099 -2.235,-4.28 -0.005,-5.382 l 102.408,-50.606 c 2.787,-1.377 6.057,-1.38 8.846,-0.007 l 101.964,50.185 c 2.231,1.099 2.234,4.279 0.004,5.381 l -102.408,50.607 c -2.787,1.377 -6.057,1.379 -8.846,0.007 z"
       fill="url(#paint8_linear_324_691)"
       id="path1805"
       style="fill:url(#paint8_linear_324_691)" />
    <g
       filter="url(#filter1_d_324_691)"
       id="g1809">
      <path
         d="m 209.635,148.922 c -2.232,-1.099 -2.235,-4.28 -0.005,-5.382 L 312.038,92.9342 c 2.787,-1.3774 6.057,-1.38 8.846,-0.007 l 101.964,50.1848 c 2.231,1.099 2.234,4.279 0.004,5.381 L 320.444,199.1 c -2.787,1.377 -6.057,1.38 -8.846,0.007 z"
         fill="url(#paint9_linear_324_691)"
         id="path1807"
         style="fill:url(#paint9_linear_324_691)" />
    </g>
    <path
       d="m 209.635,148.921 c -2.232,-1.099 -2.235,-4.28 -0.005,-5.382 L 312.038,92.9332 c 2.787,-1.3773 6.057,-1.3799 8.846,-0.007 l 101.964,50.1848 c 2.231,1.099 2.234,4.279 0.004,5.381 l -102.408,50.607 c -2.787,1.377 -6.057,1.38 -8.846,0.007 z"
       fill="url(#paint10_linear_324_691)"
       id="path1811"
       style="fill:url(#paint10_linear_324_691)" />
    <g
       opacity="0.5"
       id="g1818">
      <mask
         id="path-13-inside-1_324_691"
         fill="#ffffff">
        <path
           d="m 0,224.976 c 0,-56.347 50.452,-102.02 112.684,-102.02 16.658,0 32.454,3.299 46.684,9.172 C 160.613,58.9628 226.499,0 307.607,0 c 69.06,0 127.089,42.7433 143.577,100.602 16.24,-6.5517 34.222,-10.2018 53.15,-10.2018 72.161,0 130.666,52.9638 130.666,118.2998 0,65.336 -57.208,117.111 -128.257,118.272 l 0.01,0.028 H 108.378 l 0.036,-0.098 C 48.1623,324.866 0,280.026 0,224.976 Z"
           id="path1813" />
      </mask>
      <path
         d="m 0,224.976 c 0,-56.347 50.452,-102.02 112.684,-102.02 16.658,0 32.454,3.299 46.684,9.172 C 160.613,58.9628 226.499,0 307.607,0 c 69.06,0 127.089,42.7433 143.577,100.602 16.24,-6.5517 34.222,-10.2018 53.15,-10.2018 72.161,0 130.666,52.9638 130.666,118.2998 0,65.336 -57.208,117.111 -128.257,118.272 l 0.01,0.028 H 108.378 l 0.036,-0.098 C 48.1623,324.866 0,280.026 0,224.976 Z"
         stroke="url(#paint11_linear_324_691)"
         stroke-width="4"
         mask="url(#path-13-inside-1_324_691)"
         id="path1816"
         style="stroke:url(#paint11_linear_324_691)" />
    </g>
    <g
       opacity="0.5"
       id="g1825">
      <mask
         id="path-14-inside-2_324_691"
         fill="#ffffff">
        <path
           d="m 0,224.976 c 0,-56.347 50.452,-102.02 112.684,-102.02 16.658,0 32.454,3.299 46.684,9.172 C 160.613,58.9628 226.499,0 307.607,0 c 69.06,0 127.089,42.7433 143.577,100.602 16.24,-6.5517 34.222,-10.2018 53.15,-10.2018 72.161,0 130.666,52.9638 130.666,118.2998 0,65.336 -57.208,117.111 -128.257,118.272 l 0.01,0.028 H 108.378 l 0.036,-0.098 C 48.1623,324.866 0,280.026 0,224.976 Z"
           id="path1820" />
      </mask>
      <path
         d="m 0,224.976 c 0,-56.347 50.452,-102.02 112.684,-102.02 16.658,0 32.454,3.299 46.684,9.172 C 160.613,58.9628 226.499,0 307.607,0 c 69.06,0 127.089,42.7433 143.577,100.602 16.24,-6.5517 34.222,-10.2018 53.15,-10.2018 72.161,0 130.666,52.9638 130.666,118.2998 0,65.336 -57.208,117.111 -128.257,118.272 l 0.01,0.028 H 108.378 l 0.036,-0.098 C 48.1623,324.866 0,280.026 0,224.976 Z"
         stroke="url(#paint12_linear_324_691)"
         stroke-width="4"
         mask="url(#path-14-inside-2_324_691)"
         id="path1823"
         style="stroke:url(#paint12_linear_324_691)" />
    </g>
  </g>
  <defs
     id="defs1926">
    <linearGradient
       inkscape:collect="always"
       id="linearGradient2070">
      <stop
         style="stop-color:#13133f;stop-opacity:1"
         offset="0"
         id="stop2066" />
      <stop
         style="stop-color:#2c245e;stop-opacity:1"
         offset="1"
         id="stop2068" />
    </linearGradient>
    <filter
       id="filter0_d_324_691"
       x="167.959"
       y="120.902"
       width="296.56299"
       height="188.235"
       filterUnits="userSpaceOnUse"
       color-interpolation-filters="sRGB">
      <feFlood
         flood-opacity="0"
         result="BackgroundImageFix"
         id="feFlood1827" />
      <feColorMatrix
         in="SourceAlpha"
         type="matrix"
         values="0 0 0 0 0 0 0 0 0 0 0 0 0 0 0 0 0 0 127 0"
         result="hardAlpha"
         id="feColorMatrix1829" />
      <feOffset
         dy="10"
         id="feOffset1831" />
      <feGaussianBlur
         stdDeviation="20"
         id="feGaussianBlur1833" />
      <feComposite
         in2="hardAlpha"
         operator="out"
         id="feComposite1835" />
      <feColorMatrix
         type="matrix"
         values="0 0 0 0 0.168627 0 0 0 0 0.141176 0 0 0 0 0.341176 0 0 0 0.35 0"
         id="feColorMatrix1837" />
      <feBlend
         mode="normal"
         in2="BackgroundImageFix"
         result="effect1_dropShadow_324_691"
         id="feBlend1839" />
      <feBlend
         mode="normal"
         in="SourceGraphic"
         in2="effect1_dropShadow_324_691"
         result="shape"
         id="feBlend1841" />
    </filter>
    <filter
       id="filter1_d_324_691"
       x="167.959"
       y="61.899399"
       width="296.56299"
       height="188.235"
       filterUnits="userSpaceOnUse"
       color-interpolation-filters="sRGB">
      <feFlood
         flood-opacity="0"
         result="BackgroundImageFix"
         id="feFlood1844" />
      <feColorMatrix
         in="SourceAlpha"
         type="matrix"
         values="0 0 0 0 0 0 0 0 0 0 0 0 0 0 0 0 0 0 127 0"
         result="hardAlpha"
         id="feColorMatrix1846" />
      <feOffset
         dy="10"
         id="feOffset1848" />
      <feGaussianBlur
         stdDeviation="20"
         id="feGaussianBlur1850" />
      <feComposite
         in2="hardAlpha"
         operator="out"
         id="feComposite1852" />
      <feColorMatrix
         type="matrix"
         values="0 0 0 0 0.168627 0 0 0 0 0.141176 0 0 0 0 0.341176 0 0 0 0.35 0"
         id="feColorMatrix1854" />
      <feBlend
         mode="normal"
         in2="BackgroundImageFix"
         result="effect1_dropShadow_324_691"
         id="feBlend1856" />
      <feBlend
         mode="normal"
         in="SourceGraphic"
         in2="effect1_dropShadow_324_691"
         result="shape"
         id="feBlend1858" />
    </filter>
    <linearGradient
       id="paint0_linear_324_691"
       x1="152.957"
       y1="366.49701"
       x2="141.04201"
       y2="183.157"
       gradientUnits="userSpaceOnUse">
      <stop
         stop-color="#7565D6"
         id="stop1861" />
      <stop
         offset="1"
         stop-color="#5648AC"
         id="stop1863" />
    </linearGradient>
    <linearGradient
       id="paint1_linear_324_691"
       x1="478.58301"
       y1="172.27299"
       x2="192.86501"
       y2="177.108"
       gradientUnits="userSpaceOnUse">
      <stop
         stop-color="#61C7E7"
         id="stop1866" />
      <stop
         offset="1"
         stop-color="#9986E7"
         id="stop1868" />
    </linearGradient>
    <linearGradient
       id="paint2_linear_324_691"
       x1="478.26599"
       y1="156.151"
       x2="478.26599"
       y2="361.94699"
       gradientUnits="userSpaceOnUse">
      <stop
         stop-color="#82FBB2"
         id="stop1871" />
      <stop
         offset="0.978513"
         stop-color="#4BA9ED"
         id="stop1873" />
    </linearGradient>
    <linearGradient
       id="paint3_linear_324_691"
       x1="134.08701"
       y1="201.23599"
       x2="-33.6763"
       y2="123.525"
       gradientUnits="userSpaceOnUse">
      <stop
         stop-color="#774BF3"
         stop-opacity="0"
         id="stop1876" />
      <stop
         offset="1"
         stop-color="#5EF8C1"
         id="stop1878" />
    </linearGradient>
    <linearGradient
       id="paint4_linear_324_691"
       x1="488.41501"
       y1="364.74799"
       x2="38.114799"
       y2="364.74799"
       gradientUnits="userSpaceOnUse">
      <stop
         stop-color="#84FFD3"
         id="stop1881" />
      <stop
         offset="1"
         stop-color="#937AF7"
         id="stop1883" />
    </linearGradient>
    <linearGradient
       id="paint5_linear_324_691"
       x1="319.52399"
       y1="244.44299"
       x2="316.241"
       y2="316.258"
       gradientUnits="userSpaceOnUse">
      <stop
         stop-color="#B6B5BA"
         id="stop1886" />
      <stop
         offset="1"
         stop-color="#E4E2E9"
         id="stop1888" />
    </linearGradient>
    <linearGradient
       id="paint6_linear_324_691"
       x1="208.29401"
       y1="214.83701"
       x2="377.12201"
       y2="283.29901"
       gradientUnits="userSpaceOnUse">
      <stop
         stop-color="#615FE8"
         stop-opacity="0.9"
         id="stop1891" />
      <stop
         offset="1"
         stop-color="#DAFBE7"
         id="stop1893" />
    </linearGradient>
    <linearGradient
       id="paint7_linear_324_691"
       x1="306.32999"
       y1="157.85001"
       x2="349.44299"
       y2="246.58299"
       gradientUnits="userSpaceOnUse">
      <stop
         stop-color="#F3F3F3"
         id="stop1896" />
      <stop
         offset="1"
         stop-color="white"
         id="stop1898" />
    </linearGradient>
    <linearGradient
       id="paint8_linear_324_691"
       x1="219.593"
       y1="132.444"
       x2="382.569"
       y2="213.93201"
       gradientUnits="userSpaceOnUse">
      <stop
         stop-color="#A09EFD"
         id="stop1901" />
      <stop
         offset="1"
         stop-color="#CAFBD7"
         id="stop1903" />
    </linearGradient>
    <linearGradient
       id="paint9_linear_324_691"
       x1="196.994"
       y1="89.213997"
       x2="403.70999"
       y2="162.993"
       gradientUnits="userSpaceOnUse">
      <stop
         stop-color="#BCC2FA"
         id="stop1906" />
      <stop
         offset="0.9999"
         stop-color="#DCFFE5"
         id="stop1908" />
    </linearGradient>
    <linearGradient
       id="paint10_linear_324_691"
       x1="316.241"
       y1="120.111"
       x2="370.70901"
       y2="177.95"
       gradientUnits="userSpaceOnUse">
      <stop
         stop-color="white"
         stop-opacity="0"
         id="stop1911" />
      <stop
         offset="0.9999"
         stop-color="#D8FFE1"
         id="stop1913" />
    </linearGradient>
    <linearGradient
       id="paint11_linear_324_691"
       x1="590.5"
       y1="64.313004"
       x2="568.52197"
       y2="346.65399"
       gradientUnits="userSpaceOnUse">
      <stop
         stop-color="#26C076"
         id="stop1916" />
      <stop
         offset="1"
         stop-color="white"
         stop-opacity="0"
         id="stop1918" />
    </linearGradient>
    <linearGradient
       id="paint12_linear_324_691"
       x1="358"
       y1="-12.2285"
       x2="333.76801"
       y2="327.37601"
       gradientUnits="userSpaceOnUse">
      <stop
         stop-color="white"
         id="stop1921" />
      <stop
         offset="0.976841"
         stop-color="white"
         stop-opacity="0"
         id="stop1923" />
    </linearGradient>
    <linearGradient
       inkscape:collect="always"
       xlink:href="#linearGradient2070"
       id="linearGradient2072"
       x1="-0.093046345"
       y1="380.90848"
       x2="638.4035"
       y2="-0.046523172"
       gradientUnits="userSpaceOnUse"
       gradientTransform="matrix(1.4082045,0,0,1.4082045,0.1310235,0.06551321)" />
  </defs>
</svg>
