<svg width="288" height="205" viewBox="0 0 288 205" fill="none" xmlns="http://www.w3.org/2000/svg">
<path d="M72.071 67.3299L72.7684 67.6511L72.7801 66.8834C73.341 30.1197 103.006 0.500977 139.513 0.500977C170.597 0.500977 196.723 21.9715 204.147 51.0428L204.294 51.6193L204.837 51.3751C212.139 48.0875 220.225 46.2558 228.737 46.2558C261.184 46.2558 287.5 72.8338 287.5 105.632C287.5 138.43 261.77 164.411 229.821 164.993L229.144 165.006L229.144 165.007H49.8456L49.8536 164.983L49.1894 164.958C22.1345 163.938 0.5 141.467 0.5 113.869C0.5 85.6214 23.1631 62.7335 51.1069 62.7335C58.5879 62.7335 65.6807 64.3867 72.071 67.3299Z" stroke="url(#paint0_linear_324_815)"/>
<path d="M72.071 67.3299L72.7684 67.6511L72.7801 66.8834C73.341 30.1197 103.006 0.500977 139.513 0.500977C170.597 0.500977 196.723 21.9715 204.147 51.0428L204.294 51.6193L204.837 51.3751C212.139 48.0875 220.225 46.2558 228.737 46.2558C261.184 46.2558 287.5 72.8338 287.5 105.632C287.5 138.43 261.77 164.411 229.821 164.993L229.144 165.006L229.144 165.007H49.8456L49.8536 164.983L49.1894 164.958C22.1345 163.938 0.5 141.467 0.5 113.869C0.5 85.6214 23.1631 62.7335 51.1069 62.7335C58.5879 62.7335 65.6807 64.3867 72.071 67.3299Z" stroke="url(#paint1_linear_324_815)"/>
<rect x="102" y="35.0664" width="58.3305" height="94.7432" rx="2" transform="rotate(-3.01237 102 35.0664)" fill="url(#paint2_linear_324_815)"/>
<rect x="186.242" y="42.001" width="62.5405" height="94.7432" rx="2" transform="rotate(51.5923 186.242 42.001)" fill="url(#paint3_linear_324_815)"/>
<path d="M77 108.001C77 105.24 79.2386 103.001 82 103.001H153C155.761 103.001 158 105.24 158 108.001V199.334C158 200.837 157.612 202.279 156.922 203.341C156.231 204.404 155.295 205.001 154.318 205.001H80.6818C79.7053 205.001 78.7689 204.404 78.0784 203.341C77.3879 202.279 77 200.837 77 199.334V108.001Z" fill="url(#paint4_linear_324_815)"/>
<path d="M155 103.001H209V199.334C209 200.837 208.368 202.279 207.243 203.341C206.117 204.404 204.591 205.001 203 205.001H155V103.001Z" fill="url(#paint5_linear_324_815)"/>
<path d="M209 103.001H155L167 139.001H221L209 103.001Z" fill="url(#paint6_linear_324_815)"/>
<path d="M76.7721 103.685C76.9082 103.276 77.2903 103.001 77.7208 103.001H153.613C154.295 103.001 154.777 103.67 154.561 104.317L143.228 138.317C143.092 138.726 142.71 139.001 142.279 139.001H66.3874C65.7049 139.001 65.2229 138.332 65.4387 137.685L76.7721 103.685Z" fill="url(#paint7_linear_324_815)"/>
<rect width="208" height="8" rx="2" transform="matrix(-1 0 0 1 248 197.001)" fill="url(#paint8_linear_324_815)"/>
<defs>
<linearGradient id="paint0_linear_324_815" x1="162.369" y1="-6.18832" x2="179.446" y2="158.026" gradientUnits="userSpaceOnUse">
<stop stop-color="white" stop-opacity="0.7"/>
<stop offset="0.976841" stop-color="white" stop-opacity="0"/>
</linearGradient>
<linearGradient id="paint1_linear_324_815" x1="299.71" y1="-7.82587" x2="258.176" y2="117.891" gradientUnits="userSpaceOnUse">
<stop stop-color="#26C076"/>
<stop offset="1" stop-color="#26C076" stop-opacity="0"/>
</linearGradient>
<linearGradient id="paint2_linear_324_815" x1="124.919" y1="37.2084" x2="155.164" y2="68.4066" gradientUnits="userSpaceOnUse">
<stop stop-color="#9378E1"/>
<stop offset="1" stop-color="#503EBB"/>
</linearGradient>
<linearGradient id="paint3_linear_324_815" x1="224.439" y1="3.79169" x2="188.957" y2="129.718" gradientUnits="userSpaceOnUse">
<stop stop-color="#82FBB2"/>
<stop offset="0.978513" stop-color="#4BA9ED"/>
</linearGradient>
<linearGradient id="paint4_linear_324_815" x1="43.5" y1="278.195" x2="193.176" y2="232.644" gradientUnits="userSpaceOnUse">
<stop stop-color="#AF97F2"/>
<stop offset="1" stop-color="#503EBB"/>
</linearGradient>
<linearGradient id="paint5_linear_324_815" x1="197.5" y1="277.723" x2="172.14" y2="121.88" gradientUnits="userSpaceOnUse">
<stop stop-color="#63ECD3"/>
<stop offset="1" stop-color="#754EE2"/>
</linearGradient>
<linearGradient id="paint6_linear_324_815" x1="221" y1="163.001" x2="163.8" y2="47.5869" gradientUnits="userSpaceOnUse">
<stop stop-color="#63ECD3"/>
<stop offset="1" stop-color="#835AF7"/>
</linearGradient>
<linearGradient id="paint7_linear_324_815" x1="143" y1="179.001" x2="181.502" y2="76.5729" gradientUnits="userSpaceOnUse">
<stop stop-color="#AF97F2"/>
<stop offset="1" stop-color="#503EBB"/>
</linearGradient>
<linearGradient id="paint8_linear_324_815" x1="8" y1="8" x2="197" y2="4.00001" gradientUnits="userSpaceOnUse">
<stop stop-color="#84FFD3"/>
<stop offset="1" stop-color="#937AF7"/>
</linearGradient>
</defs>
</svg>
