<svg width="288" height="198" viewBox="0 0 288 198" fill="none" xmlns="http://www.w3.org/2000/svg">
<rect width="56" height="102" rx="5" transform="matrix(-1 0 0 1 230 96.001)" fill="url(#paint0_linear_324_852)"/>
<rect width="56" height="102" rx="5" transform="matrix(-1 0 0 1 230 96.001)" fill="url(#paint1_linear_324_852)"/>
<g opacity="0.8">
<rect opacity="0.2" x="188" y="116.001" width="33" height="10.0435" rx="2" fill="#4D29B4"/>
<rect opacity="0.3" x="188" y="133.219" width="33" height="10.0435" rx="2" fill="#4D29B4"/>
<rect opacity="0.4" x="188" y="150.436" width="33" height="10.0435" rx="2" fill="#4D29B4"/>
</g>
<rect x="54" y="96.001" width="56" height="102" rx="5" fill="url(#paint2_linear_324_852)"/>
<rect x="54" y="96.001" width="56" height="102" rx="5" fill="url(#paint3_linear_324_852)"/>
<rect x="108" y="62.001" width="72" height="136" rx="5" fill="url(#paint4_linear_324_852)"/>
<g opacity="0.8">
<rect opacity="0.2" x="66" y="116.001" width="33" height="10.0435" rx="2" fill="#4D29B4"/>
<rect opacity="0.3" x="66" y="133.219" width="33" height="10.0435" rx="2" fill="#4D29B4"/>
<rect opacity="0.4" x="66" y="150.436" width="33" height="10.0435" rx="2" fill="#4D29B4"/>
</g>
<rect opacity="0.2" x="122" y="78.001" width="46" height="14" rx="2" fill="url(#paint5_linear_324_852)"/>
<rect opacity="0.3" x="122" y="102.001" width="46" height="14" rx="2" fill="url(#paint6_linear_324_852)"/>
<rect opacity="0.4" x="122" y="126.001" width="46" height="14" rx="2" fill="url(#paint7_linear_324_852)"/>
<rect opacity="0.4" x="130" y="158.001" width="30" height="32" rx="2" fill="url(#paint8_linear_324_852)"/>
<rect width="208" height="8" rx="2" transform="matrix(-1 0 0 1 248 190.001)" fill="url(#paint9_linear_324_852)"/>
<path d="M72.071 67.3299L72.7684 67.6511L72.7801 66.8834C73.341 30.1197 103.006 0.500977 139.513 0.500977C170.597 0.500977 196.723 21.9715 204.147 51.0428L204.294 51.6193L204.837 51.3751C212.139 48.0875 220.225 46.2558 228.737 46.2558C261.184 46.2558 287.5 72.8338 287.5 105.632C287.5 138.43 261.77 164.411 229.821 164.993L229.144 165.006L229.144 165.007H49.8456L49.8536 164.983L49.1894 164.958C22.1345 163.938 0.5 141.467 0.5 113.869C0.5 85.6214 23.1632 62.7335 51.1069 62.7335C58.5879 62.7335 65.6807 64.3867 72.071 67.3299Z" stroke="url(#paint10_linear_324_852)"/>
<path d="M72.071 67.3299L72.7684 67.6511L72.7801 66.8834C73.341 30.1197 103.006 0.500977 139.513 0.500977C170.597 0.500977 196.723 21.9715 204.147 51.0428L204.294 51.6193L204.837 51.3751C212.139 48.0875 220.225 46.2558 228.737 46.2558C261.184 46.2558 287.5 72.8338 287.5 105.632C287.5 138.43 261.77 164.411 229.821 164.993L229.144 165.006L229.144 165.007H49.8456L49.8536 164.983L49.1894 164.958C22.1345 163.938 0.5 141.467 0.5 113.869C0.5 85.6214 23.1632 62.7335 51.1069 62.7335C58.5879 62.7335 65.6807 64.3867 72.071 67.3299Z" stroke="url(#paint11_linear_324_852)"/>
<defs>
<linearGradient id="paint0_linear_324_852" x1="-26" y1="-20.5" x2="50.6839" y2="90.0839" gradientUnits="userSpaceOnUse">
<stop stop-color="#63ECD3"/>
<stop offset="1" stop-color="#754EE2"/>
</linearGradient>
<linearGradient id="paint1_linear_324_852" x1="15.5" y1="46.5" x2="65.7207" y2="75.8893" gradientUnits="userSpaceOnUse">
<stop stop-color="#835AF7" stop-opacity="0"/>
<stop offset="1" stop-color="#503EBB"/>
</linearGradient>
<linearGradient id="paint2_linear_324_852" x1="54" y1="89.0244" x2="95.2041" y2="203.812" gradientUnits="userSpaceOnUse">
<stop stop-color="#AF97F2"/>
<stop offset="0.961244" stop-color="#503EBB"/>
</linearGradient>
<linearGradient id="paint3_linear_324_852" x1="36.5" y1="116.501" x2="97.1212" y2="192.478" gradientUnits="userSpaceOnUse">
<stop stop-color="#835AF7" stop-opacity="0"/>
<stop offset="1" stop-color="#4735B8"/>
</linearGradient>
<linearGradient id="paint4_linear_324_852" x1="150" y1="54.001" x2="108.596" y2="189.96" gradientUnits="userSpaceOnUse">
<stop stop-color="#63ECD3"/>
<stop offset="1" stop-color="#835AF7"/>
</linearGradient>
<linearGradient id="paint5_linear_324_852" x1="148.833" y1="77.1774" x2="145.555" y2="113.829" gradientUnits="userSpaceOnUse">
<stop stop-color="#835AF7"/>
<stop offset="1" stop-color="#835AF7"/>
</linearGradient>
<linearGradient id="paint6_linear_324_852" x1="148.833" y1="101.177" x2="145.555" y2="137.829" gradientUnits="userSpaceOnUse">
<stop stop-color="#835AF7"/>
<stop offset="1" stop-color="#835AF7"/>
</linearGradient>
<linearGradient id="paint7_linear_324_852" x1="148.833" y1="125.177" x2="145.555" y2="161.829" gradientUnits="userSpaceOnUse">
<stop stop-color="#835AF7"/>
<stop offset="1" stop-color="#835AF7"/>
</linearGradient>
<linearGradient id="paint8_linear_324_852" x1="147.5" y1="156.119" x2="135.37" y2="191.396" gradientUnits="userSpaceOnUse">
<stop stop-color="#875EFF"/>
<stop offset="1" stop-color="#6449AE"/>
</linearGradient>
<linearGradient id="paint9_linear_324_852" x1="20.6225" y1="4.00001" x2="238.685" y2="4.00002" gradientUnits="userSpaceOnUse">
<stop stop-color="#84FFD3"/>
<stop offset="1" stop-color="#937AF7"/>
</linearGradient>
<linearGradient id="paint10_linear_324_852" x1="162.369" y1="-6.18832" x2="179.446" y2="158.026" gradientUnits="userSpaceOnUse">
<stop stop-color="white" stop-opacity="0.7"/>
<stop offset="0.976841" stop-color="white" stop-opacity="0"/>
</linearGradient>
<linearGradient id="paint11_linear_324_852" x1="299.71" y1="-7.82587" x2="258.176" y2="117.891" gradientUnits="userSpaceOnUse">
<stop stop-color="#26C076"/>
<stop offset="1" stop-color="#26C076" stop-opacity="0"/>
</linearGradient>
</defs>
</svg>
