<svg width="200" height="200" viewBox="0 0 200 200" fill="none" xmlns="http://www.w3.org/2000/svg">
<rect width="200" height="200" rx="30" fill="#F61C0D"/>
<path d="M134.299 58.667H65.7026C52.2442 58.667 41.334 69.7049 41.334 83.3209V118.013C41.334 131.629 52.2442 142.667 65.7026 142.667H134.299C147.757 142.667 158.667 131.629 158.667 118.013V83.3209C158.667 69.7049 147.757 58.667 134.299 58.667ZM117.818 102.355L85.7337 117.836C84.8788 118.249 83.8913 117.618 83.8913 116.66V84.7294C83.8913 83.7576 84.9048 83.1278 85.7615 83.5671L117.846 100.016C118.8 100.505 118.783 101.889 117.818 102.355Z" fill="white"/>
</svg>
