<svg width="305" height="305" viewBox="0 0 305 305" fill="none" xmlns="http://www.w3.org/2000/svg">
<rect width="305" height="305" rx="20" fill="url(#paint0_linear_324_1376)"/>
<rect x="136.957" y="59" width="76.7347" height="124.636" rx="2" transform="rotate(32.0412 136.957 59)" fill="url(#paint1_linear_324_1376)"/>
<rect x="182.476" y="60.4185" width="82.273" height="124.636" rx="3" transform="rotate(51.5923 182.476 60.4185)" fill="url(#paint2_linear_324_1376)"/>
<rect x="66" y="135.069" width="172.495" height="111.93" rx="5" fill="url(#paint3_linear_324_1376)"/>
<rect x="156.679" y="181.963" width="81.8168" height="65.0368" rx="5" fill="url(#paint4_linear_324_1376)"/>
<g filter="url(#filter0_d_324_1376)">
<path d="M156.679 190.648C156.679 180.089 165.239 171.53 175.798 171.53H238.496V209.767H175.798C165.239 209.767 156.679 201.207 156.679 190.648Z" fill="url(#paint5_linear_324_1376)"/>
</g>
<circle cx="175.939" cy="190.649" r="9.66665" fill="url(#paint6_linear_324_1376)"/>
<defs>
<filter id="filter0_d_324_1376" x="146.679" y="165.53" width="101.817" height="58.2373" filterUnits="userSpaceOnUse" color-interpolation-filters="sRGB">
<feFlood flood-opacity="0" result="BackgroundImageFix"/>
<feColorMatrix in="SourceAlpha" type="matrix" values="0 0 0 0 0 0 0 0 0 0 0 0 0 0 0 0 0 0 127 0" result="hardAlpha"/>
<feOffset dy="4"/>
<feGaussianBlur stdDeviation="5"/>
<feComposite in2="hardAlpha" operator="out"/>
<feColorMatrix type="matrix" values="0 0 0 0 0.22917 0 0 0 0 0.178299 0 0 0 0 0.541667 0 0 0 0.5 0"/>
<feBlend mode="normal" in2="BackgroundImageFix" result="effect1_dropShadow_324_1376"/>
<feBlend mode="normal" in="SourceGraphic" in2="effect1_dropShadow_324_1376" result="shape"/>
</filter>
<linearGradient id="paint0_linear_324_1376" x1="81.2664" y1="284.847" x2="433.664" y2="207.564" gradientUnits="userSpaceOnUse">
<stop stop-color="#12123E"/>
<stop offset="1" stop-color="#3E3174"/>
</linearGradient>
<linearGradient id="paint1_linear_324_1376" x1="132.424" y1="86.6868" x2="185.763" y2="94.2942" gradientUnits="userSpaceOnUse">
<stop stop-color="#9378E1"/>
<stop offset="1" stop-color="#503EBB"/>
</linearGradient>
<linearGradient id="paint2_linear_324_1376" x1="179.901" y1="64.5195" x2="304.162" y2="182.513" gradientUnits="userSpaceOnUse">
<stop stop-color="#74F7DF"/>
<stop offset="1" stop-color="#835AF7"/>
</linearGradient>
<linearGradient id="paint3_linear_324_1376" x1="216.701" y1="135.069" x2="165.959" y2="262.954" gradientUnits="userSpaceOnUse">
<stop stop-color="#AF97F2"/>
<stop offset="1" stop-color="#503EBB"/>
</linearGradient>
<linearGradient id="paint4_linear_324_1376" x1="147.158" y1="206.838" x2="223.307" y2="181.466" gradientUnits="userSpaceOnUse">
<stop stop-color="#503EBB" stop-opacity="0"/>
<stop offset="1" stop-color="#503EBB"/>
</linearGradient>
<linearGradient id="paint5_linear_324_1376" x1="208.638" y1="159.645" x2="194.053" y2="219.86" gradientUnits="userSpaceOnUse">
<stop stop-color="#63ECD3"/>
<stop offset="1" stop-color="#835AF7"/>
</linearGradient>
<linearGradient id="paint6_linear_324_1376" x1="175.939" y1="180.982" x2="151.681" y2="212.781" gradientUnits="userSpaceOnUse">
<stop stop-color="#63ECD3"/>
<stop offset="1" stop-color="#835AF7"/>
</linearGradient>
</defs>
</svg>
