<svg width="115" height="105" viewBox="0 0 115 105" fill="none" xmlns="http://www.w3.org/2000/svg">
<rect x="17.6797" y="46.1306" width="56.9918" height="25.0028" rx="2" transform="rotate(45 17.6797 46.1306)" fill="url(#paint0_linear_324_1600)"/>
<path d="M25.1104 88.8901L98.1419 15.8585C98.923 15.0775 100.189 15.0775 100.97 15.8585L113.362 28.2497C114.143 29.0308 114.143 30.2971 113.362 31.0782L40.33 104.11L25.1104 88.8901Z" fill="url(#paint1_linear_324_1600)"/>
<ellipse cx="44.544" cy="20.1433" rx="20.8379" ry="20.1433" fill="url(#paint2_linear_324_1600)"/>
<path fill-rule="evenodd" clip-rule="evenodd" d="M44.6985 29.251C44.6984 29.251 44.6984 29.251 44.6983 29.2509C44.6972 29.2504 37.1471 33.2201 37.1471 33.2201C36.5417 33.5379 35.8352 33.0244 35.9507 32.3508L37.3923 23.943L31.2843 17.9889C30.7944 17.5117 31.0649 16.6809 31.7412 16.5825L40.1826 15.3558L43.9577 7.70672C44.1089 7.40047 44.4031 7.24707 44.6972 7.24707L44.6974 7.24756V7.24717C44.9916 7.24717 45.2857 7.40057 45.4369 7.70683L49.212 15.3559L57.6534 16.5826C58.3297 16.681 58.6002 17.5118 58.1103 17.989L52.0023 23.9431L53.444 32.3509C53.5594 33.0245 52.8529 33.538 52.2476 33.2202L44.6985 29.251V29.251Z" fill="url(#paint3_linear_324_1600)"/>
<defs>
<linearGradient id="paint0_linear_324_1600" x1="12.3827" y1="51.5226" x2="47.0832" y2="39.9824" gradientUnits="userSpaceOnUse">
<stop stop-color="#9378E1"/>
<stop offset="1" stop-color="#503EBB"/>
</linearGradient>
<linearGradient id="paint1_linear_324_1600" x1="101.269" y1="26.3947" x2="28.8531" y2="90.5487" gradientUnits="userSpaceOnUse">
<stop stop-color="#63ECD3"/>
<stop offset="1" stop-color="#835AF7"/>
</linearGradient>
<linearGradient id="paint2_linear_324_1600" x1="72.0884" y1="-25.237" x2="61.5376" y2="43.6593" gradientUnits="userSpaceOnUse">
<stop stop-color="#9378E1"/>
<stop offset="1" stop-color="#3F2DAD"/>
</linearGradient>
<linearGradient id="paint3_linear_324_1600" x1="48.6772" y1="15.6958" x2="12.2658" y2="51.6692" gradientUnits="userSpaceOnUse">
<stop stop-color="#75FFE6"/>
<stop offset="1" stop-color="#835AF7"/>
</linearGradient>
</defs>
</svg>
