<svg width="24" height="24" viewBox="0 0 24 24" fill="none" xmlns="http://www.w3.org/2000/svg">
<path fill-rule="evenodd" clip-rule="evenodd" d="M12 2C16.9706 2 21 5.98572 21 10.9024C21 14.1559 18.2777 17.5958 12.9483 21.3432L12 22L11.4278 21.6051C5.85042 17.7559 3 14.2315 3 10.9024C3 5.98572 7.02944 2 12 2ZM12 3.9783C8.13401 3.9783 5 7.07831 5 10.9024C5 13.3049 7.29672 16.2364 12 19.5818C16.7033 16.2364 19 13.3049 19 10.9024C19 7.07831 15.866 3.9783 12 3.9783ZM12 6C14.2091 6 16 7.79086 16 10C16 12.2091 14.2091 14 12 14C9.79086 14 8 12.2091 8 10C8 7.79086 9.79086 6 12 6ZM12 8C10.8954 8 10 8.89543 10 10C10 11.1046 10.8954 12 12 12C13.1046 12 14 11.1046 14 10C14 8.89543 13.1046 8 12 8Z" fill="#8D8B9F"/>
</svg>
