<svg width="120" height="121" viewBox="0 0 120 121" fill="none" xmlns="http://www.w3.org/2000/svg">
<circle cx="60" cy="60" r="60" fill="url(#paint0_linear_913_6328)"/>
<g filter="url(#filter0_d_913_6328)">
<rect x="19" y="38.1104" width="45.9589" height="56.0124" rx="5" transform="rotate(-10.8779 19 38.1104)" fill="url(#paint1_linear_913_6328)"/>
</g>
<g filter="url(#filter1_d_913_6328)">
<rect x="49.5859" y="25" width="49.8081" height="64.6679" rx="5" transform="rotate(10.0429 49.5859 25)" fill="url(#paint2_linear_913_6328)"/>
</g>
<path fill-rule="evenodd" clip-rule="evenodd" d="M82.7882 41.121C83.3838 42.0221 83.1364 43.2359 82.2356 43.832L68.6265 52.8379C67.7257 53.434 66.5126 53.1867 65.917 52.2856L62.5617 47.2092C61.966 46.308 62.2135 45.0943 63.1142 44.4982C64.015 43.9021 65.2281 44.1494 65.8237 45.0505L68.1006 48.4953L80.0787 40.5687C80.9795 39.9726 82.1926 40.2199 82.7882 41.121ZM79.7092 56.2085C80.3048 57.1096 80.0574 58.3233 79.1566 58.9194L65.5474 67.9253C64.6466 68.5214 63.4336 68.2742 62.838 67.3731L59.4826 62.2966C58.887 61.3955 59.1344 60.1817 60.0352 59.5856C60.936 58.9895 62.1491 59.2368 62.7447 60.1379L65.0216 63.5827L76.9997 55.6562C77.9005 55.0601 79.1136 55.3073 79.7092 56.2085ZM76.0794 74.0078C76.9802 73.4117 77.2276 72.1979 76.632 71.2968C76.0364 70.3957 74.8233 70.1484 73.9225 70.7445L61.9444 78.6711L59.6675 75.2263C59.0719 74.3251 57.8588 74.0779 56.958 74.674C56.0572 75.2701 55.8098 76.4838 56.4054 77.385L59.7608 82.4614C60.3564 83.3625 61.5694 83.6098 62.4702 83.0137L76.0794 74.0078Z" fill="url(#paint3_linear_913_6328)"/>
<defs>
<filter id="filter0_d_913_6328" x="9.85254" y="24.29" width="73.998" height="81.9735" filterUnits="userSpaceOnUse" color-interpolation-filters="sRGB">
<feFlood flood-opacity="0" result="BackgroundImageFix"/>
<feColorMatrix in="SourceAlpha" type="matrix" values="0 0 0 0 0 0 0 0 0 0 0 0 0 0 0 0 0 0 127 0" result="hardAlpha"/>
<feOffset dy="4"/>
<feGaussianBlur stdDeviation="5"/>
<feComposite in2="hardAlpha" operator="out"/>
<feColorMatrix type="matrix" values="0 0 0 0 0.22917 0 0 0 0 0.178299 0 0 0 0 0.541667 0 0 0 0.7 0"/>
<feBlend mode="normal" in2="BackgroundImageFix" result="effect1_dropShadow_913_6328"/>
<feBlend mode="normal" in="SourceGraphic" in2="effect1_dropShadow_913_6328" result="shape"/>
</filter>
<filter id="filter1_d_913_6328" x="19.1035" y="9.79446" width="98.7324" height="110.774" filterUnits="userSpaceOnUse" color-interpolation-filters="sRGB">
<feFlood flood-opacity="0" result="BackgroundImageFix"/>
<feColorMatrix in="SourceAlpha" type="matrix" values="0 0 0 0 0 0 0 0 0 0 0 0 0 0 0 0 0 0 127 0" result="hardAlpha"/>
<feOffset dy="4"/>
<feGaussianBlur stdDeviation="10"/>
<feComposite in2="hardAlpha" operator="out"/>
<feColorMatrix type="matrix" values="0 0 0 0 0.22917 0 0 0 0 0.178299 0 0 0 0 0.541667 0 0 0 0.7 0"/>
<feBlend mode="normal" in2="BackgroundImageFix" result="effect1_dropShadow_913_6328"/>
<feBlend mode="normal" in="SourceGraphic" in2="effect1_dropShadow_913_6328" result="shape"/>
</filter>
<linearGradient id="paint0_linear_913_6328" x1="8.53542" y1="-24.9912" x2="108.007" y2="163.944" gradientUnits="userSpaceOnUse">
<stop stop-color="#9378E1"/>
<stop offset="1" stop-color="#3F2DAD"/>
</linearGradient>
<linearGradient id="paint1_linear_913_6328" x1="24.6075" y1="37.7365" x2="36.969" y2="93.8191" gradientUnits="userSpaceOnUse">
<stop stop-color="#63F2D8"/>
<stop offset="1" stop-color="#835AF7"/>
</linearGradient>
<linearGradient id="paint2_linear_913_6328" x1="67.1222" y1="45.3922" x2="77.7877" y2="109.726" gradientUnits="userSpaceOnUse">
<stop stop-color="#63F2D8"/>
<stop offset="1" stop-color="#835AF7"/>
</linearGradient>
<linearGradient id="paint3_linear_913_6328" x1="33.9633" y1="87.7736" x2="89.6349" y2="17.8131" gradientUnits="userSpaceOnUse">
<stop stop-color="#271E5A"/>
<stop offset="1" stop-color="#7E5ACA"/>
</linearGradient>
</defs>
</svg>
