<svg width="125" height="120" viewBox="0 0 125 120" fill="none" xmlns="http://www.w3.org/2000/svg">
<circle cx="62" cy="60" r="60" fill="url(#paint0_linear_913_6311)"/>
<g filter="url(#filter0_d_913_6311)">
<path d="M69.0213 51.9552C68.6115 53.3135 68.0755 54.6166 67.4161 55.8435L71.5645 63.7934C70.1642 65.5642 68.5668 67.1615 66.7961 68.5618L58.8461 64.4135C57.6192 65.0755 56.3161 65.6115 54.9578 66.0187L52.2675 74.5834C51.1589 74.7148 50.0397 74.7989 48.8994 74.7989C47.7592 74.7989 46.64 74.7148 45.534 74.5861L42.8437 66.0213C41.4854 65.6141 40.1823 65.0755 38.9554 64.4161L31.0054 68.5645C29.2347 67.1642 27.6373 65.5668 26.237 63.7961L30.3854 55.8461C29.7233 54.6192 29.1874 53.3161 28.7802 51.9578L20.2154 49.2675C20.0841 48.1588 20 47.0397 20 45.8994C20 44.7592 20.0841 43.64 20.2128 42.534L28.7775 39.8437C29.1848 38.4854 29.7233 37.1823 30.3828 35.9554L26.2344 28.0054C27.6347 26.2347 29.2321 24.6373 31.0028 23.237L38.9528 27.3854C40.1797 26.7233 41.4828 26.1874 42.8411 25.7802L45.5313 17.2154C46.64 17.0841 47.7592 17 48.8994 17C50.0397 17 51.1588 17.0841 52.2649 17.2128L54.9552 25.7775C56.3135 26.1848 57.6166 26.7233 58.8435 27.3828L66.7934 23.2344C68.5642 24.6347 70.1615 26.2321 71.5618 28.0028L67.4135 35.9528C68.0755 37.1797 68.6115 38.4828 69.0187 39.8411L77.5834 42.5313C77.7148 43.64 77.7989 44.7592 77.7989 45.8994C77.7989 47.0397 77.7148 48.1588 77.5861 49.2649L69.0213 51.9552ZM48.8994 35.3906C43.0959 35.3906 38.3906 40.0959 38.3906 45.8994C38.3906 51.703 43.0959 56.4083 48.8994 56.4083C54.703 56.4083 59.4083 51.703 59.4083 45.8994C59.4083 40.0959 54.703 35.3906 48.8994 35.3906Z" fill="url(#paint1_linear_913_6311)"/>
</g>
<g filter="url(#filter1_d_913_6311)">
<path d="M96.2285 69.9686C95.3761 71.2542 94.3874 72.4136 93.2724 73.4334L94.0697 79.5906C92.4403 80.685 90.6884 81.5762 88.8443 82.2488L84.3372 77.9788C82.859 78.2804 81.3371 78.396 79.7962 78.3279L76.0008 83.2543C75.0502 83.0687 74.1018 82.8415 73.1571 82.5339C72.2124 82.2263 71.3121 81.8514 70.4344 81.4417L70.2676 75.2251C68.9821 74.3727 67.8226 73.384 66.8028 72.269L60.6457 73.0663C59.5512 71.4369 58.66 69.685 57.9874 67.8409L62.2574 63.3339C61.9558 61.8556 61.8402 60.3337 61.9075 58.7954L56.9811 55C57.1676 54.0468 57.3947 53.0984 57.7023 52.1537C58.01 51.209 58.3848 50.3087 58.7945 49.4311L65.0111 49.2642C65.8635 47.9787 66.8522 46.8192 67.9664 45.802L67.1691 39.6448C68.7985 38.5504 70.5504 37.6591 72.3944 36.9866L76.9015 41.2566C78.3798 40.955 79.9016 40.8394 81.4426 40.9075L85.2379 35.9811C86.1894 36.1642 87.1378 36.3913 88.0825 36.699C89.0272 37.0066 89.9275 37.3814 90.8052 37.7912L90.972 44.0078C92.2575 44.8601 93.417 45.8488 94.4368 46.9638L100.594 46.1665C101.688 47.7959 102.58 49.5478 103.252 51.3919L98.9822 55.899C99.2838 57.3772 99.3993 58.8991 99.3313 60.4401L104.258 64.2354C104.072 65.186 103.845 66.1344 103.537 67.0791C103.23 68.0238 102.855 68.9241 102.445 69.8018L96.2285 69.9686ZM83.1074 51.9773C78.888 50.6033 74.3546 52.9095 72.9806 57.1289C71.6067 61.3482 73.9129 65.8816 78.1322 67.2556C82.3516 68.6295 86.885 66.3234 88.2589 62.104C89.6329 57.8846 87.3267 53.3512 83.1074 51.9773Z" fill="url(#paint2_linear_913_6311)"/>
</g>
<g filter="url(#filter2_d_913_6311)">
<path d="M74.6722 85.1119C74.3028 86.4432 73.7822 87.705 73.1154 88.8828L75.5021 93.9058C74.4179 95.2899 73.1729 96.5348 71.7889 97.6191L66.7658 95.2323C65.5904 95.8992 64.3263 96.4197 62.995 96.7891L61.1287 102.038C60.2676 102.143 59.3968 102.213 58.5069 102.213C57.6169 102.213 56.7462 102.143 55.885 102.038L54.0188 96.7891C52.6875 96.4197 51.4257 95.8992 50.2479 95.2323L45.2249 97.6191C43.8408 96.5348 42.5959 95.2899 41.5116 93.9058L43.8984 88.8828C43.2315 87.7074 42.711 86.4432 42.3416 85.1143L37.0931 83.2481C36.9875 82.3845 36.918 81.5138 36.918 80.6238C36.918 79.7339 36.9875 78.8631 37.0931 78.002L42.3416 76.1357C42.711 74.8044 43.2315 73.5427 43.8984 72.3673L41.5116 67.3442C42.5959 65.9602 43.8408 64.7152 45.2249 63.631L50.2479 66.0177C51.4233 65.3509 52.6875 64.8303 54.0188 64.4609L55.885 59.2124C56.7462 59.1045 57.6169 59.0349 58.5069 59.0349C59.3968 59.0349 60.2676 59.1045 61.1287 59.21L62.995 64.4585C64.3263 64.8279 65.588 65.3485 66.7658 66.0153L71.7889 63.6286C73.1729 64.7128 74.4179 65.9578 75.5021 67.3418L73.1154 72.3649C73.7822 73.5403 74.3028 74.8044 74.6722 76.1357L79.9207 78.002C80.0262 78.8631 80.0958 79.7339 80.0958 80.6238C80.0958 81.5138 80.0262 82.3845 79.9207 83.2457L74.6722 85.1119ZM58.5069 73.4275C54.5321 73.4275 51.3106 76.6491 51.3106 80.6238C51.3106 84.5986 54.5321 87.8201 58.5069 87.8201C62.4816 87.8201 65.7032 84.5986 65.7032 80.6238C65.7032 76.6491 62.4816 73.4275 58.5069 73.4275Z" fill="url(#paint3_linear_913_6311)"/>
</g>
<defs>
<filter id="filter0_d_913_6311" x="0" y="1" width="97.7988" height="97.7989" filterUnits="userSpaceOnUse" color-interpolation-filters="sRGB">
<feFlood flood-opacity="0" result="BackgroundImageFix"/>
<feColorMatrix in="SourceAlpha" type="matrix" values="0 0 0 0 0 0 0 0 0 0 0 0 0 0 0 0 0 0 127 0" result="hardAlpha"/>
<feOffset dy="4"/>
<feGaussianBlur stdDeviation="10"/>
<feComposite in2="hardAlpha" operator="out"/>
<feColorMatrix type="matrix" values="0 0 0 0 0.22917 0 0 0 0 0.178299 0 0 0 0 0.541667 0 0 0 0.7 0"/>
<feBlend mode="normal" in2="BackgroundImageFix" result="effect1_dropShadow_913_6311"/>
<feBlend mode="normal" in="SourceGraphic" in2="effect1_dropShadow_913_6311" result="shape"/>
</filter>
<filter id="filter1_d_913_6311" x="36.9814" y="19.9811" width="87.2764" height="87.2732" filterUnits="userSpaceOnUse" color-interpolation-filters="sRGB">
<feFlood flood-opacity="0" result="BackgroundImageFix"/>
<feColorMatrix in="SourceAlpha" type="matrix" values="0 0 0 0 0 0 0 0 0 0 0 0 0 0 0 0 0 0 127 0" result="hardAlpha"/>
<feOffset dy="4"/>
<feGaussianBlur stdDeviation="10"/>
<feComposite in2="hardAlpha" operator="out"/>
<feColorMatrix type="matrix" values="0 0 0 0 0.22917 0 0 0 0 0.178299 0 0 0 0 0.541667 0 0 0 0.7 0"/>
<feBlend mode="normal" in2="BackgroundImageFix" result="effect1_dropShadow_913_6311"/>
<feBlend mode="normal" in="SourceGraphic" in2="effect1_dropShadow_913_6311" result="shape"/>
</filter>
<filter id="filter2_d_913_6311" x="26.918" y="53.0349" width="63.1777" height="63.1778" filterUnits="userSpaceOnUse" color-interpolation-filters="sRGB">
<feFlood flood-opacity="0" result="BackgroundImageFix"/>
<feColorMatrix in="SourceAlpha" type="matrix" values="0 0 0 0 0 0 0 0 0 0 0 0 0 0 0 0 0 0 127 0" result="hardAlpha"/>
<feOffset dy="4"/>
<feGaussianBlur stdDeviation="5"/>
<feComposite in2="hardAlpha" operator="out"/>
<feColorMatrix type="matrix" values="0 0 0 0 0.22917 0 0 0 0 0.178299 0 0 0 0 0.541667 0 0 0 0.7 0"/>
<feBlend mode="normal" in2="BackgroundImageFix" result="effect1_dropShadow_913_6311"/>
<feBlend mode="normal" in="SourceGraphic" in2="effect1_dropShadow_913_6311" result="shape"/>
</filter>
<linearGradient id="paint0_linear_913_6311" x1="10.5354" y1="-24.9912" x2="110.007" y2="163.944" gradientUnits="userSpaceOnUse">
<stop stop-color="#9378E1"/>
<stop offset="1" stop-color="#3F2DAD"/>
</linearGradient>
<linearGradient id="paint1_linear_913_6311" x1="37.1026" y1="27.8017" x2="47.7126" y2="88.3308" gradientUnits="userSpaceOnUse">
<stop stop-color="#63F2D8"/>
<stop offset="1" stop-color="#835AF7"/>
</linearGradient>
<linearGradient id="paint2_linear_913_6311" x1="76.7086" y1="42.654" x2="65.4786" y2="96.2029" gradientUnits="userSpaceOnUse">
<stop stop-color="#63F2D8"/>
<stop offset="1" stop-color="#835AF7"/>
</linearGradient>
<linearGradient id="paint3_linear_913_6311" x1="52.1198" y1="72.6505" x2="57.665" y2="116.078" gradientUnits="userSpaceOnUse">
<stop stop-color="#63F2D8"/>
<stop offset="1" stop-color="#835AF7"/>
</linearGradient>
</defs>
</svg>
