<?xml version="1.0" encoding="UTF-8" standalone="no"?>
<!-- Created with Inkscape (http://www.inkscape.org/) -->

<svg
   width="31.75mm"
   height="31.750008mm"
   viewBox="0 0 31.75 31.750008"
   version="1.1"
   id="svg5"
   xml:space="preserve"
   xmlns:inkscape="http://www.inkscape.org/namespaces/inkscape"
   xmlns:sodipodi="http://sodipodi.sourceforge.net/DTD/sodipodi-0.dtd"
   xmlns:xlink="http://www.w3.org/1999/xlink"
   xmlns="http://www.w3.org/2000/svg"
   xmlns:svg="http://www.w3.org/2000/svg"><sodipodi:namedview
     id="namedview7"
     pagecolor="#ffffff"
     bordercolor="#000000"
     borderopacity="0.25"
     inkscape:showpageshadow="2"
     inkscape:pageopacity="0.0"
     inkscape:pagecheckerboard="0"
     inkscape:deskcolor="#d1d1d1"
     inkscape:document-units="mm"
     showgrid="false" /><defs
     id="defs2"><linearGradient
       inkscape:collect="always"
       id="linearGradient8737"><stop
         style="stop-color:#63f2d8;stop-opacity:1;"
         offset="0"
         id="stop8733" /><stop
         style="stop-color:#835af6;stop-opacity:1;"
         offset="1"
         id="stop8735" /></linearGradient><linearGradient
       inkscape:collect="always"
       id="linearGradient6213"><stop
         style="stop-color:#63f2d8;stop-opacity:1;"
         offset="0"
         id="stop6209" /><stop
         style="stop-color:#835af6;stop-opacity:0;"
         offset="1"
         id="stop6211" /></linearGradient><linearGradient
       id="paint0_linear_963_9196"
       x1="26.531515"
       y1="10.14259"
       x2="89.219894"
       y2="113.00455"
       gradientUnits="userSpaceOnUse"><stop
         stop-color="#9378E1"
         id="stop115" /><stop
         offset="1"
         stop-color="#3F2DAD"
         id="stop117" /></linearGradient><linearGradient
       inkscape:collect="always"
       xlink:href="#linearGradient8737"
       id="linearGradient6215"
       x1="71.685547"
       y1="-8.5811195"
       x2="-36.612167"
       y2="121.21771"
       gradientUnits="userSpaceOnUse" /><linearGradient
       inkscape:collect="always"
       xlink:href="#linearGradient6213"
       id="linearGradient6217"
       gradientUnits="userSpaceOnUse"
       x1="68.551758"
       y1="1.1024743"
       x2="-30.753769"
       y2="124.3808"
       gradientTransform="translate(-3.4057136,2.5991699)" /><filter
       style="color-interpolation-filters:sRGB"
       inkscape:label="Drop Shadow"
       id="filter7642"
       x="-0.088373058"
       y="-0.087846965"
       width="1.1767461"
       height="1.2244978"><feFlood
         flood-opacity="0.768627"
         flood-color="rgb(88,69,138)"
         result="flood"
         id="feFlood7632" /><feComposite
         in="flood"
         in2="SourceGraphic"
         operator="in"
         result="composite1"
         id="feComposite7634" /><feGaussianBlur
         in="composite1"
         stdDeviation="3"
         result="blur"
         id="feGaussianBlur7636" /><feOffset
         dx="0"
         dy="4"
         result="offset"
         id="feOffset7638" /><feComposite
         in="SourceGraphic"
         in2="offset"
         operator="over"
         result="composite2"
         id="feComposite7640" /></filter></defs><g
     inkscape:label="Layer 1"
     inkscape:groupmode="layer"
     id="layer1"
     transform="translate(-81.297968,-118.14959)"><g
       style="fill:none"
       id="g130"
       transform="matrix(0.26458333,0,0,0.26458333,81.297967,118.14959)"><circle
         cx="60"
         cy="60"
         r="60"
         fill="url(#paint0_linear_963_9196)"
         id="circle113"
         style="fill:url(#paint0_linear_963_9196)" /></g><g
       style="fill:url(#linearGradient6215);fill-opacity:1;filter:url(#filter7642)"
       id="g4392"
       transform="matrix(0.26458333,0,0,0.26458333,85.496774,124.37744)"><path
         fill-rule="evenodd"
         clip-rule="evenodd"
         d="m 47.582686,35.21597 h 30.2423 c 0.5755,0 1.0419,-0.4664 1.0419,-1.0418 V 3.9340099 c 0,-0.575381 -0.4664,-1.041822 -1.0419,-1.041822 l -30.2423,-3e-6 c -0.5754,0 -1.0419,0.466441 -1.0419,1.041825 V 34.17417 c 0,0.5754 0.4665,1.0418 1.0419,1.0418 z m 20.4714,24.9768 c 0.9282,0 1.3931,1.1222 0.7367,1.7785 l -22.576,22.5744 c -0.6564,0.6563 -1.7787,0.1915 -1.7787,-0.7367 v -22.5744 c 0,-0.5754 0.4665,-1.0418 1.0419,-1.0418 z M -1.5619136,38.92097 c -0.928242,0 -1.393102,-1.1222 -0.73674,-1.7785 L 20.277386,14.56807 c 0.6564,-0.6563 1.7786,-0.1915 1.7786,0.7367 v 22.5744 c 0,0.5754 -0.4664,1.0418 -1.0419,1.0418 z m 29.8693996,16.0626 h 41.6762 c 0.5754,0 1.0419,-0.4664 1.0419,-1.0418 v -12.502 c 0,-0.5753 -0.4665,-1.0418 -1.0419,-1.0418 h -27.6105 c -0.5754,0 -1.0419,-0.4664 -1.0419,-1.0418 V 12.26862 c 0,-0.57539 -0.4665,-1.04182 -1.0419,-1.04182 l -11.9819,-1e-5 c -0.5755,0 -1.0419,0.46644 -1.0419,1.04183 v 41.67315 c 0,0.5754 0.4664,1.0418 1.0419,1.0418 z"
         fill="#39227a"
         id="path4383"
         style="fill:url(#linearGradient6217);fill-opacity:1" /></g></g></svg>
