<?xml version="1.0" encoding="utf-8"?>
<!-- Generator: Adobe Illustrator 27.6.1, SVG Export Plug-In . SVG Version: 6.00 Build 0)  -->
<svg version="1.1" id="Layer_1" xmlns="http://www.w3.org/2000/svg" xmlns:xlink="http://www.w3.org/1999/xlink" x="0px" y="0px"
	 viewBox="0 0 1776.1 425" style="enable-background:new 0 0 1776.1 425;" xml:space="preserve">
<style type="text/css">
	.st0{fill:#1E2328;}
	.st1{fill:url(#SVGID_1_);}
	.st2{fill:url(#SVGID_00000059283970096840413380000014415257906524635786_);}
	.st3{fill-rule:evenodd;clip-rule:evenodd;fill:url(#SVGID_00000106109098390472324010000011060777491996553857_);}
	.st4{fill-rule:evenodd;clip-rule:evenodd;fill:url(#SVGID_00000142133754200812615720000003191263644364466305_);}
</style>
<path class="st0" d="M558.1,248.8h54.4V275H525V109.9h33.1V248.8z"/>
<path class="st0" d="M650.6,268.7c-10.1-5.6-18-13.5-23.8-23.8s-8.6-22.1-8.6-35.5s3-25.2,8.9-35.5s14-18.2,24.2-23.8
	c10.2-5.6,21.7-8.4,34.3-8.4s24,2.8,34.3,8.4s18.3,13.5,24.2,23.8s8.9,22.1,8.9,35.5s-3,25.2-9.1,35.5s-14.3,18.2-24.6,23.8
	c-10.3,5.6-21.9,8.4-34.7,8.4S660.7,274.3,650.6,268.7L650.6,268.7z M701.6,243.9c5.3-2.9,9.5-7.3,12.7-13.1
	c3.2-5.8,4.7-12.9,4.7-21.3c0-12.5-3.3-22-9.8-28.7s-14.5-10-24-10s-17.4,3.4-23.8,10c-6.4,6.7-9.6,16.3-9.6,28.7s3.1,22,9.3,28.7
	c6.2,6.7,14.1,10,23.5,10C690.6,248.3,696.3,246.8,701.6,243.9L701.6,243.9z"/>
<path class="st0" d="M774.7,173.9c5.5-10.2,13.2-18,22.9-23.6c9.8-5.6,21-8.4,33.6-8.4c16.2,0,29.7,4.1,40.3,12.2
	c10.6,8.1,17.8,19.5,21.4,34.2h-35.7c-1.9-5.7-5.1-10.1-9.6-13.4c-4.5-3.2-10.1-4.9-16.7-4.9c-9.5,0-16.9,3.4-22.5,10.3
	c-5.5,6.9-8.3,16.6-8.3,29.2s2.8,22.1,8.3,29s13,10.3,22.5,10.3c13.4,0,22.2-6,26.2-18H893c-3.6,14.2-10.8,25.5-21.5,33.8
	c-10.7,8.4-24.1,12.5-40.2,12.5c-12.6,0-23.8-2.8-33.6-8.4c-9.8-5.6-17.4-13.5-22.9-23.6c-5.5-10.2-8.3-22-8.3-35.6
	S769.2,184.1,774.7,173.9L774.7,173.9z"/>
<path class="st0" d="M909.7,173.8c5.3-10.2,12.4-18.1,21.5-23.6c9.1-5.5,19.2-8.3,30.4-8.3c9.8,0,18.3,2,25.7,5.9
	c7.3,3.9,13.2,8.9,17.6,14.9V144h33.4v131h-33.4v-19.2c-4.3,6.1-10.1,11.2-17.6,15.2s-16.1,6-25.9,6c-11,0-21.1-2.8-30.2-8.5
	c-9.1-5.7-16.2-13.7-21.5-24s-7.9-22.2-7.9-35.6S904.4,184,909.7,173.8z M1000.1,188.8c-3.2-5.8-7.4-10.2-12.8-13.2
	c-5.4-3.1-11.1-4.6-17.3-4.6s-11.8,1.5-17,4.5c-5.2,3-9.4,7.4-12.7,13.1s-4.8,12.6-4.8,20.5s1.6,14.8,4.8,20.7s7.5,10.5,12.8,13.6
	c5.3,3.2,10.9,4.7,16.9,4.7s11.9-1.5,17.3-4.6c5.4-3.1,9.6-7.5,12.8-13.2c3.2-5.8,4.7-12.6,4.7-20.7S1003.3,194.6,1000.1,188.8
	L1000.1,188.8z"/>
<path class="st0" d="M1101.3,100v175h-33.1V100H1101.3z"/>
<path class="st0" d="M1157.5,270.8c-9.2-3.9-16.5-9.6-21.9-17s-8.1-16.2-8.3-26.2h35.5c0.5,6.8,2.9,12.1,7.2,16.1
	c4.3,3.9,10.3,5.9,17.9,5.9s13.8-1.9,18.2-5.6c4.4-3.7,6.6-8.5,6.6-14.5c0-4.9-1.5-8.9-4.5-12.1c-3-3.1-6.7-5.6-11.2-7.5
	s-10.7-3.8-18.6-6c-10.7-3.1-19.4-6.3-26.1-9.3s-12.5-7.7-17.3-14c-4.8-6.2-7.2-14.5-7.2-25c0-9.8,2.4-18.3,7.3-25.5
	c4.9-7.2,11.7-12.8,20.6-16.7c8.8-3.9,18.9-5.8,30.3-5.8c17,0,30.9,4.1,41.5,12.4c10.6,8.3,16.5,19.8,17.6,34.6h-36.4
	c-0.3-5.7-2.7-10.4-7.2-14.1s-10.4-5.6-17.9-5.6c-6.5,0-11.6,1.7-15.5,5c-3.9,3.3-5.8,8.1-5.8,14.4c0,4.4,1.5,8.1,4.4,11
	s6.5,5.3,10.9,7.1c4.3,1.8,10.4,3.9,18.3,6.3c10.7,3.2,19.5,6.3,26.2,9.5c6.8,3.2,12.6,7.9,17.5,14.2c4.9,6.3,7.3,14.6,7.3,24.8
	c0,8.8-2.3,17-6.9,24.6c-4.6,7.6-11.3,13.6-20.1,18.1s-19.3,6.7-31.4,6.7C1177.1,276.7,1166.8,274.7,1157.5,270.8L1157.5,270.8z"/>
<path class="st0" d="M1311.8,171.2v63.4c0,4.4,1.1,7.6,3.2,9.6c2.1,2,5.7,3,10.8,3h15.4V275h-20.8c-27.9,0-41.9-13.6-41.9-40.7
	v-63.1h-15.6V144h15.6v-32.4h33.3V144h29.3v27.2H1311.8L1311.8,171.2z"/>
<path class="st0" d="M1362.1,173.8c5.3-10.2,12.4-18.1,21.5-23.6c9.1-5.5,19.2-8.3,30.4-8.3c9.8,0,18.3,2,25.7,5.9
	c7.3,3.9,13.2,8.9,17.6,14.9V144h33.3v131h-33.3v-19.2c-4.3,6.1-10.1,11.2-17.6,15.2s-16.1,6-25.9,6c-11,0-21.1-2.8-30.2-8.5
	c-9.1-5.7-16.2-13.7-21.5-24s-7.9-22.2-7.9-35.6S1356.8,184,1362.1,173.8z M1452.5,188.8c-3.2-5.8-7.4-10.2-12.8-13.2
	c-5.4-3.1-11.1-4.6-17.3-4.6s-11.8,1.5-17,4.5c-5.2,3-9.4,7.4-12.7,13.1s-4.8,12.6-4.8,20.5s1.6,14.8,4.8,20.7s7.5,10.5,12.8,13.6
	c5.3,3.2,10.9,4.7,16.9,4.7s11.9-1.5,17.3-4.6c5.4-3.1,9.6-7.5,12.8-13.2c3.2-5.8,4.7-12.6,4.7-20.7S1455.7,194.6,1452.5,188.8
	L1452.5,188.8z"/>
<path class="st0" d="M1520.4,173.9c5.5-10.2,13.2-18,22.9-23.6c9.8-5.6,21-8.4,33.6-8.4c16.2,0,29.7,4.1,40.3,12.2
	c10.6,8.1,17.8,19.5,21.4,34.2H1603c-1.9-5.7-5.1-10.1-9.6-13.4c-4.5-3.2-10.1-4.9-16.7-4.9c-9.5,0-16.9,3.4-22.5,10.3
	c-5.5,6.9-8.3,16.6-8.3,29.2s2.8,22.1,8.3,29s13,10.3,22.5,10.3c13.4,0,22.2-6,26.2-18h35.7c-3.6,14.2-10.8,25.5-21.5,33.8
	c-10.7,8.4-24.1,12.5-40.2,12.5c-12.6,0-23.8-2.8-33.6-8.4c-9.8-5.6-17.4-13.5-22.9-23.6c-5.5-10.2-8.3-22-8.3-35.6
	S1514.9,184.1,1520.4,173.9L1520.4,173.9z"/>
<path class="st0" d="M1733.5,275l-44.5-55.8V275h-33.1V100h33.1v99.6l44-55.6h43l-57.7,65.8l58.2,65.3L1733.5,275L1733.5,275z"/>
<radialGradient id="SVGID_1_" cx="218.0425" cy="220.95" r="379.8" gradientTransform="matrix(1 0 0 -1 0 427)" gradientUnits="userSpaceOnUse">
	<stop  offset="7.000000e-02" style="stop-color:#1B58F4"/>
	<stop  offset="0.71" style="stop-color:#74FFE6"/>
</radialGradient>
<path class="st1" d="M256,0h163c3.3,0,6,2.7,6,6v163c0,3.3-2.7,6-6,6H256c-3.3,0-6-2.7-6-6V6C250,2.7,252.7,0,256,0z"/>
<linearGradient id="SVGID_00000106147849424091744000000001152972971415709829_" gradientUnits="userSpaceOnUse" x1="467.5526" y1="464.4899" x2="137.2926" y2="142.3799" gradientTransform="matrix(1 0 0 -1 0 427)">
	<stop  offset="0.32" style="stop-color:#4979F6"/>
	<stop  offset="0.99" style="stop-color:#4D33BD"/>
</linearGradient>
<path style="fill:url(#SVGID_00000106147849424091744000000001152972971415709829_);" d="M156,275h213c3.3,0,6-2.7,6-6v-63
	c0-3.3-2.7-6-6-6H231c-3.3,0-6-2.7-6-6V56c0-3.3-2.7-6-6-6h-63c-3.3,0-6,2.7-6,6v213C150,272.3,152.7,275,156,275z"/>
<linearGradient id="SVGID_00000060017152749426189220000003534983565294090901_" gradientUnits="userSpaceOnUse" x1="155.9509" y1="338.2516" x2="21.3909" y2="203.6816" gradientTransform="matrix(1 0 0 -1 0 427)">
	<stop  offset="0.22" style="stop-color:#4D29B4"/>
	<stop  offset="0.36" style="stop-color:#4C33BC"/>
	<stop  offset="0.58" style="stop-color:#4B4ED2"/>
	<stop  offset="0.87" style="stop-color:#4979F6"/>
</linearGradient>
<path style="fill-rule:evenodd;clip-rule:evenodd;fill:url(#SVGID_00000060017152749426189220000003534983565294090901_);" d="
	M125,67.8v114.4c0,2.9-2.4,5.3-5.3,5.3H5.3c-4.7,0-7.1-5.7-3.8-9L116,64.1C119.3,60.7,125,63.1,125,67.8z"/>
<linearGradient id="SVGID_00000176755536788126276180000013925493700965178499_" gradientUnits="userSpaceOnUse" x1="332.5257" y1="154.2269" x2="210.6256" y2="32.3268" gradientTransform="matrix(1 0 0 -1 0 427)">
	<stop  offset="0.22" style="stop-color:#4D29B4"/>
	<stop  offset="0.36" style="stop-color:#4C33BC"/>
	<stop  offset="0.58" style="stop-color:#4B4ED2"/>
	<stop  offset="0.87" style="stop-color:#4979F6"/>
</linearGradient>
<path style="fill-rule:evenodd;clip-rule:evenodd;fill:url(#SVGID_00000176755536788126276180000013925493700965178499_);" d="
	M237.5,419.7V305.3c0-2.9,2.4-5.3,5.3-5.3h114.4c4.7,0,7.1,5.7,3.8,9L246.6,423.4C243.2,426.8,237.5,424.4,237.5,419.7z"/>
</svg>
