<svg width="200" height="200" viewBox="0 0 200 200" fill="none" xmlns="http://www.w3.org/2000/svg">
<g clip-path="url(#clip0_660_2968)">
<rect width="200" height="200" rx="30" fill="url(#paint0_linear_660_2968)"/>
<g opacity="0.25" filter="url(#filter0_f_660_2968)">
<rect x="69.5635" y="24" width="121.436" height="129.532" rx="10" fill="#A16AE8"/>
</g>
<rect x="58.3379" y="96.4966" width="65.5608" height="28.7621" rx="2" transform="rotate(45 58.3379 96.4966)" fill="url(#paint1_linear_660_2968)"/>
<path d="M66.8865 145.685L151.111 61.4599C151.892 60.6789 153.159 60.6789 153.94 61.4599L168.619 76.1395C169.4 76.9205 169.4 78.1868 168.619 78.9679L84.3944 163.193L66.8865 145.685Z" fill="url(#paint2_linear_660_2968)"/>
<ellipse cx="89.2424" cy="66.6017" rx="23.971" ry="23.172" fill="url(#paint3_linear_660_2968)"/>
<path fill-rule="evenodd" clip-rule="evenodd" d="M89.4215 77.0793C89.4212 77.0792 89.4209 77.0792 89.4206 77.0791C89.4194 77.0785 80.734 81.6451 80.734 81.6451C80.0377 82.0106 79.2249 81.4199 79.3577 80.6451L81.0161 70.973L73.9898 64.1238C73.4262 63.5748 73.7374 62.6191 74.5154 62.5059L84.226 61.0948L88.5687 52.2956C88.7426 51.9433 89.081 51.7668 89.4194 51.7668L89.4198 51.768V51.7668C89.7582 51.7668 90.0966 51.9433 90.2705 52.2956L94.6132 61.0948L104.324 62.5059C105.102 62.6191 105.413 63.5748 104.849 64.1238L97.8231 70.973L99.4815 80.6451C99.6143 81.4199 98.8015 82.0106 98.1052 81.6451L89.4215 77.0793Z" fill="url(#paint4_linear_660_2968)"/>
</g>
<defs>
<filter id="filter0_f_660_2968" x="-20.4365" y="-66" width="301.436" height="309.532" filterUnits="userSpaceOnUse" color-interpolation-filters="sRGB">
<feFlood flood-opacity="0" result="BackgroundImageFix"/>
<feBlend mode="normal" in="SourceGraphic" in2="BackgroundImageFix" result="shape"/>
<feGaussianBlur stdDeviation="45" result="effect1_foregroundBlur_660_2968"/>
</filter>
<linearGradient id="paint0_linear_660_2968" x1="53.2895" y1="186.785" x2="284.37" y2="136.108" gradientUnits="userSpaceOnUse">
<stop stop-color="#12123E"/>
<stop offset="1" stop-color="#3E3174"/>
</linearGradient>
<linearGradient id="paint1_linear_660_2968" x1="52.2444" y1="102.699" x2="92.1624" y2="89.424" gradientUnits="userSpaceOnUse">
<stop stop-color="#9378E1"/>
<stop offset="1" stop-color="#503EBB"/>
</linearGradient>
<linearGradient id="paint2_linear_660_2968" x1="154.497" y1="73.7929" x2="71.192" y2="147.593" gradientUnits="userSpaceOnUse">
<stop stop-color="#63ECD3"/>
<stop offset="1" stop-color="#835AF7"/>
</linearGradient>
<linearGradient id="paint3_linear_660_2968" x1="120.928" y1="14.3981" x2="108.791" y2="93.6534" gradientUnits="userSpaceOnUse">
<stop stop-color="#9378E1"/>
<stop offset="1" stop-color="#3F2DAD"/>
</linearGradient>
<linearGradient id="paint4_linear_660_2968" x1="93.9979" y1="61.4858" x2="52.112" y2="102.868" gradientUnits="userSpaceOnUse">
<stop stop-color="#75FFE6"/>
<stop offset="1" stop-color="#835AF7"/>
</linearGradient>
<clipPath id="clip0_660_2968">
<rect width="200" height="200" rx="30" fill="white"/>
</clipPath>
</defs>
</svg>
