<svg width="200" height="200" viewBox="0 0 200 200" fill="none" xmlns="http://www.w3.org/2000/svg">
<rect width="200" height="200" rx="30" fill="#1B183E"/>
<path d="M100.658 37.333C66.4265 37.333 38.666 65.7945 38.666 100.904C38.666 128.986 56.429 152.809 81.074 161.223C84.174 161.808 85.3055 159.846 85.3055 158.16C85.3055 156.648 85.2513 152.651 85.2203 147.348C67.9765 151.187 64.334 138.824 64.334 138.824C61.5208 131.479 57.452 129.524 57.452 129.524C51.8178 125.583 57.8705 125.662 57.8705 125.662C64.0938 126.113 67.3643 132.215 67.3643 132.215C72.8978 141.927 81.88 139.125 85.414 137.494C85.972 133.387 87.5763 130.585 89.351 128.994C75.587 127.387 61.11 121.934 61.11 97.5802C61.11 90.6389 63.528 84.964 67.496 80.5159C66.8528 78.9092 64.7293 72.4429 68.1005 63.6971C68.1005 63.6971 73.3085 61.9875 85.1505 70.2109C90.095 68.8021 95.396 68.0977 100.674 68.0739C105.936 68.1056 111.245 68.8021 116.197 70.2188C128.031 61.9954 133.232 63.705 133.232 63.705C136.611 72.4587 134.487 78.9172 133.852 80.5239C137.827 84.972 140.222 90.6468 140.222 97.5881C140.222 122.005 125.73 127.379 111.919 128.954C114.143 130.917 116.127 134.795 116.127 140.724C116.127 149.224 116.05 156.078 116.05 158.16C116.05 159.861 117.166 161.84 120.312 161.215C144.919 152.794 162.666 128.978 162.666 100.904C162.666 65.7945 134.906 37.333 100.658 37.333Z" fill="white"/>
</svg>
