<svg xmlns="http://www.w3.org/2000/svg" width="525" height="500" viewBox="0 0 525 500"><path fill="#F64060" d="M452.753 321.453c.041 45.508-32.731 84.711-77.295 92.419-5.611.963-11.277 1.533-16.971 1.479-1.92-.021-2.674.747-3.283 2.506-8.897 25.544-26.652 40.771-53.473 44.611-17.743 2.538-33.844-2.22-47.958-13.313-1.966-1.546-3.168-1.572-5.218-.107-16.508 11.807-35.017 17.036-55.229 15.815-39.441-2.381-72.627-32.526-78.835-71.398-.427-2.687-.881-5.394-.922-8.102-.041-2.252-.896-3.121-3.047-3.542-11.941-2.328-22.777-7.246-32.337-14.729-17.594-13.775-28.15-31.761-30.607-54.009-2.802-25.464 5.063-47.481 22.975-65.828 1.444-1.472 1.534-2.497.549-4.228-6.886-12.022-10.15-25.043-9.62-38.851 1.322-34.461 25.302-62.932 58.657-69.981 3.859-.82 5.882-2.333 7.578-5.99 16.452-35.445 44.076-57.002 82.409-64.112 26.909-4.994 52.294.353 75.85 14.208 1.98 1.168 3.638 1.262 5.781.638 37.413-10.855 70.564-2.958 98.708 23.803 16.644 15.822 25.763 35.846 28.463 58.69.591 4.994.86 10.035.48 15.056-.143 1.899.441 2.693 2.239 3.358 16.866 6.243 28.496 17.885 33.584 35.105 6.337 21.42 1.014 40.203-14.992 55.821-1.387 1.356-1.094 2.186-.308 3.541 8.459 14.573 12.841 30.259 12.822 47.14zm-166.939-7.307c.014 19.363 12.444 36.477 30.071 42.292 8.834 2.917 17.946 4.301 27.195 4.708 6.603.285 13.195-.176 19.296-3.217 4.797-2.395 7.057-6.351 6.84-11.622-.217-5.306-2.593-9.274-7.668-11.386-1.764-.733-3.555-1.33-5.428-1.655-5.598-.999-11.223-1.84-16.793-2.944-9.193-1.831-13.048-6.697-13.17-15.993-.107-8.223 2.124-15.979 4.654-23.652 4.628-14.045 10.868-27.431 16.848-40.927 5.773-13.033 11.825-25.959 15.903-39.686 2.246-7.538 3.318-15.096 1.276-22.892-3.108-11.833-10.199-19.764-22.426-22.045-11.194-2.083-22.336-2.32-32.459 4.356-3.366 2.212-6.603 1.683-9.525-.896-2.232-1.961-4.356-4.037-6.541-6.052-10.326-9.533-23.978-10.001-35.064-1.295-4.473 3.514-8.237 7.871-13.096 10.924-4.342 2.727-8.72 3.5-13.528.936-4.58-2.443-9.322-4.593-14.052-6.737-4.791-2.164-9.432-4.837-14.825-5.292-17.058-1.452-34.909 8.685-42.434 24.094-3.339 6.819-6.065 13.903-8.65 21.033-11.936 32.962-21.658 66.629-31.72 100.18-4.506 15.016.812 29.792 13.527 37.902 9.92 6.322 20.782 7.885 32.027 4.506 9.11-2.742 14.099-10.075 17.586-18.313 11.588-27.329 22.024-55.122 33.07-82.668 3.04-7.58 5.983-15.192 9.208-22.69 3.256-7.571 12.612-10.15 18.162-5.129 3.388 3.065 4.281 7.145 3.949 11.507-.365 4.662-2.171 8.962-3.867 13.244-7.187 18.17-14.507 36.287-21.726 54.443-1.459 3.672-3.04 7.314-3.685 11.255-1.105 6.767 1.574 12.765 7.109 15.152 5.647 2.437 11.509 2.844 17.363.719 6.812-2.469 10.883-7.802 14.019-13.964 10.775-21.16 21.467-42.372 32.235-63.533 4.974-9.776 10.035-19.506 15.116-29.224 1.888-3.602 4.1-7.015 7.627-9.254 3.184-2.015 6.615-2.165 9.879-.332 3.185 1.784 3.398 5.042 3.264 8.258-.073 1.729-.557 3.419-1.222 5.027-1.396 3.344-2.7 6.738-4.248 10.016-8.956 18.841-18.048 37.609-26.924 56.491-3.741 7.969-7.635 15.976-7.173 24.355zm125.624 138.855c.021-12.498-10.455-22.948-23.056-22.982-12.912-.047-23.387 10.286-23.443 23.104-.054 12.53 10.6 23.162 23.199 23.178 12.777.013 23.28-10.489 23.3-23.3zM21.931 261.48c12.152.027 22.377-10.13 22.329-22.173-.055-12.063-10.062-22.065-22.112-22.099C9.798 217.175-.007 226.973 0 239.342c.01 12.239 9.786 22.111 21.931 22.138zM294.038 13.766c-12.213-.068-22.167 9.696-22.236 21.8-.074 12.091 9.845 22.025 21.997 22.038a21.764 21.764 0 0 0 21.848-21.801c.029-12.171-9.586-21.976-21.609-22.037zM473.854 150.79c-.054-10.036-8.61-18.571-18.686-18.639-10.286-.074-18.999 8.618-18.93 18.883.073 10.239 8.379 18.448 18.679 18.462 10.611.021 18.997-8.27 18.937-18.706zM88.601 97.201c0 9.425 7.335 16.82 16.698 16.834 9.484.013 16.841-7.422 16.807-16.983-.034-9.274-7.382-16.528-16.712-16.5-9.595.019-16.788 7.15-16.793 16.649zm175.406 388.721c.081-7.85-6.378-14.315-14.317-14.343-8.149-.025-14.549 6.29-14.528 14.33.021 7.931 6.388 14.214 14.394 14.214 7.999.007 14.382-6.263 14.451-14.201zm223.974-223.043c-7.627-.055-14.243 6.561-14.182 14.181.066 7.53 6.352 13.712 13.964 13.727 7.98.015 13.965-5.861 13.984-13.747.022-7.804-6.106-14.107-13.766-14.161zM152.997-.123c-6.724-.027-11.914 5.109-11.914 11.8 0 6.649 5.244 11.819 11.962 11.785 6.52-.034 11.629-5.232 11.629-11.834.001-6.663-5.028-11.717-11.677-11.751zm361.594 199.629c-5.481-.062-10.448 4.844-10.517 10.401-.074 5.747 4.709 10.53 10.544 10.544 5.795.021 10.34-4.485 10.381-10.306a10.486 10.486 0 0 0-10.408-10.639zM99.538 406.504c.026-5.564-4.771-10.354-10.422-10.407-5.728-.049-10.437 4.77-10.396 10.632.047 5.727 4.695 10.251 10.484 10.211 5.68-.035 10.315-4.71 10.334-10.436z"/><path fill="#FFF" d="M285.814 314.146c.014 19.363 12.444 36.477 30.071 42.292 8.834 2.917 17.946 4.301 27.195 4.708 6.603.285 13.195-.176 19.296-3.217 4.797-2.395 7.057-6.351 6.84-11.622-.217-5.306-2.593-9.274-7.668-11.386-1.764-.733-3.555-1.33-5.428-1.655-5.598-.999-11.223-1.84-16.793-2.944-9.193-1.831-13.048-6.697-13.17-15.993-.107-8.223 2.124-15.979 4.654-23.652 4.628-14.045 10.868-27.431 16.848-40.927 5.773-13.033 11.825-25.959 15.903-39.686 2.246-7.538 3.318-15.096 1.276-22.892-3.108-11.833-10.199-19.764-22.426-22.045-11.194-2.083-22.336-2.32-32.459 4.356-3.366 2.212-6.603 1.683-9.525-.896-2.232-1.961-4.356-4.037-6.541-6.052-10.326-9.533-23.978-10.001-35.064-1.295-4.473 3.514-8.237 7.871-13.096 10.924-4.342 2.727-8.72 3.5-13.528.936-4.58-2.443-9.322-4.593-14.052-6.737-4.791-2.164-9.432-4.837-14.825-5.292-17.058-1.452-34.909 8.685-42.434 24.094-3.339 6.819-6.065 13.903-8.65 21.033-11.936 32.962-21.658 66.629-31.72 100.18-4.506 15.016.812 29.792 13.527 37.902 9.92 6.322 20.782 7.885 32.027 4.506 9.11-2.742 14.099-10.075 17.586-18.313 11.588-27.329 22.024-55.122 33.07-82.668 3.04-7.58 5.983-15.192 9.208-22.69 3.256-7.571 12.612-10.15 18.162-5.129 3.388 3.065 4.281 7.145 3.949 11.507-.365 4.662-2.171 8.962-3.867 13.244-7.187 18.17-14.507 36.287-21.726 54.443-1.459 3.672-3.04 7.314-3.685 11.255-1.105 6.767 1.574 12.765 7.109 15.152 5.647 2.437 11.509 2.844 17.363.719 6.812-2.469 10.883-7.802 14.019-13.964 10.775-21.16 21.467-42.372 32.235-63.533 4.974-9.776 10.035-19.506 15.116-29.224 1.888-3.602 4.1-7.015 7.627-9.254 3.184-2.015 6.615-2.165 9.879-.332 3.185 1.784 3.398 5.042 3.264 8.258-.073 1.729-.557 3.419-1.222 5.027-1.396 3.344-2.7 6.738-4.248 10.016-8.956 18.841-18.048 37.609-26.924 56.491-3.741 7.969-7.635 15.976-7.173 24.355z"/></svg>