<svg width="201" height="201" viewBox="0 0 201 201" fill="none" xmlns="http://www.w3.org/2000/svg">
<rect x="0.890625" y="0.400391" width="200" height="200" rx="30" fill="#F8F8F8"/>
<path d="M66.7232 115.862C66.7232 122.76 61.1477 128.335 54.2493 128.335C47.3508 128.335 41.7754 122.76 41.7754 115.862C41.7754 108.963 47.3508 103.388 54.2493 103.388H66.7232V115.862ZM72.9601 115.862C72.9601 108.963 78.5355 103.388 85.434 103.388C92.3324 103.388 97.9079 108.963 97.9079 115.862V147.046C97.9079 153.945 92.3324 159.52 85.434 159.52C78.5355 159.52 72.9601 153.945 72.9601 147.046V115.862Z" fill="#E01E5A"/>
<path d="M85.4347 65.7769C78.5363 65.7769 72.9608 60.2014 72.9608 53.303C72.9608 46.4045 78.5363 40.8291 85.4347 40.8291C92.3332 40.8291 97.9086 46.4045 97.9086 53.303V65.7769H85.4347ZM85.4347 72.1083C92.3332 72.1083 97.9086 77.6838 97.9086 84.5822C97.9086 91.4806 92.3332 97.0561 85.4347 97.0561H54.1555C47.2571 97.0561 41.6816 91.4806 41.6816 84.5822C41.6816 77.6838 47.2571 72.1083 54.1555 72.1083H85.4347Z" fill="#36C5F0"/>
<path d="M135.425 84.5822C135.425 77.6838 141 72.1083 147.899 72.1083C154.797 72.1083 160.373 77.6838 160.373 84.5822C160.373 91.4806 154.797 97.0561 147.899 97.0561H135.425V84.5822ZM129.188 84.5822C129.188 91.4806 123.613 97.0561 116.714 97.0561C109.816 97.0561 104.24 91.4806 104.24 84.5822V53.303C104.24 46.4045 109.816 40.8291 116.714 40.8291C123.613 40.8291 129.188 46.4045 129.188 53.303V84.5822Z" fill="#2EB67D"/>
<path d="M116.714 134.572C123.613 134.572 129.188 140.148 129.188 147.046C129.188 153.945 123.613 159.52 116.714 159.52C109.816 159.52 104.24 153.945 104.24 147.046V134.572H116.714ZM116.714 128.335C109.816 128.335 104.24 122.76 104.24 115.861C104.24 108.963 109.816 103.388 116.714 103.388H147.993C154.892 103.388 160.467 108.963 160.467 115.861C160.467 122.76 154.892 128.335 147.993 128.335H116.714Z" fill="#ECB22E"/>
</svg>
