<svg width="200" height="200" viewBox="0 0 200 200" fill="none" xmlns="http://www.w3.org/2000/svg">
<rect width="200" height="200" rx="30" fill="#1D9BF0"/>
<path d="M157.047 81.5639C157.12 82.6199 157.12 83.6759 157.12 84.7416C157.12 117.215 132.355 154.666 87.07 154.666V154.647C73.6928 154.666 60.5935 150.841 49.332 143.629C51.2772 143.863 53.2321 143.98 55.1919 143.985C66.2778 143.994 77.0468 140.281 85.7684 133.444C75.2333 133.245 65.995 126.388 62.7677 116.378C66.4582 117.088 70.2607 116.942 73.8829 115.954C62.3972 113.638 54.134 103.565 54.134 91.866C54.134 91.7589 54.134 91.6567 54.134 91.5545C57.5563 93.4573 61.3881 94.5133 65.3077 94.6301C54.4899 87.4133 51.1553 73.0478 57.6879 61.8162C70.1876 77.1696 88.63 86.5032 108.428 87.4911C106.444 78.9555 109.154 70.0112 115.55 64.0109C125.466 54.7065 141.061 55.1834 150.383 65.0767C155.896 63.9915 161.181 61.9719 166.017 59.1105C164.179 64.7993 160.333 69.6316 155.194 72.7023C160.074 72.128 164.842 70.8238 169.332 68.8335C166.027 73.7777 161.863 78.0844 157.047 81.5639Z" fill="white"/>
</svg>
