<svg width="313" height="283" viewBox="0 0 313 283" fill="none" xmlns="http://www.w3.org/2000/svg">
<g opacity="0.6">
<path d="M134.945 239.839L113.811 276.443L57.145 243.727L111.812 149.041L145.62 168.56C158.169 175.805 169.316 179.384 179.028 179.154C189.285 179.098 197.951 172.64 205.075 160.301L211.143 149.791C218.638 136.809 219.841 125.079 214.415 114.763C209.244 104.294 198.93 94.6703 183.643 85.8441C171.112 78.6094 158.089 72.9265 144.573 68.7972C131.682 64.5119 118.155 61.0048 103.992 58.2751L136.522 1.93128C151.752 1.18936 168.774 2.84309 187.596 6.90903L187.604 6.91083L187.612 6.91249C206.769 10.7105 226.803 18.634 247.717 30.7082C269.822 43.4706 285.949 58.0394 296.17 74.3891L296.175 74.3962C306.711 90.9423 311.722 108.3 311.241 126.489L311.241 126.498L311.241 126.506C311.06 144.891 305.75 163.152 295.271 181.302L281.025 205.978C264.405 234.764 244.089 252.144 220.122 258.334C196.344 264.216 168.435 258.019 136.311 239.473L135.445 238.973L134.945 239.839ZM61.7 369.647L61.6629 369.65L61.6261 369.657C59.2108 370.076 56.5749 369.518 53.6783 367.846L7.59825 341.242C4.38634 339.387 2.60038 337.285 1.9875 334.99C1.3745 332.695 1.87336 329.978 3.7312 326.76L32.752 276.494C34.7032 273.115 36.8813 271.207 39.2272 270.52C41.5617 269.837 44.2893 270.297 47.4912 272.145L93.5712 298.749C96.9352 300.692 98.8132 302.898 99.4582 305.313C100.103 307.728 99.5764 310.582 97.6306 313.952L68.6099 364.217C66.5918 367.713 64.2713 369.395 61.7 369.647Z" stroke="url(#paint0_linear_660_4413)" stroke-width="2"/>
<path d="M134.945 239.839L113.811 276.443L57.145 243.727L111.812 149.041L145.62 168.56C158.169 175.805 169.316 179.384 179.028 179.154C189.285 179.098 197.951 172.64 205.075 160.301L211.143 149.791C218.638 136.809 219.841 125.079 214.415 114.763C209.244 104.294 198.93 94.6703 183.643 85.8441C171.112 78.6094 158.089 72.9265 144.573 68.7972C131.682 64.5119 118.155 61.0048 103.992 58.2751L136.522 1.93128C151.752 1.18936 168.774 2.84309 187.596 6.90903L187.604 6.91083L187.612 6.91249C206.769 10.7105 226.803 18.634 247.717 30.7082C269.822 43.4706 285.949 58.0394 296.17 74.3891L296.175 74.3962C306.711 90.9423 311.722 108.3 311.241 126.489L311.241 126.498L311.241 126.506C311.06 144.891 305.75 163.152 295.271 181.302L281.025 205.978C264.405 234.764 244.089 252.144 220.122 258.334C196.344 264.216 168.435 258.019 136.311 239.473L135.445 238.973L134.945 239.839ZM61.7 369.647L61.6629 369.65L61.6261 369.657C59.2108 370.076 56.5749 369.518 53.6783 367.846L7.59825 341.242C4.38634 339.387 2.60038 337.285 1.9875 334.99C1.3745 332.695 1.87336 329.978 3.7312 326.76L32.752 276.494C34.7032 273.115 36.8813 271.207 39.2272 270.52C41.5617 269.837 44.2893 270.297 47.4912 272.145L93.5712 298.749C96.9352 300.692 98.8132 302.898 99.4582 305.313C100.103 307.728 99.5764 310.582 97.6306 313.952L68.6099 364.217C66.5918 367.713 64.2713 369.395 61.7 369.647Z" stroke="url(#paint1_linear_660_4413)" stroke-width="2"/>
</g>
<defs>
<linearGradient id="paint0_linear_660_4413" x1="191.5" y1="83.4995" x2="271.058" y2="260.658" gradientUnits="userSpaceOnUse">
<stop stop-color="white"/>
<stop offset="0.976841" stop-color="white" stop-opacity="0"/>
</linearGradient>
<linearGradient id="paint1_linear_660_4413" x1="178.913" y1="-10.17" x2="-57.0003" y2="405.999" gradientUnits="userSpaceOnUse">
<stop stop-color="#79F0A9"/>
<stop offset="1" stop-color="#79F0A9" stop-opacity="0"/>
</linearGradient>
</defs>
</svg>
